<svg xmlns="http://www.w3.org/2000/svg" xmlns:xlink="http://www.w3.org/1999/xlink" contentStyleType="text/css" data-diagram-type="DESCRIPTION" height="837px" preserveAspectRatio="none" style="width:2991px;height:837px;background:#FFFFFF;" version="1.1" viewBox="0 0 2991 837" width="2991px" zoomAndPan="magnify"><?plantuml 1.2026.6?><defs/><g><g class="title" data-source-line="1"><text fill="#000000" font-family="sans-serif" font-size="14" font-weight="700" lengthAdjust="spacing" textLength="332.582" x="1325.709" y="22.9951">Apex &#8212; System Architecture (Component)</text></g><!--cluster FEP--><g class="cluster" data-qualified-name="FEP" data-source-line="21" id="ent0001"><path d="M8.5,43.2969 L179.1406,43.2969 A3.75,3.75 0 0 1 181.6406,45.7969 L188.6406,65.5938 L410.5,65.5938 A2.5,2.5 0 0 1 413,68.0938 L413,420.7969 A2.5,2.5 0 0 1 410.5,423.2969 L8.5,423.2969 A2.5,2.5 0 0 1 6,420.7969 L6,45.7969 A2.5,2.5 0 0 1 8.5,43.2969" fill="#FFFFFF" style="stroke:#888888;stroke-width:1.5;"/><line style="stroke:#888888;stroke-width:1.5;" x1="6" x2="188.6406" y1="65.5938" y2="65.5938"/><text fill="#000000" font-family="sans-serif" font-size="14" font-weight="700" lengthAdjust="spacing" textLength="169.6406" x="10" y="58.292">Frontend (Next.js 15)</text></g><!--cluster BEP--><g class="cluster" data-qualified-name="BEP" data-source-line="29" id="ent0007"><path d="M439.5,176.2969 L700.8057,176.2969 A3.75,3.75 0 0 1 703.3057,178.7969 L710.3057,198.5938 L1643.5,198.5938 A2.5,2.5 0 0 1 1646,201.0938 L1646,686.7969 A2.5,2.5 0 0 1 1643.5,689.2969 L439.5,689.2969 A2.5,2.5 0 0 1 437,686.7969 L437,178.7969 A2.5,2.5 0 0 1 439.5,176.2969" fill="#FFFFFF" style="stroke:#888888;stroke-width:1.5;"/><line style="stroke:#888888;stroke-width:1.5;" x1="437" x2="710.3057" y1="198.5938" y2="198.5938"/><text fill="#000000" font-family="sans-serif" font-size="14" font-weight="700" lengthAdjust="spacing" textLength="260.3057" x="441" y="191.292">Backend (FastAPI &#183; single writer)</text></g><!--cluster SSP--><g class="cluster" data-qualified-name="SSP" data-source-line="42" id="ent0018"><path d="M157.5,575.7969 L244.0654,575.7969 A3.75,3.75 0 0 1 246.5654,578.2969 L253.5654,598.0938 L410.5,598.0938 A2.5,2.5 0 0 1 413,600.5938 L413,819.7969 A2.5,2.5 0 0 1 410.5,822.2969 L157.5,822.2969 A2.5,2.5 0 0 1 155,819.7969 L155,578.2969 A2.5,2.5 0 0 1 157.5,575.7969" fill="#FFFFFF" style="stroke:#888888;stroke-width:1.5;"/><line style="stroke:#888888;stroke-width:1.5;" x1="155" x2="253.5654" y1="598.0938" y2="598.0938"/><text fill="#000000" font-family="sans-serif" font-size="14" font-weight="700" lengthAdjust="spacing" textLength="85.5654" x="159" y="590.792">Spec Store</text></g><!--cluster PMP--><g class="cluster" data-qualified-name="PMP" data-source-line="47" id="ent0021"><path d="M1672.5,575.2969 L1744.4844,575.2969 A3.75,3.75 0 0 1 1746.9844,577.7969 L1753.9844,597.5938 L2032.5,597.5938 A2.5,2.5 0 0 1 2035,600.0938 L2035,819.7969 A2.5,2.5 0 0 1 2032.5,822.2969 L1672.5,822.2969 A2.5,2.5 0 0 1 1670,819.7969 L1670,577.7969 A2.5,2.5 0 0 1 1672.5,575.2969" fill="#FFFFFF" style="stroke:#888888;stroke-width:1.5;"/><line style="stroke:#888888;stroke-width:1.5;" x1="1670" x2="1753.9844" y1="597.5938" y2="597.5938"/><text fill="#000000" font-family="sans-serif" font-size="14" font-weight="700" lengthAdjust="spacing" textLength="70.9844" x="1674" y="590.292">PM Tools</text></g><!--cluster AIP--><g class="cluster" data-qualified-name="AIP" data-source-line="53" id="ent0025"><path d="M2061.5,583.7969 L2158.8799,583.7969 A3.75,3.75 0 0 1 2161.3799,586.2969 L2168.3799,606.0938 L2555.5,606.0938 A2.5,2.5 0 0 1 2558,608.5938 L2558,678.2969 A2.5,2.5 0 0 1 2555.5,680.7969 L2061.5,680.7969 A2.5,2.5 0 0 1 2059,678.2969 L2059,586.2969 A2.5,2.5 0 0 1 2061.5,583.7969" fill="#FFFFFF" style="stroke:#888888;stroke-width:1.5;"/><line style="stroke:#888888;stroke-width:1.5;" x1="2059" x2="2168.3799" y1="606.0938" y2="606.0938"/><text fill="#000000" font-family="sans-serif" font-size="14" font-weight="700" lengthAdjust="spacing" textLength="96.3799" x="2063" y="598.792">AI Providers</text></g><!--cluster VCSP--><g class="cluster" data-qualified-name="VCSP" data-source-line="59" id="ent0029"><path d="M2790.5,583.7969 L2822.6924,583.7969 A3.75,3.75 0 0 1 2825.1924,586.2969 L2832.1924,606.0938 L2973.5,606.0938 A2.5,2.5 0 0 1 2976,608.5938 L2976,678.2969 A2.5,2.5 0 0 1 2973.5,680.7969 L2790.5,680.7969 A2.5,2.5 0 0 1 2788,678.2969 L2788,586.2969 A2.5,2.5 0 0 1 2790.5,583.7969" fill="#FFFFFF" style="stroke:#888888;stroke-width:1.5;"/><line style="stroke:#888888;stroke-width:1.5;" x1="2788" x2="2832.1924" y1="606.0938" y2="606.0938"/><text fill="#000000" font-family="sans-serif" font-size="14" font-weight="700" lengthAdjust="spacing" textLength="31.1924" x="2792" y="598.792">VCS</text></g><!--cluster DTP--><g class="cluster" data-qualified-name="DTP" data-source-line="63" id="ent0031"><path d="M2584.5,575.2969 L2686.5283,575.2969 A3.75,3.75 0 0 1 2689.0283,577.7969 L2696.0283,597.5938 L2761.5,597.5938 A2.5,2.5 0 0 1 2764,600.0938 L2764,686.7969 A2.5,2.5 0 0 1 2761.5,689.2969 L2584.5,689.2969 A2.5,2.5 0 0 1 2582,686.7969 L2582,577.7969 A2.5,2.5 0 0 1 2584.5,575.2969" fill="#FFFFFF" style="stroke:#888888;stroke-width:1.5;"/><line style="stroke:#888888;stroke-width:1.5;" x1="2582" x2="2696.0283" y1="597.5938" y2="597.5938"/><text fill="#000000" font-family="sans-serif" font-size="14" font-weight="700" lengthAdjust="spacing" textLength="101.0283" x="2586" y="590.292">Design Tools</text></g><!--entity UI--><g class="entity" data-qualified-name="FEP.UI" data-source-line="22" id="ent0002"><rect fill="#F5F5F5" height="62.5938" rx="2.5" ry="2.5" style="stroke:#666666;stroke-width:0.5;" width="175.249" x="22.5" y="78.2969"/><rect fill="#F5F5F5" height="10" style="stroke:#666666;stroke-width:0.5;" width="15" x="177.749" y="83.2969"/><rect fill="#F5F5F5" height="2" style="stroke:#666666;stroke-width:0.5;" width="4" x="175.749" y="85.2969"/><rect fill="#F5F5F5" height="2" style="stroke:#666666;stroke-width:0.5;" width="4" x="175.749" y="89.2969"/><text fill="#000000" font-family="sans-serif" font-size="14" lengthAdjust="spacing" textLength="132.9043" x="37.5" y="111.292">Web UI / Phase 1-6</text><text fill="#000000" font-family="sans-serif" font-size="14" lengthAdjust="spacing" textLength="135.249" x="37.5" y="127.5889">workflow + sidebar</text></g><!--entity RQ--><g class="entity" data-qualified-name="FEP.RQ" data-source-line="23" id="ent0003"><rect fill="#F5F5F5" height="62.5938" rx="2.5" ry="2.5" style="stroke:#666666;stroke-width:0.5;" width="140.4609" x="240" y="211.2969"/><rect fill="#F5F5F5" height="10" style="stroke:#666666;stroke-width:0.5;" width="15" x="360.4609" y="216.2969"/><rect fill="#F5F5F5" height="2" style="stroke:#666666;stroke-width:0.5;" width="4" x="358.4609" y="218.2969"/><rect fill="#F5F5F5" height="2" style="stroke:#666666;stroke-width:0.5;" width="4" x="358.4609" y="222.2969"/><text fill="#000000" font-family="sans-serif" font-size="14" lengthAdjust="spacing" textLength="100.4609" x="255" y="244.292">React Query 5</text><text fill="#000000" font-family="sans-serif" font-size="14" lengthAdjust="spacing" textLength="95.1563" x="255" y="260.5889">(server state)</text></g><!--entity ZS--><g class="entity" data-qualified-name="FEP.ZS" data-source-line="24" id="ent0004"><rect fill="#F5F5F5" height="62.5938" rx="2.5" ry="2.5" style="stroke:#666666;stroke-width:0.5;" width="157.0313" x="31.5" y="211.2969"/><rect fill="#F5F5F5" height="10" style="stroke:#666666;stroke-width:0.5;" width="15" x="168.5313" y="216.2969"/><rect fill="#F5F5F5" height="2" style="stroke:#666666;stroke-width:0.5;" width="4" x="166.5313" y="218.2969"/><rect fill="#F5F5F5" height="2" style="stroke:#666666;stroke-width:0.5;" width="4" x="166.5313" y="222.2969"/><text fill="#000000" font-family="sans-serif" font-size="14" lengthAdjust="spacing" textLength="105.0479" x="46.5" y="244.292">Zustand stores</text><text fill="#000000" font-family="sans-serif" font-size="14" lengthAdjust="spacing" textLength="117.0313" x="46.5" y="260.5889">(session &#183; drafts)</text></g><!--entity PMA--><g class="entity" data-qualified-name="FEP.PMA" data-source-line="25" id="ent0005"><rect fill="#F5F5F5" height="62.5938" rx="2.5" ry="2.5" style="stroke:#666666;stroke-width:0.5;" width="125.3809" x="259.5" y="344.2969"/><rect fill="#F5F5F5" height="10" style="stroke:#666666;stroke-width:0.5;" width="15" x="364.8809" y="349.2969"/><rect fill="#F5F5F5" height="2" style="stroke:#666666;stroke-width:0.5;" width="4" x="362.8809" y="351.2969"/><rect fill="#F5F5F5" height="2" style="stroke:#666666;stroke-width:0.5;" width="4" x="362.8809" y="355.2969"/><text fill="#000000" font-family="sans-serif" font-size="14" lengthAdjust="spacing" textLength="80.7598" x="274.5" y="377.292">PM Adapter</text><text fill="#000000" font-family="sans-serif" font-size="14" lengthAdjust="spacing" textLength="85.3809" x="274.5" y="393.5889">(Taiga / Jira)</text></g><!--entity GHB--><g class="entity" data-qualified-name="FEP.GHB" data-source-line="26" id="ent0006"><rect fill="#F5F5F5" height="46.2969" rx="2.5" ry="2.5" style="stroke:#666666;stroke-width:0.5;" width="163.5049" x="233" y="86.7969"/><rect fill="#F5F5F5" height="10" style="stroke:#666666;stroke-width:0.5;" width="15" x="376.5049" y="91.7969"/><rect fill="#F5F5F5" height="2" style="stroke:#666666;stroke-width:0.5;" width="4" x="374.5049" y="93.7969"/><rect fill="#F5F5F5" height="2" style="stroke:#666666;stroke-width:0.5;" width="4" x="374.5049" y="97.7969"/><text fill="#000000" font-family="sans-serif" font-size="14" lengthAdjust="spacing" textLength="123.5049" x="248" y="119.792">github-browser.ts</text></g><!--entity API--><g class="entity" data-qualified-name="BEP.API" data-source-line="30" id="ent0008"><rect fill="#F5F5F5" height="62.5938" rx="2.5" ry="2.5" style="stroke:#666666;stroke-width:0.5;" width="163.2314" x="637.5" y="211.2969"/><rect fill="#F5F5F5" height="10" style="stroke:#666666;stroke-width:0.5;" width="15" x="780.7314" y="216.2969"/><rect fill="#F5F5F5" height="2" style="stroke:#666666;stroke-width:0.5;" width="4" x="778.7314" y="218.2969"/><rect fill="#F5F5F5" height="2" style="stroke:#666666;stroke-width:0.5;" width="4" x="778.7314" y="222.2969"/><text fill="#000000" font-family="sans-serif" font-size="14" lengthAdjust="spacing" textLength="101.9238" x="652.5" y="244.292">FastAPI Server</text><text fill="#000000" font-family="sans-serif" font-size="14" lengthAdjust="spacing" textLength="123.2314" x="652.5" y="260.5889">CORS &#183; body-limit</text></g><!--entity RT--><g class="entity" data-qualified-name="BEP.RT" data-source-line="31" id="ent0009"><rect fill="#F5F5F5" height="62.5938" rx="2.5" ry="2.5" style="stroke:#666666;stroke-width:0.5;" width="193.4121" x="805.5" y="344.2969"/><rect fill="#F5F5F5" height="10" style="stroke:#666666;stroke-width:0.5;" width="15" x="978.9121" y="349.2969"/><rect fill="#F5F5F5" height="2" style="stroke:#666666;stroke-width:0.5;" width="4" x="976.9121" y="351.2969"/><rect fill="#F5F5F5" height="2" style="stroke:#666666;stroke-width:0.5;" width="4" x="976.9121" y="355.2969"/><text fill="#000000" font-family="sans-serif" font-size="14" lengthAdjust="spacing" textLength="96.5986" x="820.5" y="377.292">Phase routers</text><text fill="#000000" font-family="sans-serif" font-size="14" lengthAdjust="spacing" textLength="153.4121" x="820.5" y="393.5889">phase1-6 &#183; workspace</text></g><!--entity CS--><g class="entity" data-qualified-name="BEP.CS" data-source-line="32" id="ent0010"><rect fill="#F5F5F5" height="62.5938" rx="2.5" ry="2.5" style="stroke:#666666;stroke-width:0.5;" width="146.832" x="453.5" y="477.2969"/><rect fill="#F5F5F5" height="10" style="stroke:#666666;stroke-width:0.5;" width="15" x="580.332" y="482.2969"/><rect fill="#F5F5F5" height="2" style="stroke:#666666;stroke-width:0.5;" width="4" x="578.332" y="484.2969"/><rect fill="#F5F5F5" height="2" style="stroke:#666666;stroke-width:0.5;" width="4" x="578.332" y="488.2969"/><text fill="#000000" font-family="sans-serif" font-size="14" lengthAdjust="spacing" textLength="106.832" x="468.5" y="510.292">ContextService</text><text fill="#000000" font-family="sans-serif" font-size="14" lengthAdjust="spacing" textLength="101.6094" x="468.5" y="526.5889">isolation seam</text></g><!--entity STG--><g class="entity" data-qualified-name="BEP.STG" data-source-line="33" id="ent0011"><rect fill="#F5F5F5" height="62.5938" rx="2.5" ry="2.5" style="stroke:#666666;stroke-width:0.5;" width="126.1602" x="458" y="610.2969"/><rect fill="#F5F5F5" height="10" style="stroke:#666666;stroke-width:0.5;" width="15" x="564.1602" y="615.2969"/><rect fill="#F5F5F5" height="2" style="stroke:#666666;stroke-width:0.5;" width="4" x="562.1602" y="617.2969"/><rect fill="#F5F5F5" height="2" style="stroke:#666666;stroke-width:0.5;" width="4" x="562.1602" y="621.2969"/><text fill="#000000" font-family="sans-serif" font-size="14" lengthAdjust="spacing" textLength="74.8057" x="473" y="643.292">storage.py</text><text fill="#000000" font-family="sans-serif" font-size="14" lengthAdjust="spacing" textLength="86.1602" x="473" y="659.5889">StoragePath</text></g><!--entity PROX--><g class="entity" data-qualified-name="BEP.PROX" data-source-line="34" id="ent0012"><rect fill="#F5F5F5" height="62.5938" rx="2.5" ry="2.5" style="stroke:#666666;stroke-width:0.5;" width="155.3838" x="635.5" y="477.2969"/><rect fill="#F5F5F5" height="10" style="stroke:#666666;stroke-width:0.5;" width="15" x="770.8838" y="482.2969"/><rect fill="#F5F5F5" height="2" style="stroke:#666666;stroke-width:0.5;" width="4" x="768.8838" y="484.2969"/><rect fill="#F5F5F5" height="2" style="stroke:#666666;stroke-width:0.5;" width="4" x="768.8838" y="488.2969"/><text fill="#000000" font-family="sans-serif" font-size="14" lengthAdjust="spacing" textLength="115.3838" x="650.5" y="510.292">taiga / jira proxy</text><text fill="#000000" font-family="sans-serif" font-size="14" lengthAdjust="spacing" textLength="102.3613" x="650.5" y="526.5889">SSRF &#183; _egress</text></g><!--entity AIE--><g class="entity" data-qualified-name="BEP.AIE" data-source-line="35" id="ent0013"><rect fill="#F5F5F5" height="62.5938" rx="2.5" ry="2.5" style="stroke:#666666;stroke-width:0.5;" width="153.4219" x="825.5" y="477.2969"/><rect fill="#F5F5F5" height="10" style="stroke:#666666;stroke-width:0.5;" width="15" x="958.9219" y="482.2969"/><rect fill="#F5F5F5" height="2" style="stroke:#666666;stroke-width:0.5;" width="4" x="956.9219" y="484.2969"/><rect fill="#F5F5F5" height="2" style="stroke:#666666;stroke-width:0.5;" width="4" x="956.9219" y="488.2969"/><text fill="#000000" font-family="sans-serif" font-size="14" lengthAdjust="spacing" textLength="67.2178" x="840.5" y="510.292">ai_engine</text><text fill="#000000" font-family="sans-serif" font-size="14" lengthAdjust="spacing" textLength="113.4219" x="840.5" y="526.5889">provider routing</text></g><!--entity FIG--><g class="entity" data-qualified-name="BEP.FIG" data-source-line="36" id="ent0014"><rect fill="#F5F5F5" height="62.5938" rx="2.5" ry="2.5" style="stroke:#666666;stroke-width:0.5;" width="222.8408" x="1013.5" y="477.2969"/><rect fill="#F5F5F5" height="10" style="stroke:#666666;stroke-width:0.5;" width="15" x="1216.3408" y="482.2969"/><rect fill="#F5F5F5" height="2" style="stroke:#666666;stroke-width:0.5;" width="4" x="1214.3408" y="484.2969"/><rect fill="#F5F5F5" height="2" style="stroke:#666666;stroke-width:0.5;" width="4" x="1214.3408" y="488.2969"/><text fill="#000000" font-family="sans-serif" font-size="14" lengthAdjust="spacing" textLength="182.8408" x="1028.5" y="510.292">figma_proxy / figma_fetch</text><text fill="#000000" font-family="sans-serif" font-size="14" lengthAdjust="spacing" textLength="88.6279" x="1028.5" y="526.5889">SSRF-pinned</text></g><!--entity GHF--><g class="entity" data-qualified-name="BEP.GHF" data-source-line="37" id="ent0015"><rect fill="#F5F5F5" height="62.5938" rx="2.5" ry="2.5" style="stroke:#666666;stroke-width:0.5;" width="155.9033" x="1272" y="477.2969"/><rect fill="#F5F5F5" height="10" style="stroke:#666666;stroke-width:0.5;" width="15" x="1407.9033" y="482.2969"/><rect fill="#F5F5F5" height="2" style="stroke:#666666;stroke-width:0.5;" width="4" x="1405.9033" y="484.2969"/><rect fill="#F5F5F5" height="2" style="stroke:#666666;stroke-width:0.5;" width="4" x="1405.9033" y="488.2969"/><text fill="#000000" font-family="sans-serif" font-size="14" lengthAdjust="spacing" textLength="87.5" x="1287" y="510.292">github_fetch</text><text fill="#000000" font-family="sans-serif" font-size="14" lengthAdjust="spacing" textLength="115.9033" x="1287" y="526.5889">clone + repomix</text></g><!--entity GHW--><g class="entity" data-qualified-name="BEP.GHW" data-source-line="38" id="ent0016"><rect fill="#F5F5F5" height="62.5938" rx="2.5" ry="2.5" style="stroke:#666666;stroke-width:0.5;" width="178.2568" x="1452" y="211.2969"/><rect fill="#F5F5F5" height="10" style="stroke:#666666;stroke-width:0.5;" width="15" x="1610.2568" y="216.2969"/><rect fill="#F5F5F5" height="2" style="stroke:#666666;stroke-width:0.5;" width="4" x="1608.2568" y="218.2969"/><rect fill="#F5F5F5" height="2" style="stroke:#666666;stroke-width:0.5;" width="4" x="1608.2568" y="222.2969"/><text fill="#000000" font-family="sans-serif" font-size="14" lengthAdjust="spacing" textLength="114.96" x="1467" y="244.292">github_webhook</text><text fill="#000000" font-family="sans-serif" font-size="14" lengthAdjust="spacing" textLength="138.2568" x="1467" y="260.5889">HMAC push handler</text></g><!--entity GHA--><g class="entity" data-qualified-name="BEP.GHA" data-source-line="39" id="ent0017"><rect fill="#F5F5F5" height="62.5938" rx="2.5" ry="2.5" style="stroke:#666666;stroke-width:0.5;" width="166.7588" x="1463.5" y="477.2969"/><rect fill="#F5F5F5" height="10" style="stroke:#666666;stroke-width:0.5;" width="15" x="1610.2588" y="482.2969"/><rect fill="#F5F5F5" height="2" style="stroke:#666666;stroke-width:0.5;" width="4" x="1608.2588" y="484.2969"/><rect fill="#F5F5F5" height="2" style="stroke:#666666;stroke-width:0.5;" width="4" x="1608.2588" y="488.2969"/><text fill="#000000" font-family="sans-serif" font-size="14" lengthAdjust="spacing" textLength="102.2861" x="1478.5" y="510.292">github_actions</text><text fill="#000000" font-family="sans-serif" font-size="14" lengthAdjust="spacing" textLength="126.7588" x="1478.5" y="526.5889">workflow dispatch</text></g><!--entity STORE--><g class="entity" data-qualified-name="SSP.STORE" data-source-line="43" id="ent0019"><path d="M171.5,620.7969 C171.5,610.7969 283.9946,610.7969 283.9946,610.7969 C283.9946,610.7969 396.4893,610.7969 396.4893,620.7969 L396.4893,662.3906 C396.4893,672.3906 283.9946,672.3906 283.9946,672.3906 C283.9946,672.3906 171.5,672.3906 171.5,662.3906 L171.5,620.7969" fill="#E8F5E9" style="stroke:#66A36B;stroke-width:0.5;"/><path d="M171.5,620.7969 C171.5,630.7969 283.9946,630.7969 283.9946,630.7969 C283.9946,630.7969 396.4893,630.7969 396.4893,620.7969" fill="none" style="stroke:#66A36B;stroke-width:0.5;"/><text fill="#000000" font-family="sans-serif" font-size="14" lengthAdjust="spacing" textLength="85.5039" x="181.5" y="647.792">contextspec</text><text fill="#000000" font-family="sans-serif" font-size="14" lengthAdjust="spacing" textLength="204.9893" x="181.5" y="664.0889">Markdown + story-index.json</text></g><!--entity FSS--><g class="entity" data-qualified-name="SSP.FSS" data-source-line="44" id="ent0020"><rect fill="#F5F5F5" height="62.5938" rx="2.5" ry="2.5" style="stroke:#666666;stroke-width:0.5;" width="154.2217" x="207" y="743.2969"/><rect fill="#F5F5F5" height="10" style="stroke:#666666;stroke-width:0.5;" width="15" x="341.2217" y="748.2969"/><rect fill="#F5F5F5" height="2" style="stroke:#666666;stroke-width:0.5;" width="4" x="339.2217" y="750.2969"/><rect fill="#F5F5F5" height="2" style="stroke:#666666;stroke-width:0.5;" width="4" x="339.2217" y="754.2969"/><text fill="#000000" font-family="sans-serif" font-size="14" lengthAdjust="spacing" textLength="74.416" x="222" y="776.292">local disk /</text><text fill="#000000" font-family="sans-serif" font-size="14" lengthAdjust="spacing" textLength="114.2217" x="222" y="792.5889">Azure File Share</text></g><!--entity RLY--><g class="entity" data-qualified-name="PMP.RLY" data-source-line="48" id="ent0022"><rect fill="#F5F5F5" height="62.5938" rx="2.5" ry="2.5" style="stroke:#666666;stroke-width:0.5;" width="151.3301" x="1686.5" y="610.2969"/><rect fill="#F5F5F5" height="10" style="stroke:#666666;stroke-width:0.5;" width="15" x="1817.8301" y="615.2969"/><rect fill="#F5F5F5" height="2" style="stroke:#666666;stroke-width:0.5;" width="4" x="1815.8301" y="617.2969"/><rect fill="#F5F5F5" height="2" style="stroke:#666666;stroke-width:0.5;" width="4" x="1815.8301" y="621.2969"/><text fill="#000000" font-family="sans-serif" font-size="14" lengthAdjust="spacing" textLength="111.3301" x="1701.5" y="643.292">Cloudflare relay</text><text fill="#000000" font-family="sans-serif" font-size="14" lengthAdjust="spacing" textLength="88.5527" x="1701.5" y="659.5889">non-Azure IP</text></g><!--entity TG--><g class="entity" data-qualified-name="PMP.TG" data-source-line="49" id="ent0023"><rect fill="#F5F5F5" height="62.5938" rx="2.5" ry="2.5" style="stroke:#666666;stroke-width:0.5;" width="181.251" x="1686.5" y="743.2969"/><rect fill="#F5F5F5" height="10" style="stroke:#666666;stroke-width:0.5;" width="15" x="1847.751" y="748.2969"/><rect fill="#F5F5F5" height="2" style="stroke:#666666;stroke-width:0.5;" width="4" x="1845.751" y="750.2969"/><rect fill="#F5F5F5" height="2" style="stroke:#666666;stroke-width:0.5;" width="4" x="1845.751" y="754.2969"/><text fill="#000000" font-family="sans-serif" font-size="14" lengthAdjust="spacing" textLength="38.4863" x="1701.5" y="776.292">Taiga</text><text fill="#000000" font-family="sans-serif" font-size="14" lengthAdjust="spacing" textLength="141.251" x="1701.5" y="792.5889">api.taiga.io / private</text></g><!--entity JR--><g class="entity" data-qualified-name="PMP.JR" data-source-line="50" id="ent0024"><rect fill="#F5F5F5" height="62.5938" rx="2.5" ry="2.5" style="stroke:#666666;stroke-width:0.5;" width="146.3428" x="1873" y="610.2969"/><rect fill="#F5F5F5" height="10" style="stroke:#666666;stroke-width:0.5;" width="15" x="1999.3428" y="615.2969"/><rect fill="#F5F5F5" height="2" style="stroke:#666666;stroke-width:0.5;" width="4" x="1997.3428" y="617.2969"/><rect fill="#F5F5F5" height="2" style="stroke:#666666;stroke-width:0.5;" width="4" x="1997.3428" y="621.2969"/><text fill="#000000" font-family="sans-serif" font-size="14" lengthAdjust="spacing" textLength="66.7939" x="1888" y="643.292">Jira Cloud</text><ellipse cx="1893.5" cy="655.3906" fill="#000000" rx="2.5" ry="2.5"/><text fill="#000000" font-family="sans-serif" font-size="14" lengthAdjust="spacing" textLength="94.3428" x="1900" y="659.5889">.atlassian.net</text></g><!--entity CL--><g class="entity" data-qualified-name="AIP.CL" data-source-line="54" id="ent0026"><rect fill="#F5F5F5" height="46.2969" rx="2.5" ry="2.5" style="stroke:#666666;stroke-width:0.5;" width="160.6748" x="2380.5" y="618.7969"/><rect fill="#F5F5F5" height="10" style="stroke:#666666;stroke-width:0.5;" width="15" x="2521.1748" y="623.7969"/><rect fill="#F5F5F5" height="2" style="stroke:#666666;stroke-width:0.5;" width="4" x="2519.1748" y="625.7969"/><rect fill="#F5F5F5" height="2" style="stroke:#666666;stroke-width:0.5;" width="4" x="2519.1748" y="629.7969"/><text fill="#000000" font-family="sans-serif" font-size="14" lengthAdjust="spacing" textLength="120.6748" x="2395.5" y="651.792">Anthropic Claude</text></g><!--entity OAI--><g class="entity" data-qualified-name="AIP.OAI" data-source-line="55" id="ent0027"><rect fill="#F5F5F5" height="46.2969" rx="2.5" ry="2.5" style="stroke:#666666;stroke-width:0.5;" width="91.0986" x="2254.5" y="618.7969"/><rect fill="#F5F5F5" height="10" style="stroke:#666666;stroke-width:0.5;" width="15" x="2325.5986" y="623.7969"/><rect fill="#F5F5F5" height="2" style="stroke:#666666;stroke-width:0.5;" width="4" x="2323.5986" y="625.7969"/><rect fill="#F5F5F5" height="2" style="stroke:#666666;stroke-width:0.5;" width="4" x="2323.5986" y="629.7969"/><text fill="#000000" font-family="sans-serif" font-size="14" lengthAdjust="spacing" textLength="51.0986" x="2269.5" y="651.792">OpenAI</text></g><!--entity GEM--><g class="entity" data-qualified-name="AIP.GEM" data-source-line="56" id="ent0028"><rect fill="#F5F5F5" height="46.2969" rx="2.5" ry="2.5" style="stroke:#666666;stroke-width:0.5;" width="143.5713" x="2075" y="618.7969"/><rect fill="#F5F5F5" height="10" style="stroke:#666666;stroke-width:0.5;" width="15" x="2198.5713" y="623.7969"/><rect fill="#F5F5F5" height="2" style="stroke:#666666;stroke-width:0.5;" width="4" x="2196.5713" y="625.7969"/><rect fill="#F5F5F5" height="2" style="stroke:#666666;stroke-width:0.5;" width="4" x="2196.5713" y="629.7969"/><text fill="#000000" font-family="sans-serif" font-size="14" lengthAdjust="spacing" textLength="103.5713" x="2090" y="651.792">Google Gemini</text></g><!--entity GH--><g class="entity" data-qualified-name="VCSP.GH" data-source-line="60" id="ent0030"><rect fill="#F5F5F5" height="46.2969" rx="2.5" ry="2.5" style="stroke:#666666;stroke-width:0.5;" width="155.5752" x="2804" y="618.7969"/><rect fill="#F5F5F5" height="10" style="stroke:#666666;stroke-width:0.5;" width="15" x="2939.5752" y="623.7969"/><rect fill="#F5F5F5" height="2" style="stroke:#666666;stroke-width:0.5;" width="4" x="2937.5752" y="625.7969"/><rect fill="#F5F5F5" height="2" style="stroke:#666666;stroke-width:0.5;" width="4" x="2937.5752" y="629.7969"/><text fill="#000000" font-family="sans-serif" font-size="14" lengthAdjust="spacing" textLength="115.5752" x="2819" y="651.792">GitHub REST API</text></g><!--entity FGA--><g class="entity" data-qualified-name="DTP.FGA" data-source-line="64" id="ent0032"><rect fill="#F5F5F5" height="62.5938" rx="2.5" ry="2.5" style="stroke:#666666;stroke-width:0.5;" width="150.1064" x="2598" y="610.2969"/><rect fill="#F5F5F5" height="10" style="stroke:#666666;stroke-width:0.5;" width="15" x="2728.1064" y="615.2969"/><rect fill="#F5F5F5" height="2" style="stroke:#666666;stroke-width:0.5;" width="4" x="2726.1064" y="617.2969"/><rect fill="#F5F5F5" height="2" style="stroke:#666666;stroke-width:0.5;" width="4" x="2726.1064" y="621.2969"/><text fill="#000000" font-family="sans-serif" font-size="14" lengthAdjust="spacing" textLength="110.1064" x="2613" y="643.292">Figma REST API</text><text fill="#000000" font-family="sans-serif" font-size="14" lengthAdjust="spacing" textLength="100.0781" x="2613" y="659.5889">api.figma.com</text></g><!--link UI to RQ--><g class="link" data-entity-1="ent0002" data-entity-2="ent0003" data-link-type="dependency" data-source-line="68" id="lnk33"><path d="M193,141.4369 C193,180.9169 193,243.2969 193,243.2969 C193,243.2969 210,243.2969 234.91,243.2969" fill="none" id="UI-to-RQ" style="stroke:#333333;stroke-width:1;"/><polygon fill="#333333" points="239.91,243.2969,230.91,239.2969,234.91,243.2969,230.91,247.2969,239.91,243.2969" style="stroke:#333333;stroke-width:1;stroke-linejoin:miter;stroke-miterlimit:10;"/></g><!--link UI to ZS--><g class="link" data-entity-1="ent0002" data-entity-2="ent0004" data-link-type="dependency" data-source-line="69" id="lnk34"><path d="M110,141.3169 C110,162.3669 110,184.9469 110,206.0469" fill="none" id="UI-to-ZS" style="stroke:#333333;stroke-width:1;"/><polygon fill="#333333" points="110,211.0469,114,202.0469,110,206.0469,106,202.0469,110,211.0469" style="stroke:#333333;stroke-width:1;stroke-linejoin:miter;stroke-miterlimit:10;"/></g><!--link RQ to PMA--><g class="link" data-entity-1="ent0003" data-entity-2="ent0005" data-link-type="dependency" data-source-line="70" id="lnk35"><path d="M319.75,274.3169 C319.75,295.3669 319.75,317.9469 319.75,339.0469" fill="none" id="RQ-to-PMA" style="stroke:#333333;stroke-width:1;"/><polygon fill="#333333" points="319.75,344.0469,323.75,335.0469,319.75,339.0469,315.75,335.0469,319.75,344.0469" style="stroke:#333333;stroke-width:1;stroke-linejoin:miter;stroke-miterlimit:10;"/></g><!--link UI to API--><g class="link" data-entity-1="ent0002" data-entity-2="ent0008" data-link-type="dependency" data-source-line="73" id="lnk36"><path d="M197.58,137.2969 C366.1,137.2969 719,137.2969 719,137.2969 C719,137.2969 719,175.0669 719,206.1469" fill="none" id="UI-to-API" style="stroke:#333333;stroke-width:1;"/><polygon fill="#333333" points="719,211.1469,723,202.1469,719,206.1469,715,202.1469,719,211.1469" style="stroke:#333333;stroke-width:1;stroke-linejoin:miter;stroke-miterlimit:10;"/><text fill="#000000" font-family="sans-serif" font-size="13" lengthAdjust="spacing" textLength="72.6616" x="422.21" y="133.3638">REST /api/*</text></g><!--link PMA to PROX--><g class="link" data-entity-1="ent0005" data-entity-2="ent0012" data-link-type="dependency" data-source-line="74" id="lnk37"><path d="M384.55,360.2969 C495.22,360.2969 714,360.2969 714,360.2969 C714,360.2969 714,428.3069 714,471.9369" fill="none" id="PMA-to-PROX" style="stroke:#333333;stroke-width:1;"/><polygon fill="#333333" points="714,476.9369,718,467.9369,714,471.9369,710,467.9369,714,476.9369" style="stroke:#333333;stroke-width:1;stroke-linejoin:miter;stroke-miterlimit:10;"/><text fill="#000000" font-family="sans-serif" font-size="13" lengthAdjust="spacing" textLength="60.3853" x="546.6" y="356.3638">/api/pm/*</text></g><!--link GHB to GH--><g class="link" data-entity-1="ent0006" data-entity-2="ent0030" data-link-type="dependency" data-source-line="75" id="lnk38"><path d="M397.18,110.2969 C840.7,110.2969 2928.8,110.2969 2928.8,110.2969 C2928.8,110.2969 2928.8,511.3169 2928.8,613.6169" fill="none" id="GHB-to-GH" style="stroke:#333333;stroke-width:1;"/><polygon fill="#333333" points="2928.8,618.6169,2932.8,609.6169,2928.8,613.6169,2924.8,609.6169,2928.8,618.6169" style="stroke:#333333;stroke-width:1;stroke-linejoin:miter;stroke-miterlimit:10;"/><text fill="#000000" font-family="sans-serif" font-size="13" lengthAdjust="spacing" textLength="94.4404" x="1822.15" y="106.3638">browser-direct</text></g><!--link API to RT--><g class="link" data-entity-1="ent0008" data-entity-2="ent0009" data-link-type="dependency" data-source-line="78" id="lnk39"><path d="M795.5,274.4369 C795.5,313.9169 795.5,376.2969 795.5,376.2969 C795.5,376.2969 794.24,376.2969 800.33,376.2969" fill="none" id="API-to-RT" style="stroke:#333333;stroke-width:1;"/><polygon fill="#333333" points="805.33,376.2969,796.33,372.2969,800.33,376.2969,796.33,380.2969,805.33,376.2969" style="stroke:#333333;stroke-width:1;stroke-linejoin:miter;stroke-miterlimit:10;"/></g><!--link RT to CS--><g class="link" data-entity-1="ent0009" data-entity-2="ent0010" data-link-type="dependency" data-source-line="79" id="lnk40"><path d="M805.43,392.2969 C694.32,392.2969 527,392.2969 527,392.2969 C527,392.2969 527,437.7669 527,472.2669" fill="none" id="RT-to-CS" style="stroke:#333333;stroke-width:1;"/><polygon fill="#333333" points="527,477.2669,531,468.2669,527,472.2669,523,468.2669,527,477.2669" style="stroke:#333333;stroke-width:1;stroke-linejoin:miter;stroke-miterlimit:10;"/></g><!--link RT to AIE--><g class="link" data-entity-1="ent0009" data-entity-2="ent0013" data-link-type="dependency" data-source-line="80" id="lnk41"><path d="M902,407.3169 C902,428.3669 902,450.9469 902,472.0469" fill="none" id="RT-to-AIE" style="stroke:#333333;stroke-width:1;"/><polygon fill="#333333" points="902,477.0469,906,468.0469,902,472.0469,898,468.0469,902,477.0469" style="stroke:#333333;stroke-width:1;stroke-linejoin:miter;stroke-miterlimit:10;"/></g><!--link RT to PROX--><g class="link" data-entity-1="ent0009" data-entity-2="ent0012" data-link-type="dependency" data-source-line="81" id="lnk42"><path d="M815.5,407.4369 C815.5,446.9169 815.5,509.2969 815.5,509.2969 C815.5,509.2969 809.98,509.2969 795.69,509.2969" fill="none" id="RT-to-PROX" style="stroke:#333333;stroke-width:1;"/><polygon fill="#333333" points="790.69,509.2969,799.69,513.2969,795.69,509.2969,799.69,505.2969,790.69,509.2969" style="stroke:#333333;stroke-width:1;stroke-linejoin:miter;stroke-miterlimit:10;"/></g><!--link RT to FIG--><g class="link" data-entity-1="ent0009" data-entity-2="ent0014" data-link-type="dependency" data-source-line="82" id="lnk43"><path d="M988.5,407.4369 C988.5,446.9169 988.5,509.2969 988.5,509.2969 C988.5,509.2969 993.56,509.2969 1008.22,509.2969" fill="none" id="RT-to-FIG" style="stroke:#333333;stroke-width:1;"/><polygon fill="#333333" points="1013.22,509.2969,1004.22,505.2969,1008.22,509.2969,1004.22,513.2969,1013.22,509.2969" style="stroke:#333333;stroke-width:1;stroke-linejoin:miter;stroke-miterlimit:10;"/></g><!--link RT to GHF--><g class="link" data-entity-1="ent0009" data-entity-2="ent0015" data-link-type="dependency" data-source-line="83" id="lnk44"><path d="M998.66,386.2969 C1130.36,386.2969 1350,386.2969 1350,386.2969 C1350,386.2969 1350,435.9569 1350,472.2469" fill="none" id="RT-to-GHF" style="stroke:#333333;stroke-width:1;"/><polygon fill="#333333" points="1350,477.2469,1354,468.2469,1350,472.2469,1346,468.2469,1350,477.2469" style="stroke:#333333;stroke-width:1;stroke-linejoin:miter;stroke-miterlimit:10;"/></g><!--link RT to GHA--><g class="link" data-entity-1="ent0009" data-entity-2="ent0017" data-link-type="dependency" data-source-line="84" id="lnk45"><path d="M998.53,365.2969 C1178.39,365.2969 1546.75,365.2969 1546.75,365.2969 C1546.75,365.2969 1546.75,429.6769 1546.75,471.9469" fill="none" id="RT-to-GHA" style="stroke:#333333;stroke-width:1;"/><polygon fill="#333333" points="1546.75,476.9469,1550.75,467.9469,1546.75,471.9469,1542.75,467.9469,1546.75,476.9469" style="stroke:#333333;stroke-width:1;stroke-linejoin:miter;stroke-miterlimit:10;"/></g><!--link CS to STG--><g class="link" data-entity-1="ent0010" data-entity-2="ent0011" data-link-type="dependency" data-source-line="85" id="lnk46"><path d="M521,540.3169 C521,561.3669 521,583.9469 521,605.0469" fill="none" id="CS-to-STG" style="stroke:#333333;stroke-width:1;"/><polygon fill="#333333" points="521,610.0469,525,601.0469,521,605.0469,517,601.0469,521,610.0469" style="stroke:#333333;stroke-width:1;stroke-linejoin:miter;stroke-miterlimit:10;"/></g><!--reverse link STORE to STG--><g class="link" data-entity-1="ent0019" data-entity-2="ent0011" data-link-type="dependency" data-source-line="88" id="lnk48"><path d="M401.6,642.2969 C422.62,642.2969 438.89,642.2969 457.75,642.2969" fill="none" id="STORE-backto-STG" style="stroke:#333333;stroke-width:1;"/><polygon fill="#333333" points="396.6,642.2969,405.6,646.2969,401.6,642.2969,405.6,638.2969,396.6,642.2969" style="stroke:#333333;stroke-width:1;stroke-linejoin:miter;stroke-miterlimit:10;"/></g><!--link STORE to FSS--><g class="link" data-entity-1="ent0019" data-entity-2="ent0020" data-link-type="dependency" data-source-line="89" id="lnk49"><path d="M284,672.9769 C284,694.0169 284,716.6969 284,737.8869" fill="none" id="STORE-to-FSS" style="stroke:#333333;stroke-width:1;"/><polygon fill="#333333" points="284,742.8869,288,733.8869,284,737.8869,280,733.8869,284,742.8869" style="stroke:#333333;stroke-width:1;stroke-linejoin:miter;stroke-miterlimit:10;"/></g><!--link PROX to RLY--><g class="link" data-entity-1="ent0012" data-entity-2="ent0022" data-link-type="dependency" data-source-line="92" id="lnk50"><path d="M738.83,540.4369 C738.83,579.9169 738.83,642.2969 738.83,642.2969 C738.83,642.2969 1444.64,642.2969 1681.35,642.2969" fill="none" id="PROX-to-RLY" style="stroke:#333333;stroke-width:1;"/><polygon fill="#333333" points="1686.35,642.2969,1677.35,638.2969,1681.35,642.2969,1677.35,646.2969,1686.35,642.2969" style="stroke:#333333;stroke-width:1;stroke-linejoin:miter;stroke-miterlimit:10;"/><text fill="#000000" font-family="sans-serif" font-size="13" lengthAdjust="spacing" textLength="84.5698" x="1076.66" y="638.3638">Azure egress</text></g><!--link RLY to TG--><g class="link" data-entity-1="ent0022" data-entity-2="ent0023" data-link-type="dependency" data-source-line="93" id="lnk51"><path d="M1762,673.3169 C1762,694.3669 1762,716.9469 1762,738.0469" fill="none" id="RLY-to-TG" style="stroke:#333333;stroke-width:1;"/><polygon fill="#333333" points="1762,743.0469,1766,734.0469,1762,738.0469,1758,734.0469,1762,743.0469" style="stroke:#333333;stroke-width:1;stroke-linejoin:miter;stroke-miterlimit:10;"/></g><!--link PROX to JR--><g class="link" data-entity-1="ent0012" data-entity-2="ent0024" data-link-type="dependency" data-source-line="94" id="lnk52"><path d="M687.17,540.5469 C687.17,566.9669 687.17,600.2969 687.17,600.2969 C687.17,600.2969 1946,600.2969 1946,600.2969 C1946,600.2969 1946,599.3469 1946,604.9269" fill="none" id="PROX-to-JR" style="stroke:#333333;stroke-width:1;"/><polygon fill="#333333" points="1946,609.9269,1950,600.9269,1946,604.9269,1942,600.9269,1946,609.9269" style="stroke:#333333;stroke-width:1;stroke-linejoin:miter;stroke-miterlimit:10;"/></g><!--link AIE to CL--><g class="link" data-entity-1="ent0013" data-entity-2="ent0026" data-link-type="dependency" data-source-line="95" id="lnk53"><path d="M940.25,540.6269 C940.25,555.6369 940.25,570.2969 940.25,570.2969 C940.25,570.2969 2461,570.2969 2461,570.2969 C2461,570.2969 2461,592.8769 2461,613.7769" fill="none" id="AIE-to-CL" style="stroke:#333333;stroke-width:1;"/><polygon fill="#333333" points="2461,618.7769,2465,609.7769,2461,613.7769,2457,609.7769,2461,618.7769" style="stroke:#333333;stroke-width:1;stroke-linejoin:miter;stroke-miterlimit:10;"/></g><!--link AIE to OAI--><g class="link" data-entity-1="ent0013" data-entity-2="ent0027" data-link-type="dependency" data-source-line="96" id="lnk54"><path d="M902,540.3669 C902,559.5169 902,580.2969 902,580.2969 C902,580.2969 2300,580.2969 2300,580.2969 C2300,580.2969 2300,596.1269 2300,613.5469" fill="none" id="AIE-to-OAI" style="stroke:#333333;stroke-width:1;"/><polygon fill="#333333" points="2300,618.5469,2304,609.5469,2300,613.5469,2296,609.5469,2300,618.5469" style="stroke:#333333;stroke-width:1;stroke-linejoin:miter;stroke-miterlimit:10;"/></g><!--link AIE to GEM--><g class="link" data-entity-1="ent0013" data-entity-2="ent0028" data-link-type="dependency" data-source-line="97" id="lnk55"><path d="M863.75,540.5369 C863.75,563.4269 863.75,590.2969 863.75,590.2969 C863.75,590.2969 2147,590.2969 2147,590.2969 C2147,590.2969 2147,600.0469 2147,613.7569" fill="none" id="AIE-to-GEM" style="stroke:#333333;stroke-width:1;"/><polygon fill="#333333" points="2147,618.7569,2151,609.7569,2147,613.7569,2143,609.7569,2147,618.7569" style="stroke:#333333;stroke-width:1;stroke-linejoin:miter;stroke-miterlimit:10;"/></g><!--link FIG to FGA--><g class="link" data-entity-1="ent0014" data-entity-2="ent0032" data-link-type="dependency" data-source-line="100" id="lnk56"><path d="M1125,540.5369 C1125,551.1269 1125,560.2969 1125,560.2969 C1125,560.2969 2673,560.2969 2673,560.2969 C2673,560.2969 2673,582.1669 2673,605.0569" fill="none" id="FIG-to-FGA" style="stroke:#333333;stroke-width:1;"/><polygon fill="#333333" points="2673,610.0569,2677,601.0569,2673,605.0569,2669,601.0569,2673,610.0569" style="stroke:#333333;stroke-width:1;stroke-linejoin:miter;stroke-miterlimit:10;"/></g><!--link GHF to GH--><g class="link" data-entity-1="ent0015" data-entity-2="ent0030" data-link-type="dependency" data-source-line="101" id="lnk57"><path d="M1350,540.6669 C1350,546.2469 1350,550.2969 1350,550.2969 C1350,550.2969 2835.2,550.2969 2835.2,550.2969 C2835.2,550.2969 2835.2,586.5969 2835.2,613.7069" fill="none" id="GHF-to-GH" style="stroke:#333333;stroke-width:1;"/><polygon fill="#333333" points="2835.2,618.7069,2839.2,609.7069,2835.2,613.7069,2831.2,609.7069,2835.2,618.7069" style="stroke:#333333;stroke-width:1;stroke-linejoin:miter;stroke-miterlimit:10;"/><text fill="#000000" font-family="sans-serif" font-size="13" lengthAdjust="spacing" textLength="160.5449" x="1960.99" y="546.3638">shallow clone + repomix</text></g><!--link GH to GHW--><g class="link" data-entity-1="ent0030" data-entity-2="ent0016" data-link-type="dependency" data-source-line="102" id="lnk58"><path d="M2897.6,618.6469 C2897.6,533.5969 2897.6,243.2969 2897.6,243.2969 C2897.6,243.2969 1936.82,243.2969 1635.01,243.2969" fill="none" id="GH-to-GHW" style="stroke:#333333;stroke-width:1;"/><polygon fill="#333333" points="1630.01,243.2969,1639.01,247.2969,1635.01,243.2969,1639.01,239.2969,1630.01,243.2969" style="stroke:#333333;stroke-width:1;stroke-linejoin:miter;stroke-miterlimit:10;"/><text fill="#000000" font-family="sans-serif" font-size="13" lengthAdjust="spacing" textLength="147.4307" x="2303.48" y="239.3638">push webhook (HMAC)</text></g><!--link GHA to GH--><g class="link" data-entity-1="ent0017" data-entity-2="ent0030" data-link-type="dependency" data-source-line="103" id="lnk59"><path d="M1630.54,509.2969 C1920.57,509.2969 2866.4,509.2969 2866.4,509.2969 C2866.4,509.2969 2866.4,575.7569 2866.4,613.7169" fill="none" id="GHA-to-GH" style="stroke:#333333;stroke-width:1;"/><polygon fill="#333333" points="2866.4,618.7169,2870.4,609.7169,2866.4,613.7169,2862.4,609.7169,2866.4,618.7169" style="stroke:#333333;stroke-width:1;stroke-linejoin:miter;stroke-miterlimit:10;"/><text fill="#000000" font-family="sans-serif" font-size="13" lengthAdjust="spacing" textLength="117.7046" x="2185.18" y="505.3638">dispatch workflow</text></g><?plantuml-src RLRXRjis4FwlfpXaFvPqaxqsIDPrm035jHqNoU9Oxh9s7WfQeYtMCYcGT69l6B27sBli_nvbJxAxe-J8InGWFfCVxuxVtNsoLxwKa5Ho2__--HUaE-Vb6XAR5ShBp6-iXEEUMLT6I-rFeiYjbAw45MkOYsorj6QZyvufZOKl1loq4AuGkNbGUWaBKJhPsiaQZwdVOVZDkdpLsYsLbdvNIJ3M5wQreKqkdQpWzAorQ8LUqUAttpmN07wF02wCpQMjqppdXrQVNE2C_g8_Mdugn8YbVEhbDJ_FUWaqjBqarfg7UlkKdzPcBhoO2oUVEEg_7fprltiEUNYTvFJy8egQJ8y6rcWlTGx7FygjxtnsyFBiv0Y4Wq5_p1VvvKxEuVq8kZ0kq1syZCzd-i7OrQ8q3_0LE9NBkR2_qfdt8pemaIBpSBkHTWTdCttifBsN5fmNNfumRd9Bk8yRNCBGpXih7GETKqR3Ftz3RiN2ku3-c19wV0r9BYelBIAdGYq5flHEMH50u-k4K4lbYyqydYE56BRZ7MyEBo-GuiTR4tjywO5mFXcFAAB3riFkUh3OoZPGSD5GqC1IlibCzsucAPsPctmNbsgjF8T126VAF65nq15UgwAlo1eT8DuSfY433LE2zwW2Mq--LIPdMZbJ2ayyE2dM3Emn0yGJfj-fTZET1diiVC68T3eaYAzv-OoyG6NDbg3fP42nFyabqXm86KzkVYQyK9-aNk84OPhMt6CfBIUEN8GRZVe4MwZbMdnYV-WyV5j8dnN1UrmfhMNE9mQZuMCT6b1MudXXhrXPcRNQrZKPj80FSbuOivhfo-ka1zN65L1WRvJIrk2x5XZR2-bnhJRC5RAAeMfmSb3jj98P466IgvgceQhDWC1H5YhW43VJryAkK8WqjJQUsSLAvtABas5qE3wzcJ0ffSb4IP5Nq9tfv3TIlu725aeBOKE11sbwa0dsyDIOqXs5ZgsxgrUQJRueyH0IL0eicJOw3Wv7uz0fLny8oMq_qw9I7QvqHnciHsNLFOuM0qCRq5W0kvtf5ntXIu639NG7bP9HxoO7QIKZ6DVL3wabepgrHFl2cafbw4riyX2ZTqLRDvNKoOWNRXBk-w4nD453kLPQXKhqhmy2_THBsJz-rW66obzkvZ3ffrCQdxf-1uVUIgUMkaNSssapbjI8-xE15sxE3YfwAC2GM-5BYF61HIDs2Z-inkhHSeJY5iS_a2ZL5WhEv9OjKfKdft5zNWj85x1ldheYhNWJ4kjYKjqN4JeA3d7mS8jNgpLke3Jnnl0IbslPYdDbyNMwZzn4EqoRWd3UqsWoPGjbehPeRckJHxssQJXhayPlRoPHBsMJPAI9IkCGjFaDL2LgLWxUW2yaNFK7Kp0BjflSE2Ky3d4f5vvTqPpm_n0RPw5nZNFWgPmekXx2PSiTp2MDCZbbfVaURm6DAhbwTozO8I3JoIHSVK3-mim4dOjeYRRmIdiODZvI4yYwsflKlurDBTkaoVtrDTGz6bvZCRtlW7MjMujMDmbw5592ZiDziVMGvCVYuW-SagxmFp54K8svGn0hN-qNZaaCJn2GF7ffb0uQxOl-0m00?></g></svg>