<svg xmlns="http://www.w3.org/2000/svg" viewBox="0 0 2468 636" width="2468" height="636">
<rect x="0" y="0" width="2468" height="636" fill="#FFFFFF"/>
<path d="M 2264.0 92.0 V 44.0 H 616.0" fill="none" stroke="#666666" stroke-width="2.6" stroke-dasharray="9 8" stroke-linecap="round" stroke-linejoin="round"/>
<circle cx="2264.0" cy="92.0" r="5.5" fill="#666666"/>
<line x1="616.0" y1="44.0" x2="616.0" y2="72.0" stroke="#666666" stroke-width="2.6" stroke-dasharray="9 8" stroke-linecap="round"/>
<polygon points="616.0,90.0 607.0,70.0 625.0,70.0" fill="#666666"/>
<line x1="1028.0" y1="44.0" x2="1028.0" y2="72.0" stroke="#666666" stroke-width="2.6" stroke-dasharray="9 8" stroke-linecap="round"/>
<polygon points="1028.0,90.0 1019.0,70.0 1037.0,70.0" fill="#666666"/>
<line x1="1852.0" y1="44.0" x2="1852.0" y2="72.0" stroke="#666666" stroke-width="2.6" stroke-dasharray="9 8" stroke-linecap="round"/>
<polygon points="1852.0,90.0 1843.0,70.0 1861.0,70.0" fill="#666666"/>
<rect x="1334.9" y="26.0" width="210.2" height="36" rx="6" fill="#FFFFFF"/>
<text x="1440.0" y="53.0" font-family="Helvetica, Arial, 'Liberation Sans', sans-serif" font-size="25" font-style="italic" fill="#333333" text-anchor="middle">Iterative Process</text>
<line x1="393.0" y1="143.0" x2="409.0" y2="143.0" stroke="#000000" stroke-width="4.5" stroke-linecap="round"/>
<polygon points="427.0,143.0 409.0,134.0 409.0,152.0" fill="#000000"/>
<line x1="805.0" y1="143.0" x2="821.0" y2="143.0" stroke="#000000" stroke-width="4.5" stroke-linecap="round"/>
<polygon points="839.0,143.0 821.0,134.0 821.0,152.0" fill="#000000"/>
<line x1="1217.0" y1="143.0" x2="1233.0" y2="143.0" stroke="#000000" stroke-width="4.5" stroke-linecap="round"/>
<polygon points="1251.0,143.0 1233.0,134.0 1233.0,152.0" fill="#000000"/>
<line x1="1629.0" y1="143.0" x2="1645.0" y2="143.0" stroke="#000000" stroke-width="4.5" stroke-linecap="round"/>
<polygon points="1663.0,143.0 1645.0,134.0 1645.0,152.0" fill="#000000"/>
<line x1="2041.0" y1="143.0" x2="2057.0" y2="143.0" stroke="#000000" stroke-width="4.5" stroke-linecap="round"/>
<polygon points="2075.0,143.0 2057.0,134.0 2057.0,152.0" fill="#000000"/>
<rect x="18" y="92" width="372" height="526" rx="13" fill="#FFFFFF" stroke="#000000" stroke-width="2.8"/>
<path d="M 18 194 V 105 a 13 13 0 0 1 13 -13 H 377 a 13 13 0 0 1 13 13 V 194 Z" fill="#E5E5E5"/>
<line x1="18" y1="194" x2="390" y2="194" stroke="#000000" stroke-width="2.8"/>
<text x="204.0" y="135.7" font-family="Helvetica, Arial, 'Liberation Sans', sans-serif" font-size="32" font-weight="bold" fill="#000000" text-anchor="middle">Problem Identification</text>
<text x="204.0" y="172.7" font-family="Helvetica, Arial, 'Liberation Sans', sans-serif" font-size="32" font-weight="bold" fill="#000000" text-anchor="middle">and Motivation</text>
<text x="204.0" y="237.2" font-family="Helvetica, Arial, 'Liberation Sans', sans-serif" font-size="33" fill="#000000" text-anchor="middle">Lack of established,</text>
<text x="204.0" y="277.2" font-family="Helvetica, Arial, 'Liberation Sans', sans-serif" font-size="33" fill="#000000" text-anchor="middle">solid and clear</text>
<text x="204.0" y="317.2" font-family="Helvetica, Arial, 'Liberation Sans', sans-serif" font-size="33" fill="#000000" text-anchor="middle">methodologies, that</text>
<text x="204.0" y="357.2" font-family="Helvetica, Arial, 'Liberation Sans', sans-serif" font-size="33" fill="#000000" text-anchor="middle">shape the proper use</text>
<text x="204.0" y="397.2" font-family="Helvetica, Arial, 'Liberation Sans', sans-serif" font-size="33" fill="#000000" text-anchor="middle">of AI and LLMs within</text>
<text x="204.0" y="437.2" font-family="Helvetica, Arial, 'Liberation Sans', sans-serif" font-size="33" fill="#000000" text-anchor="middle">the Software</text>
<text x="204.0" y="477.2" font-family="Helvetica, Arial, 'Liberation Sans', sans-serif" font-size="33" fill="#000000" text-anchor="middle">Development realm</text>
<text x="204.0" y="517.2" font-family="Helvetica, Arial, 'Liberation Sans', sans-serif" font-size="33" fill="#000000" text-anchor="middle">and across the industry</text>
<text x="204.0" y="557.2" font-family="Helvetica, Arial, 'Liberation Sans', sans-serif" font-size="33" fill="#000000" text-anchor="middle">and professional</text>
<text x="204.0" y="597.2" font-family="Helvetica, Arial, 'Liberation Sans', sans-serif" font-size="33" fill="#000000" text-anchor="middle">practice.</text>
<rect x="430" y="92" width="372" height="526" rx="13" fill="#FFFFFF" stroke="#000000" stroke-width="2.8"/>
<path d="M 430 194 V 105 a 13 13 0 0 1 13 -13 H 789 a 13 13 0 0 1 13 13 V 194 Z" fill="#E5E5E5"/>
<line x1="430" y1="194" x2="802" y2="194" stroke="#000000" stroke-width="2.8"/>
<text x="616.0" y="135.7" font-family="Helvetica, Arial, 'Liberation Sans', sans-serif" font-size="32" font-weight="bold" fill="#000000" text-anchor="middle">Definition of the Goal</text>
<text x="616.0" y="172.7" font-family="Helvetica, Arial, 'Liberation Sans', sans-serif" font-size="32" font-weight="bold" fill="#000000" text-anchor="middle">for a Solution</text>
<text x="616.0" y="257.2" font-family="Helvetica, Arial, 'Liberation Sans', sans-serif" font-size="33" fill="#000000" text-anchor="middle">Guide organizations</text>
<text x="616.0" y="297.2" font-family="Helvetica, Arial, 'Liberation Sans', sans-serif" font-size="33" fill="#000000" text-anchor="middle">and professionals to</text>
<text x="616.0" y="337.2" font-family="Helvetica, Arial, 'Liberation Sans', sans-serif" font-size="33" fill="#000000" text-anchor="middle">fully utilize and</text>
<text x="616.0" y="377.2" font-family="Helvetica, Arial, 'Liberation Sans', sans-serif" font-size="33" fill="#000000" text-anchor="middle">embrace the</text>
<text x="616.0" y="417.2" font-family="Helvetica, Arial, 'Liberation Sans', sans-serif" font-size="33" fill="#000000" text-anchor="middle">implementation and</text>
<text x="616.0" y="457.2" font-family="Helvetica, Arial, 'Liberation Sans', sans-serif" font-size="33" fill="#000000" text-anchor="middle">incorporation of proper</text>
<text x="616.0" y="497.2" font-family="Helvetica, Arial, 'Liberation Sans', sans-serif" font-size="33" fill="#000000" text-anchor="middle">AI and LLMs usage in a</text>
<text x="616.0" y="537.2" font-family="Helvetica, Arial, 'Liberation Sans', sans-serif" font-size="33" fill="#000000" text-anchor="middle">Software Development</text>
<text x="616.0" y="577.2" font-family="Helvetica, Arial, 'Liberation Sans', sans-serif" font-size="33" fill="#000000" text-anchor="middle">environment.</text>
<rect x="842" y="92" width="372" height="526" rx="13" fill="#FFFFFF" stroke="#000000" stroke-width="2.8"/>
<path d="M 842 194 V 105 a 13 13 0 0 1 13 -13 H 1201 a 13 13 0 0 1 13 13 V 194 Z" fill="#E5E5E5"/>
<line x1="842" y1="194" x2="1214" y2="194" stroke="#000000" stroke-width="2.8"/>
<text x="1028.0" y="135.7" font-family="Helvetica, Arial, 'Liberation Sans', sans-serif" font-size="32" font-weight="bold" fill="#000000" text-anchor="middle">Design and</text>
<text x="1028.0" y="172.7" font-family="Helvetica, Arial, 'Liberation Sans', sans-serif" font-size="32" font-weight="bold" fill="#000000" text-anchor="middle">Development</text>
<text x="1028.0" y="297.2" font-family="Helvetica, Arial, 'Liberation Sans', sans-serif" font-size="33" fill="#000000" text-anchor="middle">Design a framework</text>
<text x="1028.0" y="337.2" font-family="Helvetica, Arial, 'Liberation Sans', sans-serif" font-size="33" fill="#000000" text-anchor="middle">that defines a patterned</text>
<text x="1028.0" y="377.2" font-family="Helvetica, Arial, 'Liberation Sans', sans-serif" font-size="33" fill="#000000" text-anchor="middle">methodology to</text>
<text x="1028.0" y="417.2" font-family="Helvetica, Arial, 'Liberation Sans', sans-serif" font-size="33" fill="#000000" text-anchor="middle">manage, incorporate,</text>
<text x="1028.0" y="457.2" font-family="Helvetica, Arial, 'Liberation Sans', sans-serif" font-size="33" fill="#000000" text-anchor="middle">implement and allow</text>
<text x="1028.0" y="497.2" font-family="Helvetica, Arial, 'Liberation Sans', sans-serif" font-size="33" fill="#000000" text-anchor="middle">proper use of AI with</text>
<text x="1028.0" y="537.2" font-family="Helvetica, Arial, 'Liberation Sans', sans-serif" font-size="33" fill="#000000" text-anchor="middle">Human-AI collaboration</text>
<rect x="1254" y="92" width="372" height="526" rx="13" fill="#FFFFFF" stroke="#000000" stroke-width="2.8"/>
<path d="M 1254 194 V 105 a 13 13 0 0 1 13 -13 H 1613 a 13 13 0 0 1 13 13 V 194 Z" fill="#E5E5E5"/>
<line x1="1254" y1="194" x2="1626" y2="194" stroke="#000000" stroke-width="2.8"/>
<text x="1440.0" y="154.2" font-family="Helvetica, Arial, 'Liberation Sans', sans-serif" font-size="32" font-weight="bold" fill="#000000" text-anchor="middle">Demonstration</text>
<text x="1440.0" y="377.2" font-family="Helvetica, Arial, 'Liberation Sans', sans-serif" font-size="33" fill="#000000" text-anchor="middle">Application of the</text>
<text x="1440.0" y="417.2" font-family="Helvetica, Arial, 'Liberation Sans', sans-serif" font-size="33" fill="#000000" text-anchor="middle">designed framework in</text>
<text x="1440.0" y="457.2" font-family="Helvetica, Arial, 'Liberation Sans', sans-serif" font-size="33" fill="#000000" text-anchor="middle">a real-world scenario</text>
<rect x="1666" y="92" width="372" height="526" rx="13" fill="#FFFFFF" stroke="#000000" stroke-width="2.8"/>
<path d="M 1666 194 V 105 a 13 13 0 0 1 13 -13 H 2025 a 13 13 0 0 1 13 13 V 194 Z" fill="#E5E5E5"/>
<line x1="1666" y1="194" x2="2038" y2="194" stroke="#000000" stroke-width="2.8"/>
<text x="1852.0" y="154.2" font-family="Helvetica, Arial, 'Liberation Sans', sans-serif" font-size="32" font-weight="bold" fill="#000000" text-anchor="middle">Evaluation</text>
<text x="1852.0" y="357.2" font-family="Helvetica, Arial, 'Liberation Sans', sans-serif" font-size="33" fill="#000000" text-anchor="middle">Demonstration</text>
<text x="1852.0" y="437.2" font-family="Helvetica, Arial, 'Liberation Sans', sans-serif" font-size="33" fill="#000000" text-anchor="middle">Interviews with Experts</text>
<text x="1852.0" y="477.2" font-family="Helvetica, Arial, 'Liberation Sans', sans-serif" font-size="33" fill="#000000" text-anchor="middle">and Practicioners</text>
<rect x="2078" y="92" width="372" height="526" rx="13" fill="#FFFFFF" stroke="#000000" stroke-width="2.8"/>
<path d="M 2078 194 V 105 a 13 13 0 0 1 13 -13 H 2437 a 13 13 0 0 1 13 13 V 194 Z" fill="#E5E5E5"/>
<line x1="2078" y1="194" x2="2450" y2="194" stroke="#000000" stroke-width="2.8"/>
<text x="2264.0" y="154.2" font-family="Helvetica, Arial, 'Liberation Sans', sans-serif" font-size="32" font-weight="bold" fill="#000000" text-anchor="middle">Communication</text>
<text x="2264.0" y="377.2" font-family="Helvetica, Arial, 'Liberation Sans', sans-serif" font-size="33" fill="#000000" text-anchor="middle">Dissertation</text>
<text x="2264.0" y="457.2" font-family="Helvetica, Arial, 'Liberation Sans', sans-serif" font-size="33" fill="#000000" text-anchor="middle">Papers</text>
</svg>