<svg xmlns="http://www.w3.org/2000/svg" xmlns:xlink="http://www.w3.org/1999/xlink" contentStyleType="text/css" data-diagram-type="DESCRIPTION" height="851px" preserveAspectRatio="none" style="width:1709px;height:851px;background:#FFFFFF;" version="1.1" viewBox="0 0 1709 851" width="1709px" zoomAndPan="magnify"><?plantuml 1.2026.6?><defs/><g><g class="title" data-source-line="2"><text fill="#000000" font-family="sans-serif" font-size="14" font-weight="700" lengthAdjust="spacing" textLength="332.582" x="684.709" y="22.9951">Apex &#8212; System Architecture (Component)</text></g><!--cluster FEP--><g class="cluster" data-qualified-name="FEP" data-source-line="22" id="ent0001"><path d="M16.5,41.2969 L187.1406,41.2969 A3.75,3.75 0 0 1 189.6406,43.7969 L196.6406,63.5938 L385.5,63.5938 A2.5,2.5 0 0 1 388,66.0938 L388,371.7969 A2.5,2.5 0 0 1 385.5,374.2969 L16.5,374.2969 A2.5,2.5 0 0 1 14,371.7969 L14,43.7969 A2.5,2.5 0 0 1 16.5,41.2969" fill="#FFFFFF" style="stroke:#888888;stroke-width:1.5;"/><line style="stroke:#888888;stroke-width:1.5;" x1="14" x2="196.6406" y1="63.5938" y2="63.5938"/><text fill="#000000" font-family="sans-serif" font-size="14" font-weight="700" lengthAdjust="spacing" textLength="169.6406" x="18" y="56.292">Frontend (Next.js 15)</text></g><!--cluster BEP--><g class="cluster" data-qualified-name="BEP" data-source-line="30" id="ent0007"><path d="M398.5,176.2969 L659.8057,176.2969 A3.75,3.75 0 0 1 662.3057,178.7969 L669.3057,198.5938 L901.5,198.5938 A2.5,2.5 0 0 1 904,201.0938 L904,624.7969 A2.5,2.5 0 0 1 901.5,627.2969 L398.5,627.2969 A2.5,2.5 0 0 1 396,624.7969 L396,178.7969 A2.5,2.5 0 0 1 398.5,176.2969" fill="#FFFFFF" style="stroke:#888888;stroke-width:1.5;"/><line style="stroke:#888888;stroke-width:1.5;" x1="396" x2="669.3057" y1="198.5938" y2="198.5938"/><text fill="#000000" font-family="sans-serif" font-size="14" font-weight="700" lengthAdjust="spacing" textLength="260.3057" x="400" y="191.292">Backend (FastAPI &#183; single writer)</text></g><!--cluster SSP--><g class="cluster" data-qualified-name="SSP" data-source-line="39" id="ent0014"><path d="M359.5,646.2969 L446.0654,646.2969 A3.75,3.75 0 0 1 448.5654,648.7969 L455.5654,668.5938 L596.5,668.5938 A2.5,2.5 0 0 1 599,671.0938 L599,841.2969 A2.5,2.5 0 0 1 596.5,843.7969 L359.5,843.7969 A2.5,2.5 0 0 1 357,841.2969 L357,648.7969 A2.5,2.5 0 0 1 359.5,646.2969" fill="#FFFFFF" style="stroke:#888888;stroke-width:1.5;"/><line style="stroke:#888888;stroke-width:1.5;" x1="357" x2="455.5654" y1="668.5938" y2="668.5938"/><text fill="#000000" font-family="sans-serif" font-size="14" font-weight="700" lengthAdjust="spacing" textLength="85.5654" x="361" y="661.292">Spec Store</text></g><!--cluster AIP--><g class="cluster" data-qualified-name="AIP" data-source-line="44" id="ent0017"><path d="M914.5,537.7969 L1011.8799,537.7969 A3.75,3.75 0 0 1 1014.3799,540.2969 L1021.3799,560.0938 L1358.5,560.0938 A2.5,2.5 0 0 1 1361,562.5938 L1361,616.2969 A2.5,2.5 0 0 1 1358.5,618.7969 L914.5,618.7969 A2.5,2.5 0 0 1 912,616.2969 L912,540.2969 A2.5,2.5 0 0 1 914.5,537.7969" fill="#FFFFFF" style="stroke:#888888;stroke-width:1.5;"/><line style="stroke:#888888;stroke-width:1.5;" x1="912" x2="1021.3799" y1="560.0938" y2="560.0938"/><text fill="#000000" font-family="sans-serif" font-size="14" font-weight="700" lengthAdjust="spacing" textLength="96.3799" x="916" y="552.792">AI Providers</text></g><!--cluster PMP--><g class="cluster" data-qualified-name="PMP" data-source-line="50" id="ent0021"><path d="M1371.5,529.2969 L1443.4844,529.2969 A3.75,3.75 0 0 1 1445.9844,531.7969 L1452.9844,551.5938 L1698.5,551.5938 A2.5,2.5 0 0 1 1701,554.0938 L1701,741.2969 A2.5,2.5 0 0 1 1698.5,743.7969 L1371.5,743.7969 A2.5,2.5 0 0 1 1369,741.2969 L1369,531.7969 A2.5,2.5 0 0 1 1371.5,529.2969" fill="#FFFFFF" style="stroke:#888888;stroke-width:1.5;"/><line style="stroke:#888888;stroke-width:1.5;" x1="1369" x2="1452.9844" y1="551.5938" y2="551.5938"/><text fill="#000000" font-family="sans-serif" font-size="14" font-weight="700" lengthAdjust="spacing" textLength="70.9844" x="1373" y="544.292">PM Tools</text></g><!--cluster VCSP--><g class="cluster" data-qualified-name="VCSP" data-source-line="56" id="ent0025"><path d="M914.5,184.7969 L946.6924,184.7969 A3.75,3.75 0 0 1 949.1924,187.2969 L956.1924,207.0938 L1081.5,207.0938 A2.5,2.5 0 0 1 1084,209.5938 L1084,263.2969 A2.5,2.5 0 0 1 1081.5,265.7969 L914.5,265.7969 A2.5,2.5 0 0 1 912,263.2969 L912,187.2969 A2.5,2.5 0 0 1 914.5,184.7969" fill="#FFFFFF" style="stroke:#888888;stroke-width:1.5;"/><line style="stroke:#888888;stroke-width:1.5;" x1="912" x2="956.1924" y1="207.0938" y2="207.0938"/><text fill="#000000" font-family="sans-serif" font-size="14" font-weight="700" lengthAdjust="spacing" textLength="31.1924" x="916" y="199.792">VCS</text></g><!--entity UI--><g class="entity" data-qualified-name="FEP.UI" data-source-line="23" id="ent0002"><rect fill="#F5F5F5" height="62.5938" rx="2.5" ry="2.5" style="stroke:#666666;stroke-width:0.5;" width="175.249" x="22.5" y="68.2969"/><rect fill="#F5F5F5" height="10" style="stroke:#666666;stroke-width:0.5;" width="15" x="177.749" y="73.2969"/><rect fill="#F5F5F5" height="2" style="stroke:#666666;stroke-width:0.5;" width="4" x="175.749" y="75.2969"/><rect fill="#F5F5F5" height="2" style="stroke:#666666;stroke-width:0.5;" width="4" x="175.749" y="79.2969"/><text fill="#000000" font-family="sans-serif" font-size="14" lengthAdjust="spacing" textLength="132.9043" x="37.5" y="101.292">Web UI / Phase 1-6</text><text fill="#000000" font-family="sans-serif" font-size="14" lengthAdjust="spacing" textLength="135.249" x="37.5" y="117.5889">workflow + sidebar</text></g><!--entity RQ--><g class="entity" data-qualified-name="FEP.RQ" data-source-line="24" id="ent0003"><rect fill="#F5F5F5" height="62.5938" rx="2.5" ry="2.5" style="stroke:#666666;stroke-width:0.5;" width="140.4609" x="40" y="203.2969"/><rect fill="#F5F5F5" height="10" style="stroke:#666666;stroke-width:0.5;" width="15" x="160.4609" y="208.2969"/><rect fill="#F5F5F5" height="2" style="stroke:#666666;stroke-width:0.5;" width="4" x="158.4609" y="210.2969"/><rect fill="#F5F5F5" height="2" style="stroke:#666666;stroke-width:0.5;" width="4" x="158.4609" y="214.2969"/><text fill="#000000" font-family="sans-serif" font-size="14" lengthAdjust="spacing" textLength="100.4609" x="55" y="236.292">React Query 5</text><text fill="#000000" font-family="sans-serif" font-size="14" lengthAdjust="spacing" textLength="95.1563" x="55" y="252.5889">(server state)</text></g><!--entity ZS--><g class="entity" data-qualified-name="FEP.ZS" data-source-line="25" id="ent0004"><rect fill="#F5F5F5" height="62.5938" rx="2.5" ry="2.5" style="stroke:#666666;stroke-width:0.5;" width="157.0313" x="198.5" y="203.2969"/><rect fill="#F5F5F5" height="10" style="stroke:#666666;stroke-width:0.5;" width="15" x="335.5313" y="208.2969"/><rect fill="#F5F5F5" height="2" style="stroke:#666666;stroke-width:0.5;" width="4" x="333.5313" y="210.2969"/><rect fill="#F5F5F5" height="2" style="stroke:#666666;stroke-width:0.5;" width="4" x="333.5313" y="214.2969"/><text fill="#000000" font-family="sans-serif" font-size="14" lengthAdjust="spacing" textLength="105.0479" x="213.5" y="236.292">Zustand stores</text><text fill="#000000" font-family="sans-serif" font-size="14" lengthAdjust="spacing" textLength="117.0313" x="213.5" y="252.5889">(session &#183; drafts)</text></g><!--entity PMA--><g class="entity" data-qualified-name="FEP.PMA" data-source-line="26" id="ent0005"><rect fill="#F5F5F5" height="62.5938" rx="2.5" ry="2.5" style="stroke:#666666;stroke-width:0.5;" width="125.3809" x="202.5" y="303.2969"/><rect fill="#F5F5F5" height="10" style="stroke:#666666;stroke-width:0.5;" width="15" x="307.8809" y="308.2969"/><rect fill="#F5F5F5" height="2" style="stroke:#666666;stroke-width:0.5;" width="4" x="305.8809" y="310.2969"/><rect fill="#F5F5F5" height="2" style="stroke:#666666;stroke-width:0.5;" width="4" x="305.8809" y="314.2969"/><text fill="#000000" font-family="sans-serif" font-size="14" lengthAdjust="spacing" textLength="80.7598" x="217.5" y="336.292">PM Adapter</text><text fill="#000000" font-family="sans-serif" font-size="14" lengthAdjust="spacing" textLength="85.3809" x="217.5" y="352.5889">(Taiga / Jira)</text></g><!--entity GHB--><g class="entity" data-qualified-name="FEP.GHB" data-source-line="27" id="ent0006"><rect fill="#F5F5F5" height="46.2969" rx="2.5" ry="2.5" style="stroke:#666666;stroke-width:0.5;" width="163.5049" x="216" y="76.7969"/><rect fill="#F5F5F5" height="10" style="stroke:#666666;stroke-width:0.5;" width="15" x="359.5049" y="81.7969"/><rect fill="#F5F5F5" height="2" style="stroke:#666666;stroke-width:0.5;" width="4" x="357.5049" y="83.7969"/><rect fill="#F5F5F5" height="2" style="stroke:#666666;stroke-width:0.5;" width="4" x="357.5049" y="87.7969"/><text fill="#000000" font-family="sans-serif" font-size="14" lengthAdjust="spacing" textLength="123.5049" x="231" y="109.792">github-browser.ts</text></g><!--entity API--><g class="entity" data-qualified-name="BEP.API" data-source-line="31" id="ent0008"><rect fill="#F5F5F5" height="62.5938" rx="2.5" ry="2.5" style="stroke:#666666;stroke-width:0.5;" width="163.2314" x="411.5" y="203.2969"/><rect fill="#F5F5F5" height="10" style="stroke:#666666;stroke-width:0.5;" width="15" x="554.7314" y="208.2969"/><rect fill="#F5F5F5" height="2" style="stroke:#666666;stroke-width:0.5;" width="4" x="552.7314" y="210.2969"/><rect fill="#F5F5F5" height="2" style="stroke:#666666;stroke-width:0.5;" width="4" x="552.7314" y="214.2969"/><text fill="#000000" font-family="sans-serif" font-size="14" lengthAdjust="spacing" textLength="101.9238" x="426.5" y="236.292">FastAPI Server</text><text fill="#000000" font-family="sans-serif" font-size="14" lengthAdjust="spacing" textLength="123.2314" x="426.5" y="252.5889">CORS &#183; body-limit</text></g><!--entity RT--><g class="entity" data-qualified-name="BEP.RT" data-source-line="32" id="ent0009"><rect fill="#F5F5F5" height="62.5938" rx="2.5" ry="2.5" style="stroke:#666666;stroke-width:0.5;" width="193.4121" x="476.5" y="303.2969"/><rect fill="#F5F5F5" height="10" style="stroke:#666666;stroke-width:0.5;" width="15" x="649.9121" y="308.2969"/><rect fill="#F5F5F5" height="2" style="stroke:#666666;stroke-width:0.5;" width="4" x="647.9121" y="310.2969"/><rect fill="#F5F5F5" height="2" style="stroke:#666666;stroke-width:0.5;" width="4" x="647.9121" y="314.2969"/><text fill="#000000" font-family="sans-serif" font-size="14" lengthAdjust="spacing" textLength="96.5986" x="491.5" y="336.292">Phase routers</text><text fill="#000000" font-family="sans-serif" font-size="14" lengthAdjust="spacing" textLength="153.4121" x="491.5" y="352.5889">phase1-6 &#183; workspace</text></g><!--entity CS--><g class="entity" data-qualified-name="BEP.CS" data-source-line="33" id="ent0010"><rect fill="#F5F5F5" height="62.5938" rx="2.5" ry="2.5" style="stroke:#666666;stroke-width:0.5;" width="146.832" x="404.5" y="421.2969"/><rect fill="#F5F5F5" height="10" style="stroke:#666666;stroke-width:0.5;" width="15" x="531.332" y="426.2969"/><rect fill="#F5F5F5" height="2" style="stroke:#666666;stroke-width:0.5;" width="4" x="529.332" y="428.2969"/><rect fill="#F5F5F5" height="2" style="stroke:#666666;stroke-width:0.5;" width="4" x="529.332" y="432.2969"/><text fill="#000000" font-family="sans-serif" font-size="14" lengthAdjust="spacing" textLength="106.832" x="419.5" y="454.292">ContextService</text><text fill="#000000" font-family="sans-serif" font-size="14" lengthAdjust="spacing" textLength="101.6094" x="419.5" y="470.5889">isolation seam</text></g><!--entity STG--><g class="entity" data-qualified-name="BEP.STG" data-source-line="34" id="ent0011"><rect fill="#F5F5F5" height="62.5938" rx="2.5" ry="2.5" style="stroke:#666666;stroke-width:0.5;" width="126.1602" x="415" y="556.2969"/><rect fill="#F5F5F5" height="10" style="stroke:#666666;stroke-width:0.5;" width="15" x="521.1602" y="561.2969"/><rect fill="#F5F5F5" height="2" style="stroke:#666666;stroke-width:0.5;" width="4" x="519.1602" y="563.2969"/><rect fill="#F5F5F5" height="2" style="stroke:#666666;stroke-width:0.5;" width="4" x="519.1602" y="567.2969"/><text fill="#000000" font-family="sans-serif" font-size="14" lengthAdjust="spacing" textLength="74.8057" x="430" y="589.292">storage.py</text><text fill="#000000" font-family="sans-serif" font-size="14" lengthAdjust="spacing" textLength="86.1602" x="430" y="605.5889">StoragePath</text></g><!--entity AIE--><g class="entity" data-qualified-name="BEP.AIE" data-source-line="35" id="ent0012"><rect fill="#F5F5F5" height="62.5938" rx="2.5" ry="2.5" style="stroke:#666666;stroke-width:0.5;" width="153.4219" x="569.5" y="421.2969"/><rect fill="#F5F5F5" height="10" style="stroke:#666666;stroke-width:0.5;" width="15" x="702.9219" y="426.2969"/><rect fill="#F5F5F5" height="2" style="stroke:#666666;stroke-width:0.5;" width="4" x="700.9219" y="428.2969"/><rect fill="#F5F5F5" height="2" style="stroke:#666666;stroke-width:0.5;" width="4" x="700.9219" y="432.2969"/><text fill="#000000" font-family="sans-serif" font-size="14" lengthAdjust="spacing" textLength="67.2178" x="584.5" y="454.292">ai_engine</text><text fill="#000000" font-family="sans-serif" font-size="14" lengthAdjust="spacing" textLength="113.4219" x="584.5" y="470.5889">provider routing</text></g><!--entity PROX--><g class="entity" data-qualified-name="BEP.PROX" data-source-line="36" id="ent0013"><rect fill="#F5F5F5" height="62.5938" rx="2.5" ry="2.5" style="stroke:#666666;stroke-width:0.5;" width="155.3838" x="740.5" y="421.2969"/><rect fill="#F5F5F5" height="10" style="stroke:#666666;stroke-width:0.5;" width="15" x="875.8838" y="426.2969"/><rect fill="#F5F5F5" height="2" style="stroke:#666666;stroke-width:0.5;" width="4" x="873.8838" y="428.2969"/><rect fill="#F5F5F5" height="2" style="stroke:#666666;stroke-width:0.5;" width="4" x="873.8838" y="432.2969"/><text fill="#000000" font-family="sans-serif" font-size="14" lengthAdjust="spacing" textLength="115.3838" x="755.5" y="454.292">taiga / jira proxy</text><text fill="#000000" font-family="sans-serif" font-size="14" lengthAdjust="spacing" textLength="102.3613" x="755.5" y="470.5889">SSRF &#183; _egress</text></g><!--entity STORE--><g class="entity" data-qualified-name="SSP.STORE" data-source-line="40" id="ent0015"><path d="M365.5,683.2969 C365.5,673.2969 477.9946,673.2969 477.9946,673.2969 C477.9946,673.2969 590.4893,673.2969 590.4893,683.2969 L590.4893,724.8906 C590.4893,734.8906 477.9946,734.8906 477.9946,734.8906 C477.9946,734.8906 365.5,734.8906 365.5,724.8906 L365.5,683.2969" fill="#E8F5E9" style="stroke:#66A36B;stroke-width:0.5;"/><path d="M365.5,683.2969 C365.5,693.2969 477.9946,693.2969 477.9946,693.2969 C477.9946,693.2969 590.4893,693.2969 590.4893,683.2969" fill="none" style="stroke:#66A36B;stroke-width:0.5;"/><text fill="#000000" font-family="sans-serif" font-size="14" lengthAdjust="spacing" textLength="85.5039" x="375.5" y="710.292">contextspec</text><text fill="#000000" font-family="sans-serif" font-size="14" lengthAdjust="spacing" textLength="204.9893" x="375.5" y="726.5889">Markdown + story-index.json</text></g><!--entity FSS--><g class="entity" data-qualified-name="SSP.FSS" data-source-line="41" id="ent0016"><rect fill="#F5F5F5" height="62.5938" rx="2.5" ry="2.5" style="stroke:#666666;stroke-width:0.5;" width="154.2217" x="401" y="772.7969"/><rect fill="#F5F5F5" height="10" style="stroke:#666666;stroke-width:0.5;" width="15" x="535.2217" y="777.7969"/><rect fill="#F5F5F5" height="2" style="stroke:#666666;stroke-width:0.5;" width="4" x="533.2217" y="779.7969"/><rect fill="#F5F5F5" height="2" style="stroke:#666666;stroke-width:0.5;" width="4" x="533.2217" y="783.7969"/><text fill="#000000" font-family="sans-serif" font-size="14" lengthAdjust="spacing" textLength="74.416" x="416" y="805.792">local disk /</text><text fill="#000000" font-family="sans-serif" font-size="14" lengthAdjust="spacing" textLength="114.2217" x="416" y="822.0889">Azure File Share</text></g><!--entity CL--><g class="entity" data-qualified-name="AIP.CL" data-source-line="45" id="ent0018"><rect fill="#F5F5F5" height="46.2969" rx="2.5" ry="2.5" style="stroke:#666666;stroke-width:0.5;" width="160.6748" x="920.5" y="564.7969"/><rect fill="#F5F5F5" height="10" style="stroke:#666666;stroke-width:0.5;" width="15" x="1061.1748" y="569.7969"/><rect fill="#F5F5F5" height="2" style="stroke:#666666;stroke-width:0.5;" width="4" x="1059.1748" y="571.7969"/><rect fill="#F5F5F5" height="2" style="stroke:#666666;stroke-width:0.5;" width="4" x="1059.1748" y="575.7969"/><text fill="#000000" font-family="sans-serif" font-size="14" lengthAdjust="spacing" textLength="120.6748" x="935.5" y="597.792">Anthropic Claude</text></g><!--entity OAI--><g class="entity" data-qualified-name="AIP.OAI" data-source-line="46" id="ent0019"><rect fill="#F5F5F5" height="46.2969" rx="2.5" ry="2.5" style="stroke:#666666;stroke-width:0.5;" width="91.0986" x="1099.5" y="564.7969"/><rect fill="#F5F5F5" height="10" style="stroke:#666666;stroke-width:0.5;" width="15" x="1170.5986" y="569.7969"/><rect fill="#F5F5F5" height="2" style="stroke:#666666;stroke-width:0.5;" width="4" x="1168.5986" y="571.7969"/><rect fill="#F5F5F5" height="2" style="stroke:#666666;stroke-width:0.5;" width="4" x="1168.5986" y="575.7969"/><text fill="#000000" font-family="sans-serif" font-size="14" lengthAdjust="spacing" textLength="51.0986" x="1114.5" y="597.792">OpenAI</text></g><!--entity GEM--><g class="entity" data-qualified-name="AIP.GEM" data-source-line="47" id="ent0020"><rect fill="#F5F5F5" height="46.2969" rx="2.5" ry="2.5" style="stroke:#666666;stroke-width:0.5;" width="143.5713" x="1209" y="564.7969"/><rect fill="#F5F5F5" height="10" style="stroke:#666666;stroke-width:0.5;" width="15" x="1332.5713" y="569.7969"/><rect fill="#F5F5F5" height="2" style="stroke:#666666;stroke-width:0.5;" width="4" x="1330.5713" y="571.7969"/><rect fill="#F5F5F5" height="2" style="stroke:#666666;stroke-width:0.5;" width="4" x="1330.5713" y="575.7969"/><text fill="#000000" font-family="sans-serif" font-size="14" lengthAdjust="spacing" textLength="103.5713" x="1224" y="597.792">Google Gemini</text></g><!--entity RLY--><g class="entity" data-qualified-name="PMP.RLY" data-source-line="51" id="ent0022"><rect fill="#F5F5F5" height="62.5938" rx="2.5" ry="2.5" style="stroke:#666666;stroke-width:0.5;" width="151.3301" x="1377.5" y="556.2969"/><rect fill="#F5F5F5" height="10" style="stroke:#666666;stroke-width:0.5;" width="15" x="1508.8301" y="561.2969"/><rect fill="#F5F5F5" height="2" style="stroke:#666666;stroke-width:0.5;" width="4" x="1506.8301" y="563.2969"/><rect fill="#F5F5F5" height="2" style="stroke:#666666;stroke-width:0.5;" width="4" x="1506.8301" y="567.2969"/><text fill="#000000" font-family="sans-serif" font-size="14" lengthAdjust="spacing" textLength="111.3301" x="1392.5" y="589.292">Cloudflare relay</text><text fill="#000000" font-family="sans-serif" font-size="14" lengthAdjust="spacing" textLength="88.5527" x="1392.5" y="605.5889">non-Azure IP</text></g><!--entity TG--><g class="entity" data-qualified-name="PMP.TG" data-source-line="52" id="ent0023"><rect fill="#F5F5F5" height="62.5938" rx="2.5" ry="2.5" style="stroke:#666666;stroke-width:0.5;" width="181.251" x="1377.5" y="672.7969"/><rect fill="#F5F5F5" height="10" style="stroke:#666666;stroke-width:0.5;" width="15" x="1538.751" y="677.7969"/><rect fill="#F5F5F5" height="2" style="stroke:#666666;stroke-width:0.5;" width="4" x="1536.751" y="679.7969"/><rect fill="#F5F5F5" height="2" style="stroke:#666666;stroke-width:0.5;" width="4" x="1536.751" y="683.7969"/><text fill="#000000" font-family="sans-serif" font-size="14" lengthAdjust="spacing" textLength="38.4863" x="1392.5" y="705.792">Taiga</text><text fill="#000000" font-family="sans-serif" font-size="14" lengthAdjust="spacing" textLength="141.251" x="1392.5" y="722.0889">api.taiga.io / private</text></g><!--entity JR--><g class="entity" data-qualified-name="PMP.JR" data-source-line="53" id="ent0024"><rect fill="#F5F5F5" height="62.5938" rx="2.5" ry="2.5" style="stroke:#666666;stroke-width:0.5;" width="146.3428" x="1547" y="556.2969"/><rect fill="#F5F5F5" height="10" style="stroke:#666666;stroke-width:0.5;" width="15" x="1673.3428" y="561.2969"/><rect fill="#F5F5F5" height="2" style="stroke:#666666;stroke-width:0.5;" width="4" x="1671.3428" y="563.2969"/><rect fill="#F5F5F5" height="2" style="stroke:#666666;stroke-width:0.5;" width="4" x="1671.3428" y="567.2969"/><text fill="#000000" font-family="sans-serif" font-size="14" lengthAdjust="spacing" textLength="66.7939" x="1562" y="589.292">Jira Cloud</text><ellipse cx="1567.5" cy="601.3906" fill="#000000" rx="2.5" ry="2.5"/><text fill="#000000" font-family="sans-serif" font-size="14" lengthAdjust="spacing" textLength="94.3428" x="1574" y="605.5889">.atlassian.net</text></g><!--entity GH--><g class="entity" data-qualified-name="VCSP.GH" data-source-line="57" id="ent0026"><rect fill="#F5F5F5" height="46.2969" rx="2.5" ry="2.5" style="stroke:#666666;stroke-width:0.5;" width="155.5752" x="920" y="211.7969"/><rect fill="#F5F5F5" height="10" style="stroke:#666666;stroke-width:0.5;" width="15" x="1055.5752" y="216.7969"/><rect fill="#F5F5F5" height="2" style="stroke:#666666;stroke-width:0.5;" width="4" x="1053.5752" y="218.7969"/><rect fill="#F5F5F5" height="2" style="stroke:#666666;stroke-width:0.5;" width="4" x="1053.5752" y="222.7969"/><text fill="#000000" font-family="sans-serif" font-size="14" lengthAdjust="spacing" textLength="115.5752" x="935" y="244.792">GitHub REST API</text></g><g class="link" data-entity-1="ent0002" data-entity-2="ent0003" data-link-type="dependency" id="lnk27"><polygon fill="#333333" points="110,202.9654,114,193.9654,110,197.9654,106,193.9654,110,202.9654" style="stroke:#333333;stroke-width:1;stroke-linejoin:miter;stroke-miterlimit:10;"/><path d="M110,131.3098 C110,152.7834 110,176.4213 110,197.9654" fill="none" style="stroke:#333333;stroke-width:1;"/></g><g class="link" data-entity-1="ent0002" data-entity-2="ent0004" data-link-type="dependency" id="lnk28"><polygon fill="#333333" points="238.5763,203.196,234.0281,194.4602,234.6651,200.0811,229.0442,200.7181,238.5763,203.196" style="stroke:#333333;stroke-width:1;stroke-linejoin:miter;stroke-miterlimit:10;"/><path d="M148.3132,131.3098 C175.3727,152.8601 207.581,178.5111 234.6651,200.0811" fill="none" style="stroke:#333333;stroke-width:1;"/></g><g class="link" data-entity-1="ent0003" data-entity-2="ent0005" data-link-type="dependency" id="lnk29"><polygon fill="#333333" points="216.5548,303.167,211.0854,294.9765,212.3287,300.495,206.8101,301.7383,216.5548,303.167" style="stroke:#333333;stroke-width:1;stroke-linejoin:miter;stroke-miterlimit:10;"/><path d="M158.6177,266.5358 C177.0844,278.2115 193.878,288.8294 212.3287,300.495" fill="none" style="stroke:#333333;stroke-width:1;"/></g><g class="link" data-entity-1="ent0002" data-entity-2="ent0008" data-link-type="dependency" id="lnk30"><polygon fill="#333333" points="445.5634,203.1676,439.8175,195.1686,441.2484,200.6415,435.7756,202.0725,445.5634,203.1676" style="stroke:#333333;stroke-width:1;stroke-linejoin:miter;stroke-miterlimit:10;"/><path d="M197.6916,128.6551 C200.8288,129.5609 203.9389,130.4443 207,131.2969 C212.0948,132.7158 387.0848,174.3446 392,176.2969 C410.1896,183.5215 424.7806,191.0004 441.2484,200.6415" fill="none" style="stroke:#333333;stroke-width:1;"/><text fill="#000000" font-family="sans-serif" font-size="13" lengthAdjust="spacing" textLength="72.6616" x="362" y="163.3638">REST /api/*</text></g><g class="link" data-entity-1="ent0005" data-entity-2="ent0013" data-link-type="dependency" id="lnk31"><polygon fill="#333333" points="740.4424,423.7462,732.8281,417.4994,735.622,422.4182,730.7032,425.212,740.4424,423.7462" style="stroke:#333333;stroke-width:1;stroke-linejoin:miter;stroke-miterlimit:10;"/><path d="M327.7928,356.9588 C348.1045,363.23 370.8464,369.6541 392,374.2969 C429.1429,382.449 694.0403,412.351 731,421.2969 C734.1113,422.0499 732.447,421.5434 735.622,422.4182" fill="none" style="stroke:#333333;stroke-width:1;"/><text fill="#000000" font-family="sans-serif" font-size="13" lengthAdjust="spacing" textLength="60.3853" x="609" y="398.3638">/api/pm/*</text></g><g class="link" data-entity-1="ent0006" data-entity-2="ent0026" data-link-type="dependency" id="lnk32"><polygon fill="#333333" points="970.535,211.6588,965.6499,203.1069,966.5055,208.6987,960.9137,209.5542,970.535,211.6588" style="stroke:#333333;stroke-width:1;stroke-linejoin:miter;stroke-miterlimit:10;"/><path d="M380.2771,106.4537 C523.5717,117.0548 812.7523,141.9777 908,176.2969 C930.677,184.4678 949.5017,196.2077 966.5055,208.6987" fill="none" style="stroke:#333333;stroke-width:1;"/><text fill="#000000" font-family="sans-serif" font-size="13" lengthAdjust="spacing" textLength="94.4404" x="884" y="163.3638">browser-direct</text></g><g class="link" data-entity-1="ent0008" data-entity-2="ent0009" data-link-type="dependency" id="lnk33"><polygon fill="#333333" points="547.996,303.167,545.4033,293.6656,544.8342,299.2937,539.206,298.7246,547.996,303.167" style="stroke:#333333;stroke-width:1;stroke-linejoin:miter;stroke-miterlimit:10;"/><path d="M518.093,266.5358 C527.6242,278.2115 535.3112,287.6281 544.8342,299.2937" fill="none" style="stroke:#333333;stroke-width:1;"/></g><g class="link" data-entity-1="ent0009" data-entity-2="ent0010" data-link-type="dependency" id="lnk34"><polygon fill="#333333" points="502.997,421.2742,511.7941,416.8457,506.165,417.4059,505.6048,411.7769,502.997,421.2742" style="stroke:#333333;stroke-width:1;stroke-linejoin:miter;stroke-miterlimit:10;"/><path d="M547.7912,366.5782 C533.9389,383.4925 519.9837,400.5326 506.165,417.4059" fill="none" style="stroke:#333333;stroke-width:1;"/></g><g class="link" data-entity-1="ent0009" data-entity-2="ent0012" data-link-type="dependency" id="lnk35"><polygon fill="#333333" points="626.7918,421.2742,625.3836,411.5265,624.1287,417.0424,618.6128,415.7875,626.7918,421.2742" style="stroke:#333333;stroke-width:1;stroke-linejoin:miter;stroke-miterlimit:10;"/><path d="M592.371,366.5782 C603.0154,383.4925 613.5101,400.1691 624.1287,417.0424" fill="none" style="stroke:#333333;stroke-width:1;"/></g><g class="link" data-entity-1="ent0009" data-entity-2="ent0013" data-link-type="dependency" id="lnk36"><polygon fill="#333333" points="753.3713,421.1972,746.9487,413.7306,748.8522,419.0575,743.5253,420.9611,753.3713,421.1972" style="stroke:#333333;stroke-width:1;stroke-linejoin:miter;stroke-miterlimit:10;"/><path d="M637.6913,366.4262 C673.4174,383.3415 713.1361,402.147 748.8522,419.0575" fill="none" style="stroke:#333333;stroke-width:1;"/></g><g class="link" data-entity-1="ent0010" data-entity-2="ent0011" data-link-type="dependency" id="lnk37"><polygon fill="#333333" points="478,555.9654,482,546.9654,478,550.9654,474,546.9654,478,555.9654" style="stroke:#333333;stroke-width:1;stroke-linejoin:miter;stroke-miterlimit:10;"/><path d="M478,484.3098 C478,505.7834 478,529.4213 478,550.9654" fill="none" style="stroke:#333333;stroke-width:1;"/></g><g class="link" data-entity-1="ent0011" data-entity-2="ent0015" data-link-type="dependency" id="lnk38"><polygon fill="#333333" points="478,672.9253,482,663.9253,478,667.9253,474,663.9253,478,672.9253" style="stroke:#333333;stroke-width:1;stroke-linejoin:miter;stroke-miterlimit:10;"/><path d="M478,619.4808 C478,636.0415 478,651.4129 478,667.9253" fill="none" style="stroke:#333333;stroke-width:1;"/></g><g class="link" data-entity-1="ent0015" data-entity-2="ent0016" data-link-type="dependency" id="lnk39"><polygon fill="#333333" points="478,772.6869,482,763.6869,478,767.6869,474,763.6869,478,772.6869" style="stroke:#333333;stroke-width:1;stroke-linejoin:miter;stroke-miterlimit:10;"/><path d="M478,735.4998 C478,747.3101 478,755.8376 478,767.6869" fill="none" style="stroke:#333333;stroke-width:1;"/></g><g class="link" data-entity-1="ent0012" data-entity-2="ent0018" data-link-type="dependency" id="lnk40"><polygon fill="#333333" points="972.0176,564.6136,966.9474,556.17,967.9245,561.7419,962.3527,562.7189,972.0176,564.6136" style="stroke:#333333;stroke-width:1;stroke-linejoin:miter;stroke-miterlimit:10;"/><path d="M722.846,481.583 C725.5943,482.5092 728.3188,483.4165 731,484.2969 C785.6423,502.2378 798.8727,508.7519 855,521.2969 C878.2488,526.4932 885.6365,521.0884 908,529.2969 C930.988,537.7346 950.33,549.3975 967.9245,561.7419" fill="none" style="stroke:#333333;stroke-width:1;"/></g><g class="link" data-entity-1="ent0012" data-entity-2="ent0019" data-link-type="dependency" id="lnk41"><polygon fill="#333333" points="1130.4661,564.7198,1128.1865,555.1384,1127.433,560.7448,1121.8266,559.9913,1130.4661,564.7198" style="stroke:#333333;stroke-width:1;stroke-linejoin:miter;stroke-miterlimit:10;"/><path d="M722.7215,482.0047 C725.505,482.8116 728.2707,483.5792 731,484.2969 C776.7906,496.3383 789.5155,493.2986 836,502.2969 C875.2831,509.9012 884.3274,516.094 924,521.2969 C942.3091,523.698 1073.1989,521.6345 1090,529.2969 C1106.5907,536.8633 1117.6619,547.9393 1127.433,560.7448" fill="none" style="stroke:#333333;stroke-width:1;"/></g><g class="link" data-entity-1="ent0012" data-entity-2="ent0020" data-link-type="dependency" id="lnk42"><polygon fill="#333333" points="1257.2387,564.5264,1252.9133,555.6782,1253.4077,561.3135,1247.7725,561.8079,1257.2387,564.5264" style="stroke:#333333;stroke-width:1;stroke-linejoin:miter;stroke-miterlimit:10;"/><path d="M722.6669,482.2264 C725.4658,482.9706 728.2497,483.6647 731,484.2969 C803.7547,501.0208 824.5674,488.8587 898,502.2969 C930.9777,508.3318 937.8257,516.4577 971,521.2969 C1021.1669,528.6148 1150.9288,513.1899 1199,529.2969 C1220.7622,536.5886 1238.0524,548.4352 1253.4077,561.3135" fill="none" style="stroke:#333333;stroke-width:1;"/></g><g class="link" data-entity-1="ent0013" data-entity-2="ent0022" data-link-type="dependency" id="lnk43"><polygon fill="#333333" points="1414.2713,556.1877,1409.135,547.7842,1410.1558,553.3481,1404.5918,554.3689,1414.2713,556.1877" style="stroke:#333333;stroke-width:1;stroke-linejoin:miter;stroke-miterlimit:10;"/><path d="M895.8,453.9229 C1004.2894,456.4372 1205.6247,469.6778 1365,529.2969 C1382.2641,535.755 1395.4879,543.228 1410.1558,553.3481" fill="none" style="stroke:#333333;stroke-width:1;"/><text fill="#000000" font-family="sans-serif" font-size="13" lengthAdjust="spacing" textLength="84.5698" x="1340" y="516.3638">Azure egress</text></g><g class="link" data-entity-1="ent0022" data-entity-2="ent0023" data-link-type="dependency" id="lnk44"><polygon fill="#333333" points="1463.9692,672.5283,1466.7662,663.0849,1463.3197,667.5706,1458.834,664.1241,1463.9692,672.5283" style="stroke:#333333;stroke-width:1;stroke-linejoin:miter;stroke-miterlimit:10;"/><path d="M1457.0197,619.4808 C1459.1719,635.909 1461.1659,651.1296 1463.3197,667.5706" fill="none" style="stroke:#333333;stroke-width:1;"/></g><g class="link" data-entity-1="ent0013" data-entity-2="ent0024" data-link-type="dependency" id="lnk45"><polygon fill="#333333" points="1582.5635,556.2111,1577.6368,547.6831,1578.5196,553.2707,1572.932,554.1534,1582.5635,556.2111" style="stroke:#333333;stroke-width:1;stroke-linejoin:miter;stroke-miterlimit:10;"/><path d="M895.7832,455.8325 C1012.5096,459.8167 1239.6114,471.1752 1430,502.2969 C1478.8292,510.2787 1492.9911,508.7495 1538,529.2969 C1553.5007,536.3732 1565.1065,543.5177 1578.5196,553.2707" fill="none" style="stroke:#333333;stroke-width:1;"/></g><?plantuml-src RLNXRk964FxlfvYcFvfSQ-XTH7JjZqgE1OHJA8xDjRshgzDYBx27lMljhWFqT58Vek_I_tsKFabdTaqA9OuKbfblPxxvPiPyqMYsgXbKRAzQ2wRcbaaMM64h3b73T_3F7tz2jZUMrn3fOYqiBsohELp6gcwKvD9U1O7P2DampMfOi6ApqggLPQmgfU7BaNkE46RDIhKLSWLBLXb-v2aE4JExn_HjNRqwybP2ShjlE2Xjr-h88LN93M_W-jiZesPoGyR1uBa4y2a0k5MwvBgZUUCUifuLCA2_uFDHd0OnRCNFexnspxDHl0p7KIAjrRPpNxldo5aoonRCyBD0mzUZmV2xvv2dvKJNDxT1S61wCT9AMYvBkFoHxspleu6NWwiBO0P6myGLyklFV05l9z27P8tXu6LuaykjqfjbfRRmDHXHyWNJlz6TjnEwa79MM7XekTx389UNXkj7hi5OPlcLmwKFX7lVeWbJ6wiqDmveZ50I_luBIisMrdZq-upGoHIYaZMMQqJEcLWnfFH6QEP1oJGYr4hOTRi85oWXfkrPuvpZkrkK-B-gIJrNz8WP6oKJocXmz72wjXf7MNi9RWyI762PgoINyIpDwCv2bVkm4hMmBWr275Ed4pO70s5P3Nr5rUW2wMQG1lSop0aUKmTsbcABWkTI65KnIpeOpce7Z9q2f1FIxpNxN6R-d32xTeXiFYO84n-uNE56O5gj7h4rsX71sZp3oP1WjfFl8ye72DnHn2mT4SKFV8NTyBebwUoN4-6oXXT0kRaJACkyG8TPWul25sCGbyifqnlSQKbJWdVseP0bt-6GAUclpsUfurEfWbLG2hE1VYwZt-b5CXBOZMpDjDTgb6KdJA8995s5viANrZKhadQjLICAY2lMblvwV4-kMSDbD766MUHwDLQAkZxcjP32pyfmUf88vswkLEMJ9DCkILofjbnMo0uqnxTaBgMIeMS-INntxzyHqergBbaZUaxsdb2eVAF58ww30_hMqIY32vlB5prcAuRBm6GFtsuEzIOzeVLJd3b6-DbH6WjxrouW7MPpciHkyEdILn3Y0yl3hWlyq18L9tE0kns6Fz1ETYVSj_J1dMYfpcwZVT7jJn-mr-UXQ5M-zqJwM7V_HO21V40SA7GvQrEZ0pVJESPtQEwsDYo5nb-Jfyo7RAUqAOdZFG_IkJlXbdGd6lFkw4OupjoPbkJ_GT7yLCCb_WY0JuxhzmtGx6wPBgzyHhpUXQ6nTV_TTnfDpEWvt3yTQS8EPnegLxjZVFyEY_MpufSj81EvaE0J31l-Bm00?></g></svg>