<svg xmlns="http://www.w3.org/2000/svg" xmlns:xlink="http://www.w3.org/1999/xlink" contentStyleType="text/css" data-diagram-type="DESCRIPTION" height="837px" preserveAspectRatio="none" style="width:1922px;height:837px;background:#FFFFFF;" version="1.1" viewBox="0 0 1922 837" width="1922px" zoomAndPan="magnify"><?plantuml 1.2026.6?><defs/><g><g class="title" data-source-line="1"><text fill="#000000" font-family="sans-serif" font-size="14" font-weight="700" lengthAdjust="spacing" textLength="332.582" x="791.209" y="22.9951">Apex &#8212; System Architecture (Component)</text></g><!--cluster FEP--><g class="cluster" data-qualified-name="FEP" data-source-line="21" id="ent0001"><path d="M8.5,43.2969 L179.1406,43.2969 A3.75,3.75 0 0 1 181.6406,45.7969 L188.6406,65.5938 L410.5,65.5938 A2.5,2.5 0 0 1 413,68.0938 L413,420.7969 A2.5,2.5 0 0 1 410.5,423.2969 L8.5,423.2969 A2.5,2.5 0 0 1 6,420.7969 L6,45.7969 A2.5,2.5 0 0 1 8.5,43.2969" fill="#FFFFFF" style="stroke:#888888;stroke-width:1.5;"/><line style="stroke:#888888;stroke-width:1.5;" x1="6" x2="188.6406" y1="65.5938" y2="65.5938"/><text fill="#000000" font-family="sans-serif" font-size="14" font-weight="700" lengthAdjust="spacing" textLength="169.6406" x="10" y="58.292">Frontend (Next.js 15)</text></g><!--cluster BEP--><g class="cluster" data-qualified-name="BEP" data-source-line="29" id="ent0007"><path d="M439.5,176.2969 L700.8057,176.2969 A3.75,3.75 0 0 1 703.3057,178.7969 L710.3057,198.5938 L992.5,198.5938 A2.5,2.5 0 0 1 995,201.0938 L995,686.7969 A2.5,2.5 0 0 1 992.5,689.2969 L439.5,689.2969 A2.5,2.5 0 0 1 437,686.7969 L437,178.7969 A2.5,2.5 0 0 1 439.5,176.2969" fill="#FFFFFF" style="stroke:#888888;stroke-width:1.5;"/><line style="stroke:#888888;stroke-width:1.5;" x1="437" x2="710.3057" y1="198.5938" y2="198.5938"/><text fill="#000000" font-family="sans-serif" font-size="14" font-weight="700" lengthAdjust="spacing" textLength="260.3057" x="441" y="191.292">Backend (FastAPI &#183; single writer)</text></g><!--cluster SSP--><g class="cluster" data-qualified-name="SSP" data-source-line="38" id="ent0014"><path d="M157.5,575.7969 L244.0654,575.7969 A3.75,3.75 0 0 1 246.5654,578.2969 L253.5654,598.0938 L410.5,598.0938 A2.5,2.5 0 0 1 413,600.5938 L413,819.7969 A2.5,2.5 0 0 1 410.5,822.2969 L157.5,822.2969 A2.5,2.5 0 0 1 155,819.7969 L155,578.2969 A2.5,2.5 0 0 1 157.5,575.7969" fill="#FFFFFF" style="stroke:#888888;stroke-width:1.5;"/><line style="stroke:#888888;stroke-width:1.5;" x1="155" x2="253.5654" y1="598.0938" y2="598.0938"/><text fill="#000000" font-family="sans-serif" font-size="14" font-weight="700" lengthAdjust="spacing" textLength="85.5654" x="159" y="590.792">Spec Store</text></g><!--cluster PMP--><g class="cluster" data-qualified-name="PMP" data-source-line="43" id="ent0017"><path d="M1021.5,575.2969 L1093.4844,575.2969 A3.75,3.75 0 0 1 1095.9844,577.7969 L1102.9844,597.5938 L1381.5,597.5938 A2.5,2.5 0 0 1 1384,600.0938 L1384,819.7969 A2.5,2.5 0 0 1 1381.5,822.2969 L1021.5,822.2969 A2.5,2.5 0 0 1 1019,819.7969 L1019,577.7969 A2.5,2.5 0 0 1 1021.5,575.2969" fill="#FFFFFF" style="stroke:#888888;stroke-width:1.5;"/><line style="stroke:#888888;stroke-width:1.5;" x1="1019" x2="1102.9844" y1="597.5938" y2="597.5938"/><text fill="#000000" font-family="sans-serif" font-size="14" font-weight="700" lengthAdjust="spacing" textLength="70.9844" x="1023" y="590.292">PM Tools</text></g><!--cluster AIP--><g class="cluster" data-qualified-name="AIP" data-source-line="49" id="ent0021"><path d="M1410.5,583.7969 L1507.8799,583.7969 A3.75,3.75 0 0 1 1510.3799,586.2969 L1517.3799,606.0938 L1904.5,606.0938 A2.5,2.5 0 0 1 1907,608.5938 L1907,678.2969 A2.5,2.5 0 0 1 1904.5,680.7969 L1410.5,680.7969 A2.5,2.5 0 0 1 1408,678.2969 L1408,586.2969 A2.5,2.5 0 0 1 1410.5,583.7969" fill="#FFFFFF" style="stroke:#888888;stroke-width:1.5;"/><line style="stroke:#888888;stroke-width:1.5;" x1="1408" x2="1517.3799" y1="606.0938" y2="606.0938"/><text fill="#000000" font-family="sans-serif" font-size="14" font-weight="700" lengthAdjust="spacing" textLength="96.3799" x="1412" y="598.792">AI Providers</text></g><!--cluster VCSP--><g class="cluster" data-qualified-name="VCSP" data-source-line="55" id="ent0025"><path d="M1021.5,184.7969 L1053.6924,184.7969 A3.75,3.75 0 0 1 1056.1924,187.2969 L1063.1924,207.0938 L1204.5,207.0938 A2.5,2.5 0 0 1 1207,209.5938 L1207,279.2969 A2.5,2.5 0 0 1 1204.5,281.7969 L1021.5,281.7969 A2.5,2.5 0 0 1 1019,279.2969 L1019,187.2969 A2.5,2.5 0 0 1 1021.5,184.7969" fill="#FFFFFF" style="stroke:#888888;stroke-width:1.5;"/><line style="stroke:#888888;stroke-width:1.5;" x1="1019" x2="1063.1924" y1="207.0938" y2="207.0938"/><text fill="#000000" font-family="sans-serif" font-size="14" font-weight="700" lengthAdjust="spacing" textLength="31.1924" x="1023" y="199.792">VCS</text></g><!--entity UI--><g class="entity" data-qualified-name="FEP.UI" data-source-line="22" id="ent0002"><rect fill="#F5F5F5" height="62.5938" rx="2.5" ry="2.5" style="stroke:#666666;stroke-width:0.5;" width="175.249" x="22.5" y="78.2969"/><rect fill="#F5F5F5" height="10" style="stroke:#666666;stroke-width:0.5;" width="15" x="177.749" y="83.2969"/><rect fill="#F5F5F5" height="2" style="stroke:#666666;stroke-width:0.5;" width="4" x="175.749" y="85.2969"/><rect fill="#F5F5F5" height="2" style="stroke:#666666;stroke-width:0.5;" width="4" x="175.749" y="89.2969"/><text fill="#000000" font-family="sans-serif" font-size="14" lengthAdjust="spacing" textLength="132.9043" x="37.5" y="111.292">Web UI / Phase 1-6</text><text fill="#000000" font-family="sans-serif" font-size="14" lengthAdjust="spacing" textLength="135.249" x="37.5" y="127.5889">workflow + sidebar</text></g><!--entity RQ--><g class="entity" data-qualified-name="FEP.RQ" data-source-line="23" id="ent0003"><rect fill="#F5F5F5" height="62.5938" rx="2.5" ry="2.5" style="stroke:#666666;stroke-width:0.5;" width="140.4609" x="40" y="211.2969"/><rect fill="#F5F5F5" height="10" style="stroke:#666666;stroke-width:0.5;" width="15" x="160.4609" y="216.2969"/><rect fill="#F5F5F5" height="2" style="stroke:#666666;stroke-width:0.5;" width="4" x="158.4609" y="218.2969"/><rect fill="#F5F5F5" height="2" style="stroke:#666666;stroke-width:0.5;" width="4" x="158.4609" y="222.2969"/><text fill="#000000" font-family="sans-serif" font-size="14" lengthAdjust="spacing" textLength="100.4609" x="55" y="244.292">React Query 5</text><text fill="#000000" font-family="sans-serif" font-size="14" lengthAdjust="spacing" textLength="95.1563" x="55" y="260.5889">(server state)</text></g><!--entity ZS--><g class="entity" data-qualified-name="FEP.ZS" data-source-line="24" id="ent0004"><rect fill="#F5F5F5" height="62.5938" rx="2.5" ry="2.5" style="stroke:#666666;stroke-width:0.5;" width="157.0313" x="215.5" y="211.2969"/><rect fill="#F5F5F5" height="10" style="stroke:#666666;stroke-width:0.5;" width="15" x="352.5313" y="216.2969"/><rect fill="#F5F5F5" height="2" style="stroke:#666666;stroke-width:0.5;" width="4" x="350.5313" y="218.2969"/><rect fill="#F5F5F5" height="2" style="stroke:#666666;stroke-width:0.5;" width="4" x="350.5313" y="222.2969"/><text fill="#000000" font-family="sans-serif" font-size="14" lengthAdjust="spacing" textLength="105.0479" x="230.5" y="244.292">Zustand stores</text><text fill="#000000" font-family="sans-serif" font-size="14" lengthAdjust="spacing" textLength="117.0313" x="230.5" y="260.5889">(session &#183; drafts)</text></g><!--entity PMA--><g class="entity" data-qualified-name="FEP.PMA" data-source-line="25" id="ent0005"><rect fill="#F5F5F5" height="62.5938" rx="2.5" ry="2.5" style="stroke:#666666;stroke-width:0.5;" width="125.3809" x="159.5" y="344.2969"/><rect fill="#F5F5F5" height="10" style="stroke:#666666;stroke-width:0.5;" width="15" x="264.8809" y="349.2969"/><rect fill="#F5F5F5" height="2" style="stroke:#666666;stroke-width:0.5;" width="4" x="262.8809" y="351.2969"/><rect fill="#F5F5F5" height="2" style="stroke:#666666;stroke-width:0.5;" width="4" x="262.8809" y="355.2969"/><text fill="#000000" font-family="sans-serif" font-size="14" lengthAdjust="spacing" textLength="80.7598" x="174.5" y="377.292">PM Adapter</text><text fill="#000000" font-family="sans-serif" font-size="14" lengthAdjust="spacing" textLength="85.3809" x="174.5" y="393.5889">(Taiga / Jira)</text></g><!--entity GHB--><g class="entity" data-qualified-name="FEP.GHB" data-source-line="26" id="ent0006"><rect fill="#F5F5F5" height="46.2969" rx="2.5" ry="2.5" style="stroke:#666666;stroke-width:0.5;" width="163.5049" x="233" y="86.7969"/><rect fill="#F5F5F5" height="10" style="stroke:#666666;stroke-width:0.5;" width="15" x="376.5049" y="91.7969"/><rect fill="#F5F5F5" height="2" style="stroke:#666666;stroke-width:0.5;" width="4" x="374.5049" y="93.7969"/><rect fill="#F5F5F5" height="2" style="stroke:#666666;stroke-width:0.5;" width="4" x="374.5049" y="97.7969"/><text fill="#000000" font-family="sans-serif" font-size="14" lengthAdjust="spacing" textLength="123.5049" x="248" y="119.792">github-browser.ts</text></g><!--entity API--><g class="entity" data-qualified-name="BEP.API" data-source-line="30" id="ent0008"><rect fill="#F5F5F5" height="62.5938" rx="2.5" ry="2.5" style="stroke:#666666;stroke-width:0.5;" width="163.2314" x="460.5" y="211.2969"/><rect fill="#F5F5F5" height="10" style="stroke:#666666;stroke-width:0.5;" width="15" x="603.7314" y="216.2969"/><rect fill="#F5F5F5" height="2" style="stroke:#666666;stroke-width:0.5;" width="4" x="601.7314" y="218.2969"/><rect fill="#F5F5F5" height="2" style="stroke:#666666;stroke-width:0.5;" width="4" x="601.7314" y="222.2969"/><text fill="#000000" font-family="sans-serif" font-size="14" lengthAdjust="spacing" textLength="101.9238" x="475.5" y="244.292">FastAPI Server</text><text fill="#000000" font-family="sans-serif" font-size="14" lengthAdjust="spacing" textLength="123.2314" x="475.5" y="260.5889">CORS &#183; body-limit</text></g><!--entity RT--><g class="entity" data-qualified-name="BEP.RT" data-source-line="31" id="ent0009"><rect fill="#F5F5F5" height="62.5938" rx="2.5" ry="2.5" style="stroke:#666666;stroke-width:0.5;" width="193.4121" x="534.5" y="344.2969"/><rect fill="#F5F5F5" height="10" style="stroke:#666666;stroke-width:0.5;" width="15" x="707.9121" y="349.2969"/><rect fill="#F5F5F5" height="2" style="stroke:#666666;stroke-width:0.5;" width="4" x="705.9121" y="351.2969"/><rect fill="#F5F5F5" height="2" style="stroke:#666666;stroke-width:0.5;" width="4" x="705.9121" y="355.2969"/><text fill="#000000" font-family="sans-serif" font-size="14" lengthAdjust="spacing" textLength="96.5986" x="549.5" y="377.292">Phase routers</text><text fill="#000000" font-family="sans-serif" font-size="14" lengthAdjust="spacing" textLength="153.4121" x="549.5" y="393.5889">phase1-6 &#183; workspace</text></g><!--entity CS--><g class="entity" data-qualified-name="BEP.CS" data-source-line="32" id="ent0010"><rect fill="#F5F5F5" height="62.5938" rx="2.5" ry="2.5" style="stroke:#666666;stroke-width:0.5;" width="146.832" x="453.5" y="477.2969"/><rect fill="#F5F5F5" height="10" style="stroke:#666666;stroke-width:0.5;" width="15" x="580.332" y="482.2969"/><rect fill="#F5F5F5" height="2" style="stroke:#666666;stroke-width:0.5;" width="4" x="578.332" y="484.2969"/><rect fill="#F5F5F5" height="2" style="stroke:#666666;stroke-width:0.5;" width="4" x="578.332" y="488.2969"/><text fill="#000000" font-family="sans-serif" font-size="14" lengthAdjust="spacing" textLength="106.832" x="468.5" y="510.292">ContextService</text><text fill="#000000" font-family="sans-serif" font-size="14" lengthAdjust="spacing" textLength="101.6094" x="468.5" y="526.5889">isolation seam</text></g><!--entity STG--><g class="entity" data-qualified-name="BEP.STG" data-source-line="33" id="ent0011"><rect fill="#F5F5F5" height="62.5938" rx="2.5" ry="2.5" style="stroke:#666666;stroke-width:0.5;" width="126.1602" x="458" y="610.2969"/><rect fill="#F5F5F5" height="10" style="stroke:#666666;stroke-width:0.5;" width="15" x="564.1602" y="615.2969"/><rect fill="#F5F5F5" height="2" style="stroke:#666666;stroke-width:0.5;" width="4" x="562.1602" y="617.2969"/><rect fill="#F5F5F5" height="2" style="stroke:#666666;stroke-width:0.5;" width="4" x="562.1602" y="621.2969"/><text fill="#000000" font-family="sans-serif" font-size="14" lengthAdjust="spacing" textLength="74.8057" x="473" y="643.292">storage.py</text><text fill="#000000" font-family="sans-serif" font-size="14" lengthAdjust="spacing" textLength="86.1602" x="473" y="659.5889">StoragePath</text></g><!--entity PROX--><g class="entity" data-qualified-name="BEP.PROX" data-source-line="34" id="ent0012"><rect fill="#F5F5F5" height="62.5938" rx="2.5" ry="2.5" style="stroke:#666666;stroke-width:0.5;" width="155.3838" x="635.5" y="477.2969"/><rect fill="#F5F5F5" height="10" style="stroke:#666666;stroke-width:0.5;" width="15" x="770.8838" y="482.2969"/><rect fill="#F5F5F5" height="2" style="stroke:#666666;stroke-width:0.5;" width="4" x="768.8838" y="484.2969"/><rect fill="#F5F5F5" height="2" style="stroke:#666666;stroke-width:0.5;" width="4" x="768.8838" y="488.2969"/><text fill="#000000" font-family="sans-serif" font-size="14" lengthAdjust="spacing" textLength="115.3838" x="650.5" y="510.292">taiga / jira proxy</text><text fill="#000000" font-family="sans-serif" font-size="14" lengthAdjust="spacing" textLength="102.3613" x="650.5" y="526.5889">SSRF &#183; _egress</text></g><!--entity AIE--><g class="entity" data-qualified-name="BEP.AIE" data-source-line="35" id="ent0013"><rect fill="#F5F5F5" height="62.5938" rx="2.5" ry="2.5" style="stroke:#666666;stroke-width:0.5;" width="153.4219" x="825.5" y="477.2969"/><rect fill="#F5F5F5" height="10" style="stroke:#666666;stroke-width:0.5;" width="15" x="958.9219" y="482.2969"/><rect fill="#F5F5F5" height="2" style="stroke:#666666;stroke-width:0.5;" width="4" x="956.9219" y="484.2969"/><rect fill="#F5F5F5" height="2" style="stroke:#666666;stroke-width:0.5;" width="4" x="956.9219" y="488.2969"/><text fill="#000000" font-family="sans-serif" font-size="14" lengthAdjust="spacing" textLength="67.2178" x="840.5" y="510.292">ai_engine</text><text fill="#000000" font-family="sans-serif" font-size="14" lengthAdjust="spacing" textLength="113.4219" x="840.5" y="526.5889">provider routing</text></g><!--entity STORE--><g class="entity" data-qualified-name="SSP.STORE" data-source-line="39" id="ent0015"><path d="M171.5,620.7969 C171.5,610.7969 283.9946,610.7969 283.9946,610.7969 C283.9946,610.7969 396.4893,610.7969 396.4893,620.7969 L396.4893,662.3906 C396.4893,672.3906 283.9946,672.3906 283.9946,672.3906 C283.9946,672.3906 171.5,672.3906 171.5,662.3906 L171.5,620.7969" fill="#E8F5E9" style="stroke:#66A36B;stroke-width:0.5;"/><path d="M171.5,620.7969 C171.5,630.7969 283.9946,630.7969 283.9946,630.7969 C283.9946,630.7969 396.4893,630.7969 396.4893,620.7969" fill="none" style="stroke:#66A36B;stroke-width:0.5;"/><text fill="#000000" font-family="sans-serif" font-size="14" lengthAdjust="spacing" textLength="85.5039" x="181.5" y="647.792">contextspec</text><text fill="#000000" font-family="sans-serif" font-size="14" lengthAdjust="spacing" textLength="204.9893" x="181.5" y="664.0889">Markdown + story-index.json</text></g><!--entity FSS--><g class="entity" data-qualified-name="SSP.FSS" data-source-line="40" id="ent0016"><rect fill="#F5F5F5" height="62.5938" rx="2.5" ry="2.5" style="stroke:#666666;stroke-width:0.5;" width="154.2217" x="207" y="743.2969"/><rect fill="#F5F5F5" height="10" style="stroke:#666666;stroke-width:0.5;" width="15" x="341.2217" y="748.2969"/><rect fill="#F5F5F5" height="2" style="stroke:#666666;stroke-width:0.5;" width="4" x="339.2217" y="750.2969"/><rect fill="#F5F5F5" height="2" style="stroke:#666666;stroke-width:0.5;" width="4" x="339.2217" y="754.2969"/><text fill="#000000" font-family="sans-serif" font-size="14" lengthAdjust="spacing" textLength="74.416" x="222" y="776.292">local disk /</text><text fill="#000000" font-family="sans-serif" font-size="14" lengthAdjust="spacing" textLength="114.2217" x="222" y="792.5889">Azure File Share</text></g><!--entity RLY--><g class="entity" data-qualified-name="PMP.RLY" data-source-line="44" id="ent0018"><rect fill="#F5F5F5" height="62.5938" rx="2.5" ry="2.5" style="stroke:#666666;stroke-width:0.5;" width="151.3301" x="1035.5" y="610.2969"/><rect fill="#F5F5F5" height="10" style="stroke:#666666;stroke-width:0.5;" width="15" x="1166.8301" y="615.2969"/><rect fill="#F5F5F5" height="2" style="stroke:#666666;stroke-width:0.5;" width="4" x="1164.8301" y="617.2969"/><rect fill="#F5F5F5" height="2" style="stroke:#666666;stroke-width:0.5;" width="4" x="1164.8301" y="621.2969"/><text fill="#000000" font-family="sans-serif" font-size="14" lengthAdjust="spacing" textLength="111.3301" x="1050.5" y="643.292">Cloudflare relay</text><text fill="#000000" font-family="sans-serif" font-size="14" lengthAdjust="spacing" textLength="88.5527" x="1050.5" y="659.5889">non-Azure IP</text></g><!--entity TG--><g class="entity" data-qualified-name="PMP.TG" data-source-line="45" id="ent0019"><rect fill="#F5F5F5" height="62.5938" rx="2.5" ry="2.5" style="stroke:#666666;stroke-width:0.5;" width="181.251" x="1035.5" y="743.2969"/><rect fill="#F5F5F5" height="10" style="stroke:#666666;stroke-width:0.5;" width="15" x="1196.751" y="748.2969"/><rect fill="#F5F5F5" height="2" style="stroke:#666666;stroke-width:0.5;" width="4" x="1194.751" y="750.2969"/><rect fill="#F5F5F5" height="2" style="stroke:#666666;stroke-width:0.5;" width="4" x="1194.751" y="754.2969"/><text fill="#000000" font-family="sans-serif" font-size="14" lengthAdjust="spacing" textLength="38.4863" x="1050.5" y="776.292">Taiga</text><text fill="#000000" font-family="sans-serif" font-size="14" lengthAdjust="spacing" textLength="141.251" x="1050.5" y="792.5889">api.taiga.io / private</text></g><!--entity JR--><g class="entity" data-qualified-name="PMP.JR" data-source-line="46" id="ent0020"><rect fill="#F5F5F5" height="62.5938" rx="2.5" ry="2.5" style="stroke:#666666;stroke-width:0.5;" width="146.3428" x="1222" y="610.2969"/><rect fill="#F5F5F5" height="10" style="stroke:#666666;stroke-width:0.5;" width="15" x="1348.3428" y="615.2969"/><rect fill="#F5F5F5" height="2" style="stroke:#666666;stroke-width:0.5;" width="4" x="1346.3428" y="617.2969"/><rect fill="#F5F5F5" height="2" style="stroke:#666666;stroke-width:0.5;" width="4" x="1346.3428" y="621.2969"/><text fill="#000000" font-family="sans-serif" font-size="14" lengthAdjust="spacing" textLength="66.7939" x="1237" y="643.292">Jira Cloud</text><ellipse cx="1242.5" cy="655.3906" fill="#000000" rx="2.5" ry="2.5"/><text fill="#000000" font-family="sans-serif" font-size="14" lengthAdjust="spacing" textLength="94.3428" x="1249" y="659.5889">.atlassian.net</text></g><!--entity CL--><g class="entity" data-qualified-name="AIP.CL" data-source-line="50" id="ent0022"><rect fill="#F5F5F5" height="46.2969" rx="2.5" ry="2.5" style="stroke:#666666;stroke-width:0.5;" width="160.6748" x="1729.5" y="618.7969"/><rect fill="#F5F5F5" height="10" style="stroke:#666666;stroke-width:0.5;" width="15" x="1870.1748" y="623.7969"/><rect fill="#F5F5F5" height="2" style="stroke:#666666;stroke-width:0.5;" width="4" x="1868.1748" y="625.7969"/><rect fill="#F5F5F5" height="2" style="stroke:#666666;stroke-width:0.5;" width="4" x="1868.1748" y="629.7969"/><text fill="#000000" font-family="sans-serif" font-size="14" lengthAdjust="spacing" textLength="120.6748" x="1744.5" y="651.792">Anthropic Claude</text></g><!--entity OAI--><g class="entity" data-qualified-name="AIP.OAI" data-source-line="51" id="ent0023"><rect fill="#F5F5F5" height="46.2969" rx="2.5" ry="2.5" style="stroke:#666666;stroke-width:0.5;" width="91.0986" x="1603.5" y="618.7969"/><rect fill="#F5F5F5" height="10" style="stroke:#666666;stroke-width:0.5;" width="15" x="1674.5986" y="623.7969"/><rect fill="#F5F5F5" height="2" style="stroke:#666666;stroke-width:0.5;" width="4" x="1672.5986" y="625.7969"/><rect fill="#F5F5F5" height="2" style="stroke:#666666;stroke-width:0.5;" width="4" x="1672.5986" y="629.7969"/><text fill="#000000" font-family="sans-serif" font-size="14" lengthAdjust="spacing" textLength="51.0986" x="1618.5" y="651.792">OpenAI</text></g><!--entity GEM--><g class="entity" data-qualified-name="AIP.GEM" data-source-line="52" id="ent0024"><rect fill="#F5F5F5" height="46.2969" rx="2.5" ry="2.5" style="stroke:#666666;stroke-width:0.5;" width="143.5713" x="1424" y="618.7969"/><rect fill="#F5F5F5" height="10" style="stroke:#666666;stroke-width:0.5;" width="15" x="1547.5713" y="623.7969"/><rect fill="#F5F5F5" height="2" style="stroke:#666666;stroke-width:0.5;" width="4" x="1545.5713" y="625.7969"/><rect fill="#F5F5F5" height="2" style="stroke:#666666;stroke-width:0.5;" width="4" x="1545.5713" y="629.7969"/><text fill="#000000" font-family="sans-serif" font-size="14" lengthAdjust="spacing" textLength="103.5713" x="1439" y="651.792">Google Gemini</text></g><!--entity GH--><g class="entity" data-qualified-name="VCSP.GH" data-source-line="56" id="ent0026"><rect fill="#F5F5F5" height="46.2969" rx="2.5" ry="2.5" style="stroke:#666666;stroke-width:0.5;" width="155.5752" x="1035" y="219.7969"/><rect fill="#F5F5F5" height="10" style="stroke:#666666;stroke-width:0.5;" width="15" x="1170.5752" y="224.7969"/><rect fill="#F5F5F5" height="2" style="stroke:#666666;stroke-width:0.5;" width="4" x="1168.5752" y="226.7969"/><rect fill="#F5F5F5" height="2" style="stroke:#666666;stroke-width:0.5;" width="4" x="1168.5752" y="230.7969"/><text fill="#000000" font-family="sans-serif" font-size="14" lengthAdjust="spacing" textLength="115.5752" x="1050" y="252.792">GitHub REST API</text></g><!--link UI to RQ--><g class="link" data-entity-1="ent0002" data-entity-2="ent0003" data-link-type="dependency" data-source-line="60" id="lnk27"><path d="M110,141.3169 C110,162.3669 110,184.9469 110,206.0469" fill="none" id="UI-to-RQ" style="stroke:#333333;stroke-width:1;"/><polygon fill="#333333" points="110,211.0469,114,202.0469,110,206.0469,106,202.0469,110,211.0469" style="stroke:#333333;stroke-width:1;stroke-linejoin:miter;stroke-miterlimit:10;"/></g><!--link UI to ZS--><g class="link" data-entity-1="ent0002" data-entity-2="ent0004" data-link-type="dependency" data-source-line="61" id="lnk28"><path d="M197.75,139.2969 C213.09,139.2969 224.25,139.2969 224.25,139.2969 C224.25,139.2969 224.25,175.7469 224.25,206.1769" fill="none" id="UI-to-ZS" style="stroke:#333333;stroke-width:1;"/><polygon fill="#333333" points="224.25,211.1769,228.25,202.1769,224.25,206.1769,220.25,202.1769,224.25,211.1769" style="stroke:#333333;stroke-width:1;stroke-linejoin:miter;stroke-miterlimit:10;"/></g><!--link RQ to PMA--><g class="link" data-entity-1="ent0003" data-entity-2="ent0005" data-link-type="dependency" data-source-line="62" id="lnk29"><path d="M169.75,274.3169 C169.75,295.3669 169.75,317.9469 169.75,339.0469" fill="none" id="RQ-to-PMA" style="stroke:#333333;stroke-width:1;"/><polygon fill="#333333" points="169.75,344.0469,173.75,335.0469,169.75,339.0469,165.75,335.0469,169.75,344.0469" style="stroke:#333333;stroke-width:1;stroke-linejoin:miter;stroke-miterlimit:10;"/></g><!--link UI to API--><g class="link" data-entity-1="ent0002" data-entity-2="ent0008" data-link-type="dependency" data-source-line="65" id="lnk30"><path d="M197.68,136.2969 C323.95,136.2969 542,136.2969 542,136.2969 C542,136.2969 542,174.7369 542,206.1269" fill="none" id="UI-to-API" style="stroke:#333333;stroke-width:1;"/><polygon fill="#333333" points="542,211.1269,546,202.1269,542,206.1269,538,202.1269,542,211.1269" style="stroke:#333333;stroke-width:1;stroke-linejoin:miter;stroke-miterlimit:10;"/><text fill="#000000" font-family="sans-serif" font-size="13" lengthAdjust="spacing" textLength="72.6616" x="334.26" y="149.3638">REST /api/*</text></g><!--link PMA to PROX--><g class="link" data-entity-1="ent0005" data-entity-2="ent0012" data-link-type="dependency" data-source-line="66" id="lnk31"><path d="M228,407.4869 C228,424.6169 228,442.2969 228,442.2969 C228,442.2969 666.17,442.2969 666.17,442.2969 C666.17,442.2969 666.17,454.9769 666.17,472.1069" fill="none" id="PMA-to-PROX" style="stroke:#333333;stroke-width:1;"/><polygon fill="#333333" points="666.17,477.1069,670.17,468.1069,666.17,472.1069,662.17,468.1069,666.17,477.1069" style="stroke:#333333;stroke-width:1;stroke-linejoin:miter;stroke-miterlimit:10;"/><text fill="#000000" font-family="sans-serif" font-size="13" lengthAdjust="spacing" textLength="60.3853" x="386.08" y="438.3638">/api/pm/*</text></g><!--link GHB to GH--><g class="link" data-entity-1="ent0006" data-entity-2="ent0026" data-link-type="dependency" data-source-line="67" id="lnk32"><path d="M397.02,110.2969 C600.66,110.2969 1113,110.2969 1113,110.2969 C1113,110.2969 1113,176.7569 1113,214.7169" fill="none" id="GHB-to-GH" style="stroke:#333333;stroke-width:1;"/><polygon fill="#333333" points="1113,219.7169,1117,210.7169,1113,214.7169,1109,210.7169,1113,219.7169" style="stroke:#333333;stroke-width:1;stroke-linejoin:miter;stroke-miterlimit:10;"/><text fill="#000000" font-family="sans-serif" font-size="13" lengthAdjust="spacing" textLength="94.4404" x="714.72" y="106.3638">browser-direct</text></g><!--link API to RT--><g class="link" data-entity-1="ent0008" data-entity-2="ent0009" data-link-type="dependency" data-source-line="70" id="lnk33"><path d="M579,274.3169 C579,295.3669 579,317.9469 579,339.0469" fill="none" id="API-to-RT" style="stroke:#333333;stroke-width:1;"/><polygon fill="#333333" points="579,344.0469,583,335.0469,579,339.0469,575,335.0469,579,344.0469" style="stroke:#333333;stroke-width:1;stroke-linejoin:miter;stroke-miterlimit:10;"/></g><!--link RT to CS--><g class="link" data-entity-1="ent0009" data-entity-2="ent0010" data-link-type="dependency" data-source-line="71" id="lnk34"><path d="M567.5,407.3169 C567.5,428.3669 567.5,450.9469 567.5,472.0469" fill="none" id="RT-to-CS" style="stroke:#333333;stroke-width:1;"/><polygon fill="#333333" points="567.5,477.0469,571.5,468.0469,567.5,472.0469,563.5,468.0469,567.5,477.0469" style="stroke:#333333;stroke-width:1;stroke-linejoin:miter;stroke-miterlimit:10;"/></g><!--link RT to AIE--><g class="link" data-entity-1="ent0009" data-entity-2="ent0013" data-link-type="dependency" data-source-line="72" id="lnk35"><path d="M727.69,376.2969 C805.52,376.2969 902,376.2969 902,376.2969 C902,376.2969 902,432.8569 902,472.0569" fill="none" id="RT-to-AIE" style="stroke:#333333;stroke-width:1;"/><polygon fill="#333333" points="902,477.0569,906,468.0569,902,472.0569,898,468.0569,902,477.0569" style="stroke:#333333;stroke-width:1;stroke-linejoin:miter;stroke-miterlimit:10;"/></g><!--link RT to PROX--><g class="link" data-entity-1="ent0009" data-entity-2="ent0012" data-link-type="dependency" data-source-line="73" id="lnk36"><path d="M696.83,407.3169 C696.83,428.3669 696.83,450.9469 696.83,472.0469" fill="none" id="RT-to-PROX" style="stroke:#333333;stroke-width:1;"/><polygon fill="#333333" points="696.83,477.0469,700.83,468.0469,696.83,472.0469,692.83,468.0469,696.83,477.0469" style="stroke:#333333;stroke-width:1;stroke-linejoin:miter;stroke-miterlimit:10;"/></g><!--link CS to STG--><g class="link" data-entity-1="ent0010" data-entity-2="ent0011" data-link-type="dependency" data-source-line="74" id="lnk37"><path d="M521,540.3169 C521,561.3669 521,583.9469 521,605.0469" fill="none" id="CS-to-STG" style="stroke:#333333;stroke-width:1;"/><polygon fill="#333333" points="521,610.0469,525,601.0469,521,605.0469,517,601.0469,521,610.0469" style="stroke:#333333;stroke-width:1;stroke-linejoin:miter;stroke-miterlimit:10;"/></g><!--reverse link STORE to STG--><g class="link" data-entity-1="ent0015" data-entity-2="ent0011" data-link-type="dependency" data-source-line="77" id="lnk39"><path d="M401.6,642.2969 C422.62,642.2969 438.89,642.2969 457.75,642.2969" fill="none" id="STORE-backto-STG" style="stroke:#333333;stroke-width:1;"/><polygon fill="#333333" points="396.6,642.2969,405.6,646.2969,401.6,642.2969,405.6,638.2969,396.6,642.2969" style="stroke:#333333;stroke-width:1;stroke-linejoin:miter;stroke-miterlimit:10;"/></g><!--link STORE to FSS--><g class="link" data-entity-1="ent0015" data-entity-2="ent0016" data-link-type="dependency" data-source-line="78" id="lnk40"><path d="M284,672.9769 C284,694.0169 284,716.6969 284,737.8869" fill="none" id="STORE-to-FSS" style="stroke:#333333;stroke-width:1;"/><polygon fill="#333333" points="284,742.8869,288,733.8869,284,737.8869,280,733.8869,284,742.8869" style="stroke:#333333;stroke-width:1;stroke-linejoin:miter;stroke-miterlimit:10;"/></g><!--link PROX to RLY--><g class="link" data-entity-1="ent0012" data-entity-2="ent0018" data-link-type="dependency" data-source-line="81" id="lnk41"><path d="M738.83,540.4369 C738.83,579.9169 738.83,642.2969 738.83,642.2969 C738.83,642.2969 921.42,642.2969 1030.24,642.2969" fill="none" id="PROX-to-RLY" style="stroke:#333333;stroke-width:1;"/><polygon fill="#333333" points="1035.24,642.2969,1026.24,638.2969,1030.24,642.2969,1026.24,646.2969,1035.24,642.2969" style="stroke:#333333;stroke-width:1;stroke-linejoin:miter;stroke-miterlimit:10;"/><text fill="#000000" font-family="sans-serif" font-size="13" lengthAdjust="spacing" textLength="84.5698" x="751.1" y="638.3638">Azure egress</text></g><!--link RLY to TG--><g class="link" data-entity-1="ent0018" data-entity-2="ent0019" data-link-type="dependency" data-source-line="82" id="lnk42"><path d="M1111,673.3169 C1111,694.3669 1111,716.9469 1111,738.0469" fill="none" id="RLY-to-TG" style="stroke:#333333;stroke-width:1;"/><polygon fill="#333333" points="1111,743.0469,1115,734.0469,1111,738.0469,1107,734.0469,1111,743.0469" style="stroke:#333333;stroke-width:1;stroke-linejoin:miter;stroke-miterlimit:10;"/></g><!--link PROX to JR--><g class="link" data-entity-1="ent0012" data-entity-2="ent0020" data-link-type="dependency" data-source-line="83" id="lnk43"><path d="M687.17,540.4869 C687.17,557.6169 687.17,575.2969 687.17,575.2969 C687.17,575.2969 1295,575.2969 1295,575.2969 C1295,575.2969 1295,587.9769 1295,605.1069" fill="none" id="PROX-to-JR" style="stroke:#333333;stroke-width:1;"/><polygon fill="#333333" points="1295,610.1069,1299,601.1069,1295,605.1069,1291,601.1069,1295,610.1069" style="stroke:#333333;stroke-width:1;stroke-linejoin:miter;stroke-miterlimit:10;"/></g><!--link AIE to CL--><g class="link" data-entity-1="ent0013" data-entity-2="ent0022" data-link-type="dependency" data-source-line="84" id="lnk44"><path d="M978.63,493.2969 C1197.54,493.2969 1810,493.2969 1810,493.2969 C1810,493.2969 1810,571.8269 1810,613.5969" fill="none" id="AIE-to-CL" style="stroke:#333333;stroke-width:1;"/><polygon fill="#333333" points="1810,618.5969,1814,609.5969,1810,613.5969,1806,609.5969,1810,618.5969" style="stroke:#333333;stroke-width:1;stroke-linejoin:miter;stroke-miterlimit:10;"/></g><!--link AIE to OAI--><g class="link" data-entity-1="ent0013" data-entity-2="ent0023" data-link-type="dependency" data-source-line="85" id="lnk45"><path d="M978.78,509.2969 C1169.4,509.2969 1649,509.2969 1649,509.2969 C1649,509.2969 1649,575.7569 1649,613.7169" fill="none" id="AIE-to-OAI" style="stroke:#333333;stroke-width:1;"/><polygon fill="#333333" points="1649,618.7169,1653,609.7169,1649,613.7169,1645,609.7169,1649,618.7169" style="stroke:#333333;stroke-width:1;stroke-linejoin:miter;stroke-miterlimit:10;"/></g><!--link AIE to GEM--><g class="link" data-entity-1="ent0013" data-entity-2="ent0024" data-link-type="dependency" data-source-line="86" id="lnk46"><path d="M978.74,525.2969 C1139.32,525.2969 1496,525.2969 1496,525.2969 C1496,525.2969 1496,579.8269 1496,613.7769" fill="none" id="AIE-to-GEM" style="stroke:#333333;stroke-width:1;"/><polygon fill="#333333" points="1496,618.7769,1500,609.7769,1496,613.7769,1492,609.7769,1496,618.7769" style="stroke:#333333;stroke-width:1;stroke-linejoin:miter;stroke-miterlimit:10;"/></g><?plantuml-src RLNXRXf74Fv_Jp5oVzHETT3KmarJgT8P0IR20T-HjacfeZrkWGt7xcbtCT2gKXuYxzB_VPG-IMTcxrmGFakmx7pxpSottvozygM4f99x-FVp5yWEpiiD97Q-KbxE_TPAkEoQJMMqrFugYjnQwKfOiO5SpDTBQxQww9hIMFYgpyyHmgr4ONPABs4XIYUF8lE6CVC7JB_TbDyTHKkbfJzK4eprAtCKqAQGJbPmtJdQj4AlQVFxRvzB07z60BV65jBMPTxmGxjd3NJeB_hhYAT2Z5ZASvPN_3pB4cGuPaciDRiwVCtFKR0GNkJ2oJEYtgj-f_V3SyZJTfBhczieQYgzw5kZlTG5NBwLUz_wvE1bv-e2X8D-RyAD_FQBpE7T4DemMI4Tl8nlPdfdx7fHcXry0quLCXVsTphpRaW7KYdc7XwsqXwWCzENJjf7QS5vuUKLuz87mdtOuXQcTjvOwHZed38Q_laR2YiMtWNqXupGatj82b5vQH4v5MefiAGtoee0cjmdX5eglzhcSOuIOjgMTnmStDsYnFztJUfnqttXV38PKaQ7raDtxInQsGO9RXi96bZ6dSnqTvncT2OtnI4krKPvJeCGhfHrmij18cohef-e6XqWtHoM8OCCKu9twGRsdhZLNCwqSgOKddHmKcmOs6K5I2SilrKTPZeBwudmAqPaqm51VAtB9zG5Acls1CtIFkN-A9SeSn1aaev_9RnG7wLUuWHXcTOyubLQBXor21qDUoV2PPMS0-MMB52M1O4Qhy75F3JZ43VJzyAkSQOrkGJF76Ab2xb7anaTZa_7QO_AACrSb50ejuRsJ2T_q8kah_0sifMmGQj-bfrKWdQO6bEwYt3vzKLrIxCj5YKU0YjBWTrhe-D0E9m4qKVl2SaEccbHgHQBrb86TQkiUaINCZ0eIWu3fftf5otXIu4U5Rg5Bnr6lKbFoag6CAc53AKbmxgqHFkLDPMQ8vlO5Y57TqIXSILrCkIDSS8M6XX3PXp8ZT8gMBXtVvBevsx6_FXT9nWeVxVD8UrbKt9YRNmwz3N4-C2YcNM5NrQZuhGTuMp7yKyqa_KAvorzu1KDrTbftC_h-Ma3tlKv5OtAwr186mLkluYGA12Yxp34kzK60pYP71ZSuNOzjN6XBFutUShSP3ijcv9mtTCedV8AfwHUaMth9Jkzc_6QXgGX9OU6Dyzhg4gSo0Ay0R-ICEhrfs0Ml6vISqOy3d4f5vwfoBhyoTHapuOQhUd9clXAyH1wAG-GItfV4YdFvOzO93Gpv-heqpY6XAmMzpXwZ_846uSfZcYBGjZI4mozY9q7BKPFIx9KioON_GS0?></g></svg>