<svg xmlns="http://www.w3.org/2000/svg" xmlns:xlink="http://www.w3.org/1999/xlink" contentStyleType="text/css" data-diagram-type="DESCRIPTION" height="869px" preserveAspectRatio="none" style="width:2125px;height:869px;background:#FFFFFF;" version="1.1" viewBox="0 0 2125 869" width="2125px" zoomAndPan="magnify"><?plantuml 1.2026.6?><defs/><g><g class="title" data-source-line="2"><text fill="#000000" font-family="sans-serif" font-size="14" font-weight="700" lengthAdjust="spacing" textLength="332.582" x="836.709" y="22.9951">Apex &#8212; System Architecture (Component)</text></g><!--cluster Frontend (Next.js 15)--><g class="cluster" data-qualified-name="Frontend .Next.js 15." data-source-line="19" id="ent0001"><path d="M16.5,41.2969 L187.1406,41.2969 A3.75,3.75 0 0 1 189.6406,43.7969 L196.6406,63.5938 L525.5,63.5938 A2.5,2.5 0 0 1 528,66.0938 L528,389.7969 A2.5,2.5 0 0 1 525.5,392.2969 L16.5,392.2969 A2.5,2.5 0 0 1 14,389.7969 L14,43.7969 A2.5,2.5 0 0 1 16.5,41.2969" fill="#FFFFFF" style="stroke:#888888;stroke-width:1.5;"/><line style="stroke:#888888;stroke-width:1.5;" x1="14" x2="196.6406" y1="63.5938" y2="63.5938"/><text fill="#000000" font-family="sans-serif" font-size="14" font-weight="700" lengthAdjust="spacing" textLength="169.6406" x="18" y="56.292">Frontend (Next.js 15)</text></g><!--cluster Backend (FastAPI ? single writer)--><g class="cluster" data-qualified-name="Backend .FastAPI . single writer." data-source-line="27" id="ent0007"><path d="M702.5,176.2969 L963.8057,176.2969 A3.75,3.75 0 0 1 966.3057,178.7969 L973.3057,198.5938 L1205.5,198.5938 A2.5,2.5 0 0 1 1208,201.0938 L1208,642.7969 A2.5,2.5 0 0 1 1205.5,645.2969 L702.5,645.2969 A2.5,2.5 0 0 1 700,642.7969 L700,178.7969 A2.5,2.5 0 0 1 702.5,176.2969" fill="#FFFFFF" style="stroke:#888888;stroke-width:1.5;"/><line style="stroke:#888888;stroke-width:1.5;" x1="700" x2="973.3057" y1="198.5938" y2="198.5938"/><text fill="#000000" font-family="sans-serif" font-size="14" font-weight="700" lengthAdjust="spacing" textLength="260.3057" x="704" y="191.292">Backend (FastAPI &#183; single writer)</text></g><!--cluster AI Providers--><g class="cluster" data-qualified-name="AI Providers" data-source-line="36" id="ent0014"><path d="M1218.5,555.7969 L1315.8799,555.7969 A3.75,3.75 0 0 1 1318.3799,558.2969 L1325.3799,578.0938 L1662.5,578.0938 A2.5,2.5 0 0 1 1665,580.5938 L1665,634.2969 A2.5,2.5 0 0 1 1662.5,636.7969 L1218.5,636.7969 A2.5,2.5 0 0 1 1216,634.2969 L1216,558.2969 A2.5,2.5 0 0 1 1218.5,555.7969" fill="#FFFFFF" style="stroke:#888888;stroke-width:1.5;"/><line style="stroke:#888888;stroke-width:1.5;" x1="1216" x2="1325.3799" y1="578.0938" y2="578.0938"/><text fill="#000000" font-family="sans-serif" font-size="14" font-weight="700" lengthAdjust="spacing" textLength="96.3799" x="1220" y="570.792">AI Providers</text></g><!--cluster PM Tools--><g class="cluster" data-qualified-name="PM Tools" data-source-line="42" id="ent0018"><path d="M1675.5,547.2969 L1747.4844,547.2969 A3.75,3.75 0 0 1 1749.9844,549.7969 L1756.9844,569.5938 L2002.5,569.5938 A2.5,2.5 0 0 1 2005,572.0938 L2005,759.2969 A2.5,2.5 0 0 1 2002.5,761.7969 L1675.5,761.7969 A2.5,2.5 0 0 1 1673,759.2969 L1673,549.7969 A2.5,2.5 0 0 1 1675.5,547.2969" fill="#FFFFFF" style="stroke:#888888;stroke-width:1.5;"/><line style="stroke:#888888;stroke-width:1.5;" x1="1673" x2="1756.9844" y1="569.5938" y2="569.5938"/><text fill="#000000" font-family="sans-serif" font-size="14" font-weight="700" lengthAdjust="spacing" textLength="70.9844" x="1677" y="562.292">PM Tools</text></g><!--cluster Spec Store--><g class="cluster" data-qualified-name="Spec Store" data-source-line="48" id="ent0022"><path d="M663.5,664.2969 L750.0654,664.2969 A3.75,3.75 0 0 1 752.5654,666.7969 L759.5654,686.5938 L900.5,686.5938 A2.5,2.5 0 0 1 903,689.0938 L903,859.2969 A2.5,2.5 0 0 1 900.5,861.7969 L663.5,861.7969 A2.5,2.5 0 0 1 661,859.2969 L661,666.7969 A2.5,2.5 0 0 1 663.5,664.2969" fill="#FFFFFF" style="stroke:#888888;stroke-width:1.5;"/><line style="stroke:#888888;stroke-width:1.5;" x1="661" x2="759.5654" y1="686.5938" y2="686.5938"/><text fill="#000000" font-family="sans-serif" font-size="14" font-weight="700" lengthAdjust="spacing" textLength="85.5654" x="665" y="679.292">Spec Store</text></g><!--entity GH--><g class="entity" data-qualified-name="GH" data-source-line="53" id="ent0025"><rect fill="#F5F5F5" height="46.2969" rx="2.5" ry="2.5" style="stroke:#666666;stroke-width:0.5;" width="155.5752" x="536" y="329.7969"/><rect fill="#F5F5F5" height="10" style="stroke:#666666;stroke-width:0.5;" width="15" x="671.5752" y="334.7969"/><rect fill="#F5F5F5" height="2" style="stroke:#666666;stroke-width:0.5;" width="4" x="669.5752" y="336.7969"/><rect fill="#F5F5F5" height="2" style="stroke:#666666;stroke-width:0.5;" width="4" x="669.5752" y="340.7969"/><text fill="#000000" font-family="sans-serif" font-size="14" lengthAdjust="spacing" textLength="115.5752" x="551" y="362.792">GitHub REST API</text></g><!--entity UI--><g class="entity" data-qualified-name="Frontend .Next.js 15..UI" data-source-line="20" id="ent0002"><rect fill="#F5F5F5" height="62.5938" rx="2.5" ry="2.5" style="stroke:#666666;stroke-width:0.5;" width="175.249" x="263.5" y="68.2969"/><rect fill="#F5F5F5" height="10" style="stroke:#666666;stroke-width:0.5;" width="15" x="418.749" y="73.2969"/><rect fill="#F5F5F5" height="2" style="stroke:#666666;stroke-width:0.5;" width="4" x="416.749" y="75.2969"/><rect fill="#F5F5F5" height="2" style="stroke:#666666;stroke-width:0.5;" width="4" x="416.749" y="79.2969"/><text fill="#000000" font-family="sans-serif" font-size="14" lengthAdjust="spacing" textLength="132.9043" x="278.5" y="101.292">Web UI / Phase 1-6</text><text fill="#000000" font-family="sans-serif" font-size="14" lengthAdjust="spacing" textLength="135.249" x="278.5" y="117.5889">workflow + sidebar</text></g><!--entity RQ--><g class="entity" data-qualified-name="Frontend .Next.js 15..RQ" data-source-line="21" id="ent0003"><rect fill="#F5F5F5" height="62.5938" rx="2.5" ry="2.5" style="stroke:#666666;stroke-width:0.5;" width="140.4609" x="22" y="203.2969"/><rect fill="#F5F5F5" height="10" style="stroke:#666666;stroke-width:0.5;" width="15" x="142.4609" y="208.2969"/><rect fill="#F5F5F5" height="2" style="stroke:#666666;stroke-width:0.5;" width="4" x="140.4609" y="210.2969"/><rect fill="#F5F5F5" height="2" style="stroke:#666666;stroke-width:0.5;" width="4" x="140.4609" y="214.2969"/><text fill="#000000" font-family="sans-serif" font-size="14" lengthAdjust="spacing" textLength="100.4609" x="37" y="236.292">React Query 5</text><text fill="#000000" font-family="sans-serif" font-size="14" lengthAdjust="spacing" textLength="95.1563" x="37" y="252.5889">(server state)</text></g><!--entity ZS--><g class="entity" data-qualified-name="Frontend .Next.js 15..ZS" data-source-line="22" id="ent0004"><rect fill="#F5F5F5" height="62.5938" rx="2.5" ry="2.5" style="stroke:#666666;stroke-width:0.5;" width="157.0313" x="362.5" y="203.2969"/><rect fill="#F5F5F5" height="10" style="stroke:#666666;stroke-width:0.5;" width="15" x="499.5313" y="208.2969"/><rect fill="#F5F5F5" height="2" style="stroke:#666666;stroke-width:0.5;" width="4" x="497.5313" y="210.2969"/><rect fill="#F5F5F5" height="2" style="stroke:#666666;stroke-width:0.5;" width="4" x="497.5313" y="214.2969"/><text fill="#000000" font-family="sans-serif" font-size="14" lengthAdjust="spacing" textLength="105.0479" x="377.5" y="236.292">Zustand stores</text><text fill="#000000" font-family="sans-serif" font-size="14" lengthAdjust="spacing" textLength="117.0313" x="377.5" y="252.5889">(session &#183; drafts)</text></g><!--entity PMA--><g class="entity" data-qualified-name="Frontend .Next.js 15..PMA" data-source-line="23" id="ent0005"><rect fill="#F5F5F5" height="62.5938" rx="2.5" ry="2.5" style="stroke:#666666;stroke-width:0.5;" width="125.3809" x="301.5" y="321.2969"/><rect fill="#F5F5F5" height="10" style="stroke:#666666;stroke-width:0.5;" width="15" x="406.8809" y="326.2969"/><rect fill="#F5F5F5" height="2" style="stroke:#666666;stroke-width:0.5;" width="4" x="404.8809" y="328.2969"/><rect fill="#F5F5F5" height="2" style="stroke:#666666;stroke-width:0.5;" width="4" x="404.8809" y="332.2969"/><text fill="#000000" font-family="sans-serif" font-size="14" lengthAdjust="spacing" textLength="80.7598" x="316.5" y="354.292">PM Adapter</text><text fill="#000000" font-family="sans-serif" font-size="14" lengthAdjust="spacing" textLength="85.3809" x="316.5" y="370.5889">(Taiga / Jira)</text></g><!--entity GHB--><g class="entity" data-qualified-name="Frontend .Next.js 15..GHB" data-source-line="24" id="ent0006"><rect fill="#F5F5F5" height="46.2969" rx="2.5" ry="2.5" style="stroke:#666666;stroke-width:0.5;" width="163.5049" x="180" y="211.7969"/><rect fill="#F5F5F5" height="10" style="stroke:#666666;stroke-width:0.5;" width="15" x="323.5049" y="216.7969"/><rect fill="#F5F5F5" height="2" style="stroke:#666666;stroke-width:0.5;" width="4" x="321.5049" y="218.7969"/><rect fill="#F5F5F5" height="2" style="stroke:#666666;stroke-width:0.5;" width="4" x="321.5049" y="222.7969"/><text fill="#000000" font-family="sans-serif" font-size="14" lengthAdjust="spacing" textLength="123.5049" x="195" y="244.792">github-browser.ts</text></g><!--entity API--><g class="entity" data-qualified-name="Backend .FastAPI . single writer..API" data-source-line="28" id="ent0008"><rect fill="#F5F5F5" height="62.5938" rx="2.5" ry="2.5" style="stroke:#666666;stroke-width:0.5;" width="163.2314" x="716.5" y="203.2969"/><rect fill="#F5F5F5" height="10" style="stroke:#666666;stroke-width:0.5;" width="15" x="859.7314" y="208.2969"/><rect fill="#F5F5F5" height="2" style="stroke:#666666;stroke-width:0.5;" width="4" x="857.7314" y="210.2969"/><rect fill="#F5F5F5" height="2" style="stroke:#666666;stroke-width:0.5;" width="4" x="857.7314" y="214.2969"/><text fill="#000000" font-family="sans-serif" font-size="14" lengthAdjust="spacing" textLength="101.9238" x="731.5" y="236.292">FastAPI Server</text><text fill="#000000" font-family="sans-serif" font-size="14" lengthAdjust="spacing" textLength="123.2314" x="731.5" y="252.5889">CORS &#183; body-limit</text></g><!--entity RT--><g class="entity" data-qualified-name="Backend .FastAPI . single writer..RT" data-source-line="29" id="ent0009"><rect fill="#F5F5F5" height="62.5938" rx="2.5" ry="2.5" style="stroke:#666666;stroke-width:0.5;" width="193.4121" x="746.5" y="321.2969"/><rect fill="#F5F5F5" height="10" style="stroke:#666666;stroke-width:0.5;" width="15" x="919.9121" y="326.2969"/><rect fill="#F5F5F5" height="2" style="stroke:#666666;stroke-width:0.5;" width="4" x="917.9121" y="328.2969"/><rect fill="#F5F5F5" height="2" style="stroke:#666666;stroke-width:0.5;" width="4" x="917.9121" y="332.2969"/><text fill="#000000" font-family="sans-serif" font-size="14" lengthAdjust="spacing" textLength="96.5986" x="761.5" y="354.292">Phase routers</text><text fill="#000000" font-family="sans-serif" font-size="14" lengthAdjust="spacing" textLength="153.4121" x="761.5" y="370.5889">phase1-6 &#183; workspace</text></g><!--entity CS--><g class="entity" data-qualified-name="Backend .FastAPI . single writer..CS" data-source-line="30" id="ent0010"><rect fill="#F5F5F5" height="62.5938" rx="2.5" ry="2.5" style="stroke:#666666;stroke-width:0.5;" width="146.832" x="708.5" y="439.2969"/><rect fill="#F5F5F5" height="10" style="stroke:#666666;stroke-width:0.5;" width="15" x="835.332" y="444.2969"/><rect fill="#F5F5F5" height="2" style="stroke:#666666;stroke-width:0.5;" width="4" x="833.332" y="446.2969"/><rect fill="#F5F5F5" height="2" style="stroke:#666666;stroke-width:0.5;" width="4" x="833.332" y="450.2969"/><text fill="#000000" font-family="sans-serif" font-size="14" lengthAdjust="spacing" textLength="106.832" x="723.5" y="472.292">ContextService</text><text fill="#000000" font-family="sans-serif" font-size="14" lengthAdjust="spacing" textLength="101.6094" x="723.5" y="488.5889">isolation seam</text></g><!--entity AIE--><g class="entity" data-qualified-name="Backend .FastAPI . single writer..AIE" data-source-line="31" id="ent0011"><rect fill="#F5F5F5" height="62.5938" rx="2.5" ry="2.5" style="stroke:#666666;stroke-width:0.5;" width="153.4219" x="873.5" y="439.2969"/><rect fill="#F5F5F5" height="10" style="stroke:#666666;stroke-width:0.5;" width="15" x="1006.9219" y="444.2969"/><rect fill="#F5F5F5" height="2" style="stroke:#666666;stroke-width:0.5;" width="4" x="1004.9219" y="446.2969"/><rect fill="#F5F5F5" height="2" style="stroke:#666666;stroke-width:0.5;" width="4" x="1004.9219" y="450.2969"/><text fill="#000000" font-family="sans-serif" font-size="14" lengthAdjust="spacing" textLength="67.2178" x="888.5" y="472.292">ai_engine</text><text fill="#000000" font-family="sans-serif" font-size="14" lengthAdjust="spacing" textLength="113.4219" x="888.5" y="488.5889">provider routing</text></g><!--entity PROX--><g class="entity" data-qualified-name="Backend .FastAPI . single writer..PROX" data-source-line="32" id="ent0012"><rect fill="#F5F5F5" height="62.5938" rx="2.5" ry="2.5" style="stroke:#666666;stroke-width:0.5;" width="155.3838" x="1044.5" y="439.2969"/><rect fill="#F5F5F5" height="10" style="stroke:#666666;stroke-width:0.5;" width="15" x="1179.8838" y="444.2969"/><rect fill="#F5F5F5" height="2" style="stroke:#666666;stroke-width:0.5;" width="4" x="1177.8838" y="446.2969"/><rect fill="#F5F5F5" height="2" style="stroke:#666666;stroke-width:0.5;" width="4" x="1177.8838" y="450.2969"/><text fill="#000000" font-family="sans-serif" font-size="14" lengthAdjust="spacing" textLength="115.3838" x="1059.5" y="472.292">taiga / jira proxy</text><text fill="#000000" font-family="sans-serif" font-size="14" lengthAdjust="spacing" textLength="102.3613" x="1059.5" y="488.5889">SSRF &#183; _egress</text></g><!--entity STG--><g class="entity" data-qualified-name="Backend .FastAPI . single writer..STG" data-source-line="33" id="ent0013"><rect fill="#F5F5F5" height="62.5938" rx="2.5" ry="2.5" style="stroke:#666666;stroke-width:0.5;" width="126.1602" x="719" y="574.2969"/><rect fill="#F5F5F5" height="10" style="stroke:#666666;stroke-width:0.5;" width="15" x="825.1602" y="579.2969"/><rect fill="#F5F5F5" height="2" style="stroke:#666666;stroke-width:0.5;" width="4" x="823.1602" y="581.2969"/><rect fill="#F5F5F5" height="2" style="stroke:#666666;stroke-width:0.5;" width="4" x="823.1602" y="585.2969"/><text fill="#000000" font-family="sans-serif" font-size="14" lengthAdjust="spacing" textLength="74.8057" x="734" y="607.292">storage.py</text><text fill="#000000" font-family="sans-serif" font-size="14" lengthAdjust="spacing" textLength="86.1602" x="734" y="623.5889">StoragePath</text></g><!--entity CL--><g class="entity" data-qualified-name="AI Providers.CL" data-source-line="37" id="ent0015"><rect fill="#F5F5F5" height="46.2969" rx="2.5" ry="2.5" style="stroke:#666666;stroke-width:0.5;" width="160.6748" x="1386.5" y="582.7969"/><rect fill="#F5F5F5" height="10" style="stroke:#666666;stroke-width:0.5;" width="15" x="1527.1748" y="587.7969"/><rect fill="#F5F5F5" height="2" style="stroke:#666666;stroke-width:0.5;" width="4" x="1525.1748" y="589.7969"/><rect fill="#F5F5F5" height="2" style="stroke:#666666;stroke-width:0.5;" width="4" x="1525.1748" y="593.7969"/><text fill="#000000" font-family="sans-serif" font-size="14" lengthAdjust="spacing" textLength="120.6748" x="1401.5" y="615.792">Anthropic Claude</text></g><!--entity OAI--><g class="entity" data-qualified-name="AI Providers.OAI" data-source-line="38" id="ent0016"><rect fill="#F5F5F5" height="46.2969" rx="2.5" ry="2.5" style="stroke:#666666;stroke-width:0.5;" width="91.0986" x="1565.5" y="582.7969"/><rect fill="#F5F5F5" height="10" style="stroke:#666666;stroke-width:0.5;" width="15" x="1636.5986" y="587.7969"/><rect fill="#F5F5F5" height="2" style="stroke:#666666;stroke-width:0.5;" width="4" x="1634.5986" y="589.7969"/><rect fill="#F5F5F5" height="2" style="stroke:#666666;stroke-width:0.5;" width="4" x="1634.5986" y="593.7969"/><text fill="#000000" font-family="sans-serif" font-size="14" lengthAdjust="spacing" textLength="51.0986" x="1580.5" y="615.792">OpenAI</text></g><!--entity GEM--><g class="entity" data-qualified-name="AI Providers.GEM" data-source-line="39" id="ent0017"><rect fill="#F5F5F5" height="46.2969" rx="2.5" ry="2.5" style="stroke:#666666;stroke-width:0.5;" width="143.5713" x="1224" y="582.7969"/><rect fill="#F5F5F5" height="10" style="stroke:#666666;stroke-width:0.5;" width="15" x="1347.5713" y="587.7969"/><rect fill="#F5F5F5" height="2" style="stroke:#666666;stroke-width:0.5;" width="4" x="1345.5713" y="589.7969"/><rect fill="#F5F5F5" height="2" style="stroke:#666666;stroke-width:0.5;" width="4" x="1345.5713" y="593.7969"/><text fill="#000000" font-family="sans-serif" font-size="14" lengthAdjust="spacing" textLength="103.5713" x="1239" y="615.792">Google Gemini</text></g><!--entity RLY--><g class="entity" data-qualified-name="PM Tools.RLY" data-source-line="43" id="ent0019"><rect fill="#F5F5F5" height="62.5938" rx="2.5" ry="2.5" style="stroke:#666666;stroke-width:0.5;" width="151.3301" x="1681.5" y="574.2969"/><rect fill="#F5F5F5" height="10" style="stroke:#666666;stroke-width:0.5;" width="15" x="1812.8301" y="579.2969"/><rect fill="#F5F5F5" height="2" style="stroke:#666666;stroke-width:0.5;" width="4" x="1810.8301" y="581.2969"/><rect fill="#F5F5F5" height="2" style="stroke:#666666;stroke-width:0.5;" width="4" x="1810.8301" y="585.2969"/><text fill="#000000" font-family="sans-serif" font-size="14" lengthAdjust="spacing" textLength="111.3301" x="1696.5" y="607.292">Cloudflare relay</text><text fill="#000000" font-family="sans-serif" font-size="14" lengthAdjust="spacing" textLength="88.5527" x="1696.5" y="623.5889">non-Azure IP</text></g><!--entity TG--><g class="entity" data-qualified-name="PM Tools.TG" data-source-line="44" id="ent0020"><rect fill="#F5F5F5" height="62.5938" rx="2.5" ry="2.5" style="stroke:#666666;stroke-width:0.5;" width="181.251" x="1748.5" y="690.7969"/><rect fill="#F5F5F5" height="10" style="stroke:#666666;stroke-width:0.5;" width="15" x="1909.751" y="695.7969"/><rect fill="#F5F5F5" height="2" style="stroke:#666666;stroke-width:0.5;" width="4" x="1907.751" y="697.7969"/><rect fill="#F5F5F5" height="2" style="stroke:#666666;stroke-width:0.5;" width="4" x="1907.751" y="701.7969"/><text fill="#000000" font-family="sans-serif" font-size="14" lengthAdjust="spacing" textLength="38.4863" x="1763.5" y="723.792">Taiga</text><text fill="#000000" font-family="sans-serif" font-size="14" lengthAdjust="spacing" textLength="141.251" x="1763.5" y="740.0889">api.taiga.io / private</text></g><!--entity JR--><g class="entity" data-qualified-name="PM Tools.JR" data-source-line="45" id="ent0021"><rect fill="#F5F5F5" height="62.5938" rx="2.5" ry="2.5" style="stroke:#666666;stroke-width:0.5;" width="146.3428" x="1851" y="574.2969"/><rect fill="#F5F5F5" height="10" style="stroke:#666666;stroke-width:0.5;" width="15" x="1977.3428" y="579.2969"/><rect fill="#F5F5F5" height="2" style="stroke:#666666;stroke-width:0.5;" width="4" x="1975.3428" y="581.2969"/><rect fill="#F5F5F5" height="2" style="stroke:#666666;stroke-width:0.5;" width="4" x="1975.3428" y="585.2969"/><text fill="#000000" font-family="sans-serif" font-size="14" lengthAdjust="spacing" textLength="66.7939" x="1866" y="607.292">Jira Cloud</text><ellipse cx="1871.5" cy="619.3906" fill="#000000" rx="2.5" ry="2.5"/><text fill="#000000" font-family="sans-serif" font-size="14" lengthAdjust="spacing" textLength="94.3428" x="1878" y="623.5889">.atlassian.net</text></g><!--entity STORE--><g class="entity" data-qualified-name="Spec Store.STORE" data-source-line="49" id="ent0023"><path d="M669.5,701.2969 C669.5,691.2969 781.9946,691.2969 781.9946,691.2969 C781.9946,691.2969 894.4893,691.2969 894.4893,701.2969 L894.4893,742.8906 C894.4893,752.8906 781.9946,752.8906 781.9946,752.8906 C781.9946,752.8906 669.5,752.8906 669.5,742.8906 L669.5,701.2969" fill="#E8F5E9" style="stroke:#66A36B;stroke-width:0.5;"/><path d="M669.5,701.2969 C669.5,711.2969 781.9946,711.2969 781.9946,711.2969 C781.9946,711.2969 894.4893,711.2969 894.4893,701.2969" fill="none" style="stroke:#66A36B;stroke-width:0.5;"/><text fill="#000000" font-family="sans-serif" font-size="14" lengthAdjust="spacing" textLength="85.5039" x="679.5" y="728.292">contextspec</text><text fill="#000000" font-family="sans-serif" font-size="14" lengthAdjust="spacing" textLength="204.9893" x="679.5" y="744.5889">Markdown + story-index.json</text></g><!--entity FSS--><g class="entity" data-qualified-name="Spec Store.FSS" data-source-line="50" id="ent0024"><rect fill="#F5F5F5" height="62.5938" rx="2.5" ry="2.5" style="stroke:#666666;stroke-width:0.5;" width="154.2217" x="705" y="790.7969"/><rect fill="#F5F5F5" height="10" style="stroke:#666666;stroke-width:0.5;" width="15" x="839.2217" y="795.7969"/><rect fill="#F5F5F5" height="2" style="stroke:#666666;stroke-width:0.5;" width="4" x="837.2217" y="797.7969"/><rect fill="#F5F5F5" height="2" style="stroke:#666666;stroke-width:0.5;" width="4" x="837.2217" y="801.7969"/><text fill="#000000" font-family="sans-serif" font-size="14" lengthAdjust="spacing" textLength="74.416" x="720" y="823.792">local disk /</text><text fill="#000000" font-family="sans-serif" font-size="14" lengthAdjust="spacing" textLength="114.2217" x="720" y="840.0889">Azure File Share</text></g><g class="link" data-entity-1="ent0002" data-entity-2="ent0003" data-link-type="dependency" id="lnk26"><polygon fill="#333333" points="130.1791,203.2658,139.7937,201.1307,134.1993,200.2929,135.037,194.6984,130.1791,203.2658" style="stroke:#333333;stroke-width:1;stroke-linejoin:miter;stroke-miterlimit:10;"/><path d="M266.6472,131.4681 C235.8054,143.8947 201.1132,159.3275 171,176.2969 C157.1081,184.1252 146.787,190.9842 134.1993,200.2929" fill="none" style="stroke:#333333;stroke-width:1;"/></g><g class="link" data-entity-1="ent0003" data-entity-2="ent0005" data-link-type="dependency" id="lnk27"><polygon fill="#333333" points="301.1573,324.9963,294.4479,317.7864,296.5581,323.0349,291.3096,325.1451,301.1573,324.9963" style="stroke:#333333;stroke-width:1;stroke-linejoin:miter;stroke-miterlimit:10;"/><path d="M162.0468,265.6698 C205.0185,283.9959 254.9821,305.304 296.5581,323.0349" fill="none" style="stroke:#333333;stroke-width:1;"/></g><g class="link" data-entity-1="ent0002" data-entity-2="ent0004" data-link-type="dependency" id="lnk28"><polygon fill="#333333" points="420.1366,202.9654,418.4055,193.2699,417.3344,198.8244,411.7799,197.7534,420.1366,202.9654" style="stroke:#333333;stroke-width:1;stroke-linejoin:miter;stroke-miterlimit:10;"/><path d="M371.6478,131.3098 C386.1789,152.7834 402.7557,177.2803 417.3344,198.8244" fill="none" style="stroke:#333333;stroke-width:1;"/></g><g class="link" data-entity-1="ent0002" data-entity-2="ent0006" data-link-type="dependency" id="lnk29"><polygon fill="#333333" points="276.7714,211.7227,285.1011,206.4675,279.5522,207.5673,278.4524,202.0183,276.7714,211.7227" style="stroke:#333333;stroke-width:1;stroke-linejoin:miter;stroke-miterlimit:10;"/><path d="M330.5816,131.3098 C314.1592,155.8511 294.2558,185.5944 279.5522,207.5673" fill="none" style="stroke:#333333;stroke-width:1;stroke-dasharray:7,7;"/></g><g class="link" data-entity-1="ent0005" data-entity-2="ent0012" data-link-type="dependency" id="lnk30"><polygon fill="#333333" points="1044.484,441.5652,1036.7732,435.438,1039.6435,440.3126,1034.7689,443.1828,1044.484,441.5652" style="stroke:#333333;stroke-width:1;stroke-linejoin:miter;stroke-miterlimit:10;"/><path d="M426.6729,370.7639 C456.8088,378.3653 493.5691,386.8297 527,392.2969 C638.8848,410.5941 924.2325,415.1403 1035,439.2969 C1038.1276,439.9789 1036.4569,439.4879 1039.6435,440.3126" fill="none" style="stroke:#333333;stroke-width:1;"/><text fill="#000000" font-family="sans-serif" font-size="13" lengthAdjust="spacing" textLength="60.3853" x="889" y="416.3638">/api/pm/*</text></g><g class="link" data-entity-1="ent0002" data-entity-2="ent0008" data-link-type="dependency" id="lnk31"><polygon fill="#333333" points="716.3459,209.5016,708.8604,203.101,711.5535,208.0757,706.5789,210.7688,716.3459,209.5016" style="stroke:#333333;stroke-width:1;stroke-linejoin:miter;stroke-miterlimit:10;"/><path d="M438.5132,126.8355 C519.0832,150.8082 632.8964,184.6721 711.5535,208.0757" fill="none" style="stroke:#333333;stroke-width:1;"/><text fill="#000000" font-family="sans-serif" font-size="13" lengthAdjust="spacing" textLength="72.6616" x="577" y="163.3638">REST /api/*</text></g><g class="link" data-entity-1="ent0008" data-entity-2="ent0009" data-link-type="dependency" id="lnk32"><polygon fill="#333333" points="831.1593,321.2742,831.6335,311.4368,829.351,316.6127,824.1751,314.3301,831.1593,321.2742" style="stroke:#333333;stroke-width:1;stroke-linejoin:miter;stroke-miterlimit:10;"/><path d="M809.941,266.5782 C816.5026,283.4925 822.8053,299.7394 829.351,316.6127" fill="none" style="stroke:#333333;stroke-width:1;"/></g><g class="link" data-entity-1="ent0009" data-entity-2="ent0010" data-link-type="dependency" id="lnk33"><polygon fill="#333333" points="798.0507,439.2742,805.7799,433.1702,800.3779,434.8488,798.6993,429.4467,798.0507,439.2742" style="stroke:#333333;stroke-width:1;stroke-linejoin:miter;stroke-miterlimit:10;"/><path d="M826.8133,384.5782 C817.9187,401.4925 809.2509,417.9755 800.3779,434.8488" fill="none" style="stroke:#333333;stroke-width:1;"/></g><g class="link" data-entity-1="ent0009" data-entity-2="ent0011" data-link-type="dependency" id="lnk34"><polygon fill="#333333" points="921.8455,439.2742,918.6835,429.9467,918.4554,435.599,912.8031,435.3709,921.8455,439.2742" style="stroke:#333333;stroke-width:1;stroke-linejoin:miter;stroke-miterlimit:10;"/><path d="M871.3931,384.5782 C886.9951,401.4925 902.8912,418.7257 918.4554,435.599" fill="none" style="stroke:#333333;stroke-width:1;"/></g><g class="link" data-entity-1="ent0009" data-entity-2="ent0012" data-link-type="dependency" id="lnk35"><polygon fill="#333333" points="1048.4024,439.1972,1041.6277,432.0485,1043.7856,437.2776,1038.5564,439.4354,1048.4024,439.1972" style="stroke:#333333;stroke-width:1;stroke-linejoin:miter;stroke-miterlimit:10;"/><path d="M916.6689,384.4262 C957.3529,401.3415 1003.1129,420.3671 1043.7856,437.2776" fill="none" style="stroke:#333333;stroke-width:1;"/></g><g class="link" data-entity-1="ent0010" data-entity-2="ent0013" data-link-type="dependency" id="lnk36"><polygon fill="#333333" points="782,573.9654,786,564.9654,782,568.9654,778,564.9654,782,573.9654" style="stroke:#333333;stroke-width:1;stroke-linejoin:miter;stroke-miterlimit:10;"/><path d="M782,502.3098 C782,523.7834 782,547.4213 782,568.9654" fill="none" style="stroke:#333333;stroke-width:1;"/></g><g class="link" data-entity-1="ent0011" data-entity-2="ent0015" data-link-type="dependency" id="lnk37"><polygon fill="#333333" points="1440.5232,582.6221,1435.7522,574.0059,1436.5333,579.6086,1430.9306,580.3896,1440.5232,582.6221" style="stroke:#333333;stroke-width:1;stroke-linejoin:miter;stroke-miterlimit:10;"/><path d="M1026.7418,499.9291 C1029.5196,500.7573 1032.2786,501.55 1035,502.2969 C1075.5992,513.4391 1086.808,511.5984 1128,520.2969 C1165.0265,528.1157 1173.5094,534.1437 1211,539.2969 C1247.5877,544.326 1341.81,536.0889 1377,547.2969 C1400.3207,554.7245 1419.5303,566.7664 1436.5333,579.6086" fill="none" style="stroke:#333333;stroke-width:1;"/></g><g class="link" data-entity-1="ent0011" data-entity-2="ent0016" data-link-type="dependency" id="lnk38"><polygon fill="#333333" points="1596.503,582.638,1594.2412,573.0524,1593.4773,578.6575,1587.8723,577.8936,1596.503,582.638" style="stroke:#333333;stroke-width:1;stroke-linejoin:miter;stroke-miterlimit:10;"/><path d="M1026.6769,500.1834 C1029.473,500.9398 1032.2535,501.6481 1035,502.2969 C1100.3465,517.7333 1118.4097,511.6846 1185,520.2969 C1245.9639,528.1815 1260.7555,534.0174 1322,539.2969 C1347.9191,541.5312 1532.2553,536.6676 1556,547.2969 C1572.6431,554.7471 1583.7201,565.8212 1593.4773,578.6575" fill="none" style="stroke:#333333;stroke-width:1;"/></g><g class="link" data-entity-1="ent0011" data-entity-2="ent0017" data-link-type="dependency" id="lnk39"><polygon fill="#333333" points="1270.6281,582.556,1266.0671,573.8269,1266.7123,579.4468,1261.0924,580.0921,1270.6281,582.556" style="stroke:#333333;stroke-width:1;stroke-linejoin:miter;stroke-miterlimit:10;"/><path d="M1026.8967,499.4343 C1029.6306,500.4025 1032.3383,501.3592 1035,502.2969 C1082.4595,519.0166 1092.9315,528.1511 1142,539.2969 C1172.5358,546.233 1182.661,536.353 1212,547.2969 C1233.5258,555.3263 1250.9351,566.9194 1266.7123,579.4468" fill="none" style="stroke:#333333;stroke-width:1;"/></g><g class="link" data-entity-1="ent0012" data-entity-2="ent0019" data-link-type="dependency" id="lnk40"><polygon fill="#333333" points="1719.906,574.119,1714.8635,565.6589,1715.8224,571.2339,1710.2474,572.1927,1719.906,574.119" style="stroke:#333333;stroke-width:1;stroke-linejoin:miter;stroke-miterlimit:10;"/><path d="M1199.7704,492.2717 C1263.7621,508.1567 1357.0925,529.1283 1440,539.2969 C1490.5412,545.4957 1620.4585,531.9164 1669,547.2969 C1687.0935,553.0298 1700.9258,560.7094 1715.8224,571.2339" fill="none" style="stroke:#333333;stroke-width:1;"/><text fill="#000000" font-family="sans-serif" font-size="13" lengthAdjust="spacing" textLength="149.5889" x="1600" y="534.3638">Azure egress (blocked)</text></g><g class="link" data-entity-1="ent0019" data-entity-2="ent0020" data-link-type="dependency" id="lnk41"><polygon fill="#333333" points="1816.9648,690.5283,1814.9767,680.8822,1814.0536,686.4632,1808.4726,685.5401,1816.9648,690.5283" style="stroke:#333333;stroke-width:1;stroke-linejoin:miter;stroke-miterlimit:10;"/><path d="M1778.9745,637.4808 C1790.7397,653.909 1802.2792,670.0222 1814.0536,686.4632" fill="none" style="stroke:#333333;stroke-width:1;"/></g><g class="link" data-entity-1="ent0012" data-entity-2="ent0020" data-link-type="dependency" id="lnk42"><polygon fill="#333333" points="1929.8178,701.0365,1939.654,701.5343,1934.4836,699.2393,1936.7785,694.0689,1929.8178,701.0365" style="stroke:#333333;stroke-width:1;stroke-linejoin:miter;stroke-miterlimit:10;"/><path d="M1199.8427,472.4543 C1405.8474,475.0121 1953.1515,487.431 2006,547.2969 C2034.8252,579.9495 2029.5721,608.6712 2006,645.2969 C1988.6744,672.2169 1963.8803,687.9162 1934.4836,699.2393" fill="none" style="stroke:#333333;stroke-width:1;stroke-dasharray:7,7;"/><text fill="#000000" font-family="sans-serif" font-size="13" lengthAdjust="spacing" textLength="97.6904" x="2027" y="610.3638">direct (private)</text></g><g class="link" data-entity-1="ent0012" data-entity-2="ent0021" data-link-type="dependency" id="lnk43"><polygon fill="#333333" points="1888.7007,574.1862,1883.8867,565.594,1884.6958,571.1927,1879.0971,572.0018,1888.7007,574.1862" style="stroke:#333333;stroke-width:1;stroke-linejoin:miter;stroke-miterlimit:10;"/><path d="M1199.7177,474.9914 C1360.8347,482.4164 1725.9056,503.6281 1842,547.2969 C1858.5996,553.5408 1870.9842,560.9439 1884.6958,571.1927" fill="none" style="stroke:#333333;stroke-width:1;"/></g><g class="link" data-entity-1="ent0013" data-entity-2="ent0023" data-link-type="dependency" id="lnk44"><polygon fill="#333333" points="782,690.9253,786,681.9253,782,685.9253,778,681.9253,782,690.9253" style="stroke:#333333;stroke-width:1;stroke-linejoin:miter;stroke-miterlimit:10;"/><path d="M782,637.4808 C782,654.0415 782,669.4129 782,685.9253" fill="none" style="stroke:#333333;stroke-width:1;"/></g><g class="link" data-entity-1="ent0023" data-entity-2="ent0024" data-link-type="dependency" id="lnk45"><polygon fill="#333333" points="782,790.6869,786,781.6869,782,785.6869,778,781.6869,782,790.6869" style="stroke:#333333;stroke-width:1;stroke-linejoin:miter;stroke-miterlimit:10;"/><path d="M782,753.4998 C782,765.3101 782,773.8376 782,785.6869" fill="none" style="stroke:#333333;stroke-width:1;"/></g><g class="link" data-entity-1="ent0006" data-entity-2="ent0025" data-link-type="dependency" id="lnk46"><polygon fill="#333333" points="555.9144,329.718,548.818,322.8886,551.2141,328.0129,546.0898,330.409,555.9144,329.718" style="stroke:#333333;stroke-width:1;stroke-linejoin:miter;stroke-miterlimit:10;"/><path d="M327.0527,257.8224 C335.7649,260.7071 344.5919,263.5966 353,266.2969 C432.2401,291.7454 453.1865,294.5564 532,321.2969 C539.7672,323.9322 543.2058,325.1077 551.2141,328.0129" fill="none" style="stroke:#333333;stroke-width:1;stroke-dasharray:7,7;"/><text fill="#000000" font-family="sans-serif" font-size="13" lengthAdjust="spacing" textLength="94.4404" x="479" y="298.3638">browser-direct</text></g><?plantuml-src RLLHZzf647xthvXU7mfN0KgZEwLvYEH3G8Zk2cTJjKbSHOkzm0QpQ-sk3sXLgK_z0LN_Iz_xK_9BEZDh9z2xHOBnpkTlPhwTMRwgh5Zl19JYQ6eFRYUzq2BoofSIuaeUuDCVVqDwT5xk8BRvHdcP-zfAw0pDhZ9QQj-D8hTLkX9Mx60fyktQcbeNGrCQ2r-FUPqWt4OKPg_q6bQYTFB4axUCgJzY-7fNVlUK5twB06wCBQHjObppejr7qQ_e4_r-mbCXHgpbOvONl9va2JMSiiJMcdtZVixhn5a8BvR2oKT4enVZgz7tJo7FoucVNzz4KPlfnTWQxQKkeFE3FFZ-HmVFhheNNC7xd-GIVfp20EORv85dlUjCxutThagpXs_1gK8kXVq5X4COlP18aNkuhwKzmbMcEqxQ1sd1UU5bbt79FU7UrRY5CPqtLZe6EgUCXd__WSAAbNS1_IubzFmEua9KNbf4BeHQ2qpfZR8YWEPtCQ7Moc_gPM-9sc7OldVidBo-GMs_b4koSRLZuNmydr94Xms3FR6ts82shRtrfrn2feUp92NmqXJ7NgbsoZC_GZX55WYF0ncmdeeUKIvwWGHp65-6-XS47vBc1q_SAfUPLiwKmfC0JeeT0uTSkb0Vf5uhZPZAcWSKt78Kp3Y4duu8vXjHFg8eWC33CTDfcemf_WUvHes36lDazZFXINUKeryHBjXpuJUCIHUJCyNYASoRqAxH9jP-OqsbSXYMeYv2PSDRSiqggUCfRynYbcPY3AaxaJkbLJYJqTrP13pVXJ5bopuiJLsiIe4NWPLuUMHQ6zsBVwMROJeFAjw-9IJtGgP5fVgiG5yP5A6owW7xZO5O2-AeLu1fCttP5xuKs6r2zxKCX_WcESidhMGE98iC6RM311TvE3U7W4pV2Rl5sqRJ923us5Ewa0US8AClWf2pX4-dDBaeeL1k2uDCXqB62ZL9DrWaPp1EKqhX_KJvr_KIab6weDPgMZYAle4UBbYrmwhmnsfafUq8PxJNUqMpbTopHIFHRE88eTNll-9HU4JqwS-_-5ubcxdmrK21hG8lOO3Y3ghTuBBbevbu6H9at-LdpfRcF3V2StABA5cmXPtTMDIzZScTEKpPfWxyFodbYSgV4az7WUxsiqaTrzhKP5m31xzzYqa7vSCuG6U9nxALHJSY9u4mAhz0MYqcY2-KnJyaw3GDrVt2Xms3IJR9qYdpDp_JIQBIZUB8qbn8lS0M_GS0?></g></svg>