<svg xmlns="http://www.w3.org/2000/svg" xmlns:xlink="http://www.w3.org/1999/xlink" contentStyleType="text/css" data-diagram-type="DESCRIPTION" height="899px" preserveAspectRatio="none" style="width:1892px;height:899px;background:#FFFFFF;" version="1.1" viewBox="0 0 1892 899" width="1892px" zoomAndPan="magnify"><?plantuml 1.2026.6?><defs/><g><g class="title" data-source-line="1"><text fill="#000000" font-family="sans-serif" font-size="14" font-weight="700" lengthAdjust="spacing" textLength="332.582" x="776.209" y="22.9951">Apex &#8212; System Architecture (Component)</text></g><!--cluster FEP--><g class="cluster" data-qualified-name="FEP" data-source-line="21" id="ent0001"><path d="M8.5,43.2969 L179.1406,43.2969 A3.75,3.75 0 0 1 181.6406,45.7969 L188.6406,65.5938 L405.5,65.5938 A2.5,2.5 0 0 1 408,68.0938 L408,390.7969 A2.5,2.5 0 0 1 405.5,393.2969 L8.5,393.2969 A2.5,2.5 0 0 1 6,390.7969 L6,45.7969 A2.5,2.5 0 0 1 8.5,43.2969" fill="#FFFFFF" style="stroke:#888888;stroke-width:1.5;"/><line style="stroke:#888888;stroke-width:1.5;" x1="6" x2="188.6406" y1="65.5938" y2="65.5938"/><text fill="#000000" font-family="sans-serif" font-size="14" font-weight="700" lengthAdjust="spacing" textLength="169.6406" x="10" y="58.292">Frontend (Next.js 15)</text></g><!--cluster BEP--><g class="cluster" data-qualified-name="BEP" data-source-line="29" id="ent0007"><path d="M434.5,161.2969 L695.8057,161.2969 A3.75,3.75 0 0 1 698.3057,163.7969 L705.3057,183.5938 L977.5,183.5938 A2.5,2.5 0 0 1 980,186.0938 L980,626.7969 A2.5,2.5 0 0 1 977.5,629.2969 L434.5,629.2969 A2.5,2.5 0 0 1 432,626.7969 L432,163.7969 A2.5,2.5 0 0 1 434.5,161.2969" fill="#FFFFFF" style="stroke:#888888;stroke-width:1.5;"/><line style="stroke:#888888;stroke-width:1.5;" x1="432" x2="705.3057" y1="183.5938" y2="183.5938"/><text fill="#000000" font-family="sans-serif" font-size="14" font-weight="700" lengthAdjust="spacing" textLength="260.3057" x="436" y="176.292">Backend (FastAPI &#183; single writer)</text></g><!--cluster SSP--><g class="cluster" data-qualified-name="SSP" data-source-line="38" id="ent0014"><path d="M395.5,653.2969 L482.0654,653.2969 A3.75,3.75 0 0 1 484.5654,655.7969 L491.5654,675.5938 L648.5,675.5938 A2.5,2.5 0 0 1 651,678.0938 L651,882.2969 A2.5,2.5 0 0 1 648.5,884.7969 L395.5,884.7969 A2.5,2.5 0 0 1 393,882.2969 L393,655.7969 A2.5,2.5 0 0 1 395.5,653.2969" fill="#FFFFFF" style="stroke:#888888;stroke-width:1.5;"/><line style="stroke:#888888;stroke-width:1.5;" x1="393" x2="491.5654" y1="675.5938" y2="675.5938"/><text fill="#000000" font-family="sans-serif" font-size="14" font-weight="700" lengthAdjust="spacing" textLength="85.5654" x="397" y="668.292">Spec Store</text></g><!--cluster AIP--><g class="cluster" data-qualified-name="AIP" data-source-line="43" id="ent0017"><path d="M1006.5,523.7969 L1103.8799,523.7969 A3.75,3.75 0 0 1 1106.3799,526.2969 L1113.3799,546.0938 L1490.5,546.0938 A2.5,2.5 0 0 1 1493,548.5938 L1493,618.2969 A2.5,2.5 0 0 1 1490.5,620.7969 L1006.5,620.7969 A2.5,2.5 0 0 1 1004,618.2969 L1004,526.2969 A2.5,2.5 0 0 1 1006.5,523.7969" fill="#FFFFFF" style="stroke:#888888;stroke-width:1.5;"/><line style="stroke:#888888;stroke-width:1.5;" x1="1004" x2="1113.3799" y1="546.0938" y2="546.0938"/><text fill="#000000" font-family="sans-serif" font-size="14" font-weight="700" lengthAdjust="spacing" textLength="96.3799" x="1008" y="538.792">AI Providers</text></g><!--cluster PMP--><g class="cluster" data-qualified-name="PMP" data-source-line="49" id="ent0021"><path d="M1519.5,515.2969 L1591.4844,515.2969 A3.75,3.75 0 0 1 1593.9844,517.7969 L1600.9844,537.5938 L1874.5,537.5938 A2.5,2.5 0 0 1 1877,540.0938 L1877,764.2969 A2.5,2.5 0 0 1 1874.5,766.7969 L1519.5,766.7969 A2.5,2.5 0 0 1 1517,764.2969 L1517,517.7969 A2.5,2.5 0 0 1 1519.5,515.2969" fill="#FFFFFF" style="stroke:#888888;stroke-width:1.5;"/><line style="stroke:#888888;stroke-width:1.5;" x1="1517" x2="1600.9844" y1="537.5938" y2="537.5938"/><text fill="#000000" font-family="sans-serif" font-size="14" font-weight="700" lengthAdjust="spacing" textLength="70.9844" x="1521" y="530.292">PM Tools</text></g><!--cluster VCSP--><g class="cluster" data-qualified-name="VCSP" data-source-line="55" id="ent0025"><path d="M1006.5,169.7969 L1038.6924,169.7969 A3.75,3.75 0 0 1 1041.1924,172.2969 L1048.1924,192.0938 L1189.5,192.0938 A2.5,2.5 0 0 1 1192,194.5938 L1192,264.2969 A2.5,2.5 0 0 1 1189.5,266.7969 L1006.5,266.7969 A2.5,2.5 0 0 1 1004,264.2969 L1004,172.2969 A2.5,2.5 0 0 1 1006.5,169.7969" fill="#FFFFFF" style="stroke:#888888;stroke-width:1.5;"/><line style="stroke:#888888;stroke-width:1.5;" x1="1004" x2="1048.1924" y1="192.0938" y2="192.0938"/><text fill="#000000" font-family="sans-serif" font-size="14" font-weight="700" lengthAdjust="spacing" textLength="31.1924" x="1008" y="184.792">VCS</text></g><!--entity UI--><g class="entity" data-qualified-name="FEP.UI" data-source-line="22" id="ent0002"><rect fill="#F5F5F5" height="62.5938" rx="2.5" ry="2.5" style="stroke:#666666;stroke-width:0.5;" width="175.249" x="22.5" y="78.2969"/><rect fill="#F5F5F5" height="10" style="stroke:#666666;stroke-width:0.5;" width="15" x="177.749" y="83.2969"/><rect fill="#F5F5F5" height="2" style="stroke:#666666;stroke-width:0.5;" width="4" x="175.749" y="85.2969"/><rect fill="#F5F5F5" height="2" style="stroke:#666666;stroke-width:0.5;" width="4" x="175.749" y="89.2969"/><text fill="#000000" font-family="sans-serif" font-size="14" lengthAdjust="spacing" textLength="132.9043" x="37.5" y="111.292">Web UI / Phase 1-6</text><text fill="#000000" font-family="sans-serif" font-size="14" lengthAdjust="spacing" textLength="135.249" x="37.5" y="127.5889">workflow + sidebar</text></g><!--entity RQ--><g class="entity" data-qualified-name="FEP.RQ" data-source-line="23" id="ent0003"><rect fill="#F5F5F5" height="62.5938" rx="2.5" ry="2.5" style="stroke:#666666;stroke-width:0.5;" width="140.4609" x="40" y="196.2969"/><rect fill="#F5F5F5" height="10" style="stroke:#666666;stroke-width:0.5;" width="15" x="160.4609" y="201.2969"/><rect fill="#F5F5F5" height="2" style="stroke:#666666;stroke-width:0.5;" width="4" x="158.4609" y="203.2969"/><rect fill="#F5F5F5" height="2" style="stroke:#666666;stroke-width:0.5;" width="4" x="158.4609" y="207.2969"/><text fill="#000000" font-family="sans-serif" font-size="14" lengthAdjust="spacing" textLength="100.4609" x="55" y="229.292">React Query 5</text><text fill="#000000" font-family="sans-serif" font-size="14" lengthAdjust="spacing" textLength="95.1563" x="55" y="245.5889">(server state)</text></g><!--entity ZS--><g class="entity" data-qualified-name="FEP.ZS" data-source-line="24" id="ent0004"><rect fill="#F5F5F5" height="62.5938" rx="2.5" ry="2.5" style="stroke:#666666;stroke-width:0.5;" width="157.0313" x="210.5" y="196.2969"/><rect fill="#F5F5F5" height="10" style="stroke:#666666;stroke-width:0.5;" width="15" x="347.5313" y="201.2969"/><rect fill="#F5F5F5" height="2" style="stroke:#666666;stroke-width:0.5;" width="4" x="345.5313" y="203.2969"/><rect fill="#F5F5F5" height="2" style="stroke:#666666;stroke-width:0.5;" width="4" x="345.5313" y="207.2969"/><text fill="#000000" font-family="sans-serif" font-size="14" lengthAdjust="spacing" textLength="105.0479" x="225.5" y="229.292">Zustand stores</text><text fill="#000000" font-family="sans-serif" font-size="14" lengthAdjust="spacing" textLength="117.0313" x="225.5" y="245.5889">(session &#183; drafts)</text></g><!--entity PMA--><g class="entity" data-qualified-name="FEP.PMA" data-source-line="25" id="ent0005"><rect fill="#F5F5F5" height="62.5938" rx="2.5" ry="2.5" style="stroke:#666666;stroke-width:0.5;" width="125.3809" x="156.5" y="314.2969"/><rect fill="#F5F5F5" height="10" style="stroke:#666666;stroke-width:0.5;" width="15" x="261.8809" y="319.2969"/><rect fill="#F5F5F5" height="2" style="stroke:#666666;stroke-width:0.5;" width="4" x="259.8809" y="321.2969"/><rect fill="#F5F5F5" height="2" style="stroke:#666666;stroke-width:0.5;" width="4" x="259.8809" y="325.2969"/><text fill="#000000" font-family="sans-serif" font-size="14" lengthAdjust="spacing" textLength="80.7598" x="171.5" y="347.292">PM Adapter</text><text fill="#000000" font-family="sans-serif" font-size="14" lengthAdjust="spacing" textLength="85.3809" x="171.5" y="363.5889">(Taiga / Jira)</text></g><!--entity GHB--><g class="entity" data-qualified-name="FEP.GHB" data-source-line="26" id="ent0006"><rect fill="#F5F5F5" height="46.2969" rx="2.5" ry="2.5" style="stroke:#666666;stroke-width:0.5;" width="163.5049" x="228" y="86.7969"/><rect fill="#F5F5F5" height="10" style="stroke:#666666;stroke-width:0.5;" width="15" x="371.5049" y="91.7969"/><rect fill="#F5F5F5" height="2" style="stroke:#666666;stroke-width:0.5;" width="4" x="369.5049" y="93.7969"/><rect fill="#F5F5F5" height="2" style="stroke:#666666;stroke-width:0.5;" width="4" x="369.5049" y="97.7969"/><text fill="#000000" font-family="sans-serif" font-size="14" lengthAdjust="spacing" textLength="123.5049" x="243" y="119.792">github-browser.ts</text></g><!--entity API--><g class="entity" data-qualified-name="BEP.API" data-source-line="30" id="ent0008"><rect fill="#F5F5F5" height="62.5938" rx="2.5" ry="2.5" style="stroke:#666666;stroke-width:0.5;" width="163.2314" x="455.5" y="196.2969"/><rect fill="#F5F5F5" height="10" style="stroke:#666666;stroke-width:0.5;" width="15" x="598.7314" y="201.2969"/><rect fill="#F5F5F5" height="2" style="stroke:#666666;stroke-width:0.5;" width="4" x="596.7314" y="203.2969"/><rect fill="#F5F5F5" height="2" style="stroke:#666666;stroke-width:0.5;" width="4" x="596.7314" y="207.2969"/><text fill="#000000" font-family="sans-serif" font-size="14" lengthAdjust="spacing" textLength="101.9238" x="470.5" y="229.292">FastAPI Server</text><text fill="#000000" font-family="sans-serif" font-size="14" lengthAdjust="spacing" textLength="123.2314" x="470.5" y="245.5889">CORS &#183; body-limit</text></g><!--entity RT--><g class="entity" data-qualified-name="BEP.RT" data-source-line="31" id="ent0009"><rect fill="#F5F5F5" height="62.5938" rx="2.5" ry="2.5" style="stroke:#666666;stroke-width:0.5;" width="193.4121" x="526.5" y="314.2969"/><rect fill="#F5F5F5" height="10" style="stroke:#666666;stroke-width:0.5;" width="15" x="699.9121" y="319.2969"/><rect fill="#F5F5F5" height="2" style="stroke:#666666;stroke-width:0.5;" width="4" x="697.9121" y="321.2969"/><rect fill="#F5F5F5" height="2" style="stroke:#666666;stroke-width:0.5;" width="4" x="697.9121" y="325.2969"/><text fill="#000000" font-family="sans-serif" font-size="14" lengthAdjust="spacing" textLength="96.5986" x="541.5" y="347.292">Phase routers</text><text fill="#000000" font-family="sans-serif" font-size="14" lengthAdjust="spacing" textLength="153.4121" x="541.5" y="363.5889">phase1-6 &#183; workspace</text></g><!--entity CS--><g class="entity" data-qualified-name="BEP.CS" data-source-line="32" id="ent0010"><rect fill="#F5F5F5" height="62.5938" rx="2.5" ry="2.5" style="stroke:#666666;stroke-width:0.5;" width="146.832" x="448.5" y="432.2969"/><rect fill="#F5F5F5" height="10" style="stroke:#666666;stroke-width:0.5;" width="15" x="575.332" y="437.2969"/><rect fill="#F5F5F5" height="2" style="stroke:#666666;stroke-width:0.5;" width="4" x="573.332" y="439.2969"/><rect fill="#F5F5F5" height="2" style="stroke:#666666;stroke-width:0.5;" width="4" x="573.332" y="443.2969"/><text fill="#000000" font-family="sans-serif" font-size="14" lengthAdjust="spacing" textLength="106.832" x="463.5" y="465.292">ContextService</text><text fill="#000000" font-family="sans-serif" font-size="14" lengthAdjust="spacing" textLength="101.6094" x="463.5" y="481.5889">isolation seam</text></g><!--entity STG--><g class="entity" data-qualified-name="BEP.STG" data-source-line="33" id="ent0011"><rect fill="#F5F5F5" height="62.5938" rx="2.5" ry="2.5" style="stroke:#666666;stroke-width:0.5;" width="126.1602" x="459" y="550.2969"/><rect fill="#F5F5F5" height="10" style="stroke:#666666;stroke-width:0.5;" width="15" x="565.1602" y="555.2969"/><rect fill="#F5F5F5" height="2" style="stroke:#666666;stroke-width:0.5;" width="4" x="563.1602" y="557.2969"/><rect fill="#F5F5F5" height="2" style="stroke:#666666;stroke-width:0.5;" width="4" x="563.1602" y="561.2969"/><text fill="#000000" font-family="sans-serif" font-size="14" lengthAdjust="spacing" textLength="74.8057" x="474" y="583.292">storage.py</text><text fill="#000000" font-family="sans-serif" font-size="14" lengthAdjust="spacing" textLength="86.1602" x="474" y="599.5889">StoragePath</text></g><!--entity AIE--><g class="entity" data-qualified-name="BEP.AIE" data-source-line="34" id="ent0012"><rect fill="#F5F5F5" height="62.5938" rx="2.5" ry="2.5" style="stroke:#666666;stroke-width:0.5;" width="153.4219" x="625.5" y="432.2969"/><rect fill="#F5F5F5" height="10" style="stroke:#666666;stroke-width:0.5;" width="15" x="758.9219" y="437.2969"/><rect fill="#F5F5F5" height="2" style="stroke:#666666;stroke-width:0.5;" width="4" x="756.9219" y="439.2969"/><rect fill="#F5F5F5" height="2" style="stroke:#666666;stroke-width:0.5;" width="4" x="756.9219" y="443.2969"/><text fill="#000000" font-family="sans-serif" font-size="14" lengthAdjust="spacing" textLength="67.2178" x="640.5" y="465.292">ai_engine</text><text fill="#000000" font-family="sans-serif" font-size="14" lengthAdjust="spacing" textLength="113.4219" x="640.5" y="481.5889">provider routing</text></g><!--entity PROX--><g class="entity" data-qualified-name="BEP.PROX" data-source-line="35" id="ent0013"><rect fill="#F5F5F5" height="62.5938" rx="2.5" ry="2.5" style="stroke:#666666;stroke-width:0.5;" width="155.3838" x="808.5" y="432.2969"/><rect fill="#F5F5F5" height="10" style="stroke:#666666;stroke-width:0.5;" width="15" x="943.8838" y="437.2969"/><rect fill="#F5F5F5" height="2" style="stroke:#666666;stroke-width:0.5;" width="4" x="941.8838" y="439.2969"/><rect fill="#F5F5F5" height="2" style="stroke:#666666;stroke-width:0.5;" width="4" x="941.8838" y="443.2969"/><text fill="#000000" font-family="sans-serif" font-size="14" lengthAdjust="spacing" textLength="115.3838" x="823.5" y="465.292">taiga / jira proxy</text><text fill="#000000" font-family="sans-serif" font-size="14" lengthAdjust="spacing" textLength="102.3613" x="823.5" y="481.5889">SSRF &#183; _egress</text></g><!--entity STORE--><g class="entity" data-qualified-name="SSP.STORE" data-source-line="39" id="ent0015"><path d="M409.5,698.2969 C409.5,688.2969 521.9946,688.2969 521.9946,688.2969 C521.9946,688.2969 634.4893,688.2969 634.4893,698.2969 L634.4893,739.8906 C634.4893,749.8906 521.9946,749.8906 521.9946,749.8906 C521.9946,749.8906 409.5,749.8906 409.5,739.8906 L409.5,698.2969" fill="#E8F5E9" style="stroke:#66A36B;stroke-width:0.5;"/><path d="M409.5,698.2969 C409.5,708.2969 521.9946,708.2969 521.9946,708.2969 C521.9946,708.2969 634.4893,708.2969 634.4893,698.2969" fill="none" style="stroke:#66A36B;stroke-width:0.5;"/><text fill="#000000" font-family="sans-serif" font-size="14" lengthAdjust="spacing" textLength="85.5039" x="419.5" y="725.292">contextspec</text><text fill="#000000" font-family="sans-serif" font-size="14" lengthAdjust="spacing" textLength="204.9893" x="419.5" y="741.5889">Markdown + story-index.json</text></g><!--entity FSS--><g class="entity" data-qualified-name="SSP.FSS" data-source-line="40" id="ent0016"><rect fill="#F5F5F5" height="62.5938" rx="2.5" ry="2.5" style="stroke:#666666;stroke-width:0.5;" width="154.2217" x="445" y="805.7969"/><rect fill="#F5F5F5" height="10" style="stroke:#666666;stroke-width:0.5;" width="15" x="579.2217" y="810.7969"/><rect fill="#F5F5F5" height="2" style="stroke:#666666;stroke-width:0.5;" width="4" x="577.2217" y="812.7969"/><rect fill="#F5F5F5" height="2" style="stroke:#666666;stroke-width:0.5;" width="4" x="577.2217" y="816.7969"/><text fill="#000000" font-family="sans-serif" font-size="14" lengthAdjust="spacing" textLength="74.416" x="460" y="838.792">local disk /</text><text fill="#000000" font-family="sans-serif" font-size="14" lengthAdjust="spacing" textLength="114.2217" x="460" y="855.0889">Azure File Share</text></g><!--entity CL--><g class="entity" data-qualified-name="AIP.CL" data-source-line="44" id="ent0018"><rect fill="#F5F5F5" height="46.2969" rx="2.5" ry="2.5" style="stroke:#666666;stroke-width:0.5;" width="160.6748" x="1315.5" y="558.7969"/><rect fill="#F5F5F5" height="10" style="stroke:#666666;stroke-width:0.5;" width="15" x="1456.1748" y="563.7969"/><rect fill="#F5F5F5" height="2" style="stroke:#666666;stroke-width:0.5;" width="4" x="1454.1748" y="565.7969"/><rect fill="#F5F5F5" height="2" style="stroke:#666666;stroke-width:0.5;" width="4" x="1454.1748" y="569.7969"/><text fill="#000000" font-family="sans-serif" font-size="14" lengthAdjust="spacing" textLength="120.6748" x="1330.5" y="591.792">Anthropic Claude</text></g><!--entity OAI--><g class="entity" data-qualified-name="AIP.OAI" data-source-line="45" id="ent0019"><rect fill="#F5F5F5" height="46.2969" rx="2.5" ry="2.5" style="stroke:#666666;stroke-width:0.5;" width="91.0986" x="1194.5" y="558.7969"/><rect fill="#F5F5F5" height="10" style="stroke:#666666;stroke-width:0.5;" width="15" x="1265.5986" y="563.7969"/><rect fill="#F5F5F5" height="2" style="stroke:#666666;stroke-width:0.5;" width="4" x="1263.5986" y="565.7969"/><rect fill="#F5F5F5" height="2" style="stroke:#666666;stroke-width:0.5;" width="4" x="1263.5986" y="569.7969"/><text fill="#000000" font-family="sans-serif" font-size="14" lengthAdjust="spacing" textLength="51.0986" x="1209.5" y="591.792">OpenAI</text></g><!--entity GEM--><g class="entity" data-qualified-name="AIP.GEM" data-source-line="46" id="ent0020"><rect fill="#F5F5F5" height="46.2969" rx="2.5" ry="2.5" style="stroke:#666666;stroke-width:0.5;" width="143.5713" x="1020" y="558.7969"/><rect fill="#F5F5F5" height="10" style="stroke:#666666;stroke-width:0.5;" width="15" x="1143.5713" y="563.7969"/><rect fill="#F5F5F5" height="2" style="stroke:#666666;stroke-width:0.5;" width="4" x="1141.5713" y="565.7969"/><rect fill="#F5F5F5" height="2" style="stroke:#666666;stroke-width:0.5;" width="4" x="1141.5713" y="569.7969"/><text fill="#000000" font-family="sans-serif" font-size="14" lengthAdjust="spacing" textLength="103.5713" x="1035" y="591.792">Google Gemini</text></g><!--entity RLY--><g class="entity" data-qualified-name="PMP.RLY" data-source-line="50" id="ent0022"><rect fill="#F5F5F5" height="62.5938" rx="2.5" ry="2.5" style="stroke:#666666;stroke-width:0.5;" width="151.3301" x="1709.5" y="550.2969"/><rect fill="#F5F5F5" height="10" style="stroke:#666666;stroke-width:0.5;" width="15" x="1840.8301" y="555.2969"/><rect fill="#F5F5F5" height="2" style="stroke:#666666;stroke-width:0.5;" width="4" x="1838.8301" y="557.2969"/><rect fill="#F5F5F5" height="2" style="stroke:#666666;stroke-width:0.5;" width="4" x="1838.8301" y="561.2969"/><text fill="#000000" font-family="sans-serif" font-size="14" lengthAdjust="spacing" textLength="111.3301" x="1724.5" y="583.292">Cloudflare relay</text><text fill="#000000" font-family="sans-serif" font-size="14" lengthAdjust="spacing" textLength="88.5527" x="1724.5" y="599.5889">non-Azure IP</text></g><!--entity TG--><g class="entity" data-qualified-name="PMP.TG" data-source-line="51" id="ent0023"><rect fill="#F5F5F5" height="62.5938" rx="2.5" ry="2.5" style="stroke:#666666;stroke-width:0.5;" width="181.251" x="1679.5" y="687.7969"/><rect fill="#F5F5F5" height="10" style="stroke:#666666;stroke-width:0.5;" width="15" x="1840.751" y="692.7969"/><rect fill="#F5F5F5" height="2" style="stroke:#666666;stroke-width:0.5;" width="4" x="1838.751" y="694.7969"/><rect fill="#F5F5F5" height="2" style="stroke:#666666;stroke-width:0.5;" width="4" x="1838.751" y="698.7969"/><text fill="#000000" font-family="sans-serif" font-size="14" lengthAdjust="spacing" textLength="38.4863" x="1694.5" y="720.792">Taiga</text><text fill="#000000" font-family="sans-serif" font-size="14" lengthAdjust="spacing" textLength="141.251" x="1694.5" y="737.0889">api.taiga.io / private</text></g><!--entity JR--><g class="entity" data-qualified-name="PMP.JR" data-source-line="52" id="ent0024"><rect fill="#F5F5F5" height="62.5938" rx="2.5" ry="2.5" style="stroke:#666666;stroke-width:0.5;" width="146.3428" x="1533" y="550.2969"/><rect fill="#F5F5F5" height="10" style="stroke:#666666;stroke-width:0.5;" width="15" x="1659.3428" y="555.2969"/><rect fill="#F5F5F5" height="2" style="stroke:#666666;stroke-width:0.5;" width="4" x="1657.3428" y="557.2969"/><rect fill="#F5F5F5" height="2" style="stroke:#666666;stroke-width:0.5;" width="4" x="1657.3428" y="561.2969"/><text fill="#000000" font-family="sans-serif" font-size="14" lengthAdjust="spacing" textLength="66.7939" x="1548" y="583.292">Jira Cloud</text><ellipse cx="1553.5" cy="595.3906" fill="#000000" rx="2.5" ry="2.5"/><text fill="#000000" font-family="sans-serif" font-size="14" lengthAdjust="spacing" textLength="94.3428" x="1560" y="599.5889">.atlassian.net</text></g><!--entity GH--><g class="entity" data-qualified-name="VCSP.GH" data-source-line="56" id="ent0026"><rect fill="#F5F5F5" height="46.2969" rx="2.5" ry="2.5" style="stroke:#666666;stroke-width:0.5;" width="155.5752" x="1020" y="204.7969"/><rect fill="#F5F5F5" height="10" style="stroke:#666666;stroke-width:0.5;" width="15" x="1155.5752" y="209.7969"/><rect fill="#F5F5F5" height="2" style="stroke:#666666;stroke-width:0.5;" width="4" x="1153.5752" y="211.7969"/><rect fill="#F5F5F5" height="2" style="stroke:#666666;stroke-width:0.5;" width="4" x="1153.5752" y="215.7969"/><text fill="#000000" font-family="sans-serif" font-size="14" lengthAdjust="spacing" textLength="115.5752" x="1035" y="237.792">GitHub REST API</text></g><!--link UI to RQ--><g class="link" data-entity-1="ent0002" data-entity-2="ent0003" data-link-type="dependency" data-source-line="60" id="lnk27"><path d="M110,141.4169 C110,158.3469 110,174.1469 110,191.0869" fill="none" id="UI-to-RQ" style="stroke:#333333;stroke-width:1;"/><polygon fill="#333333" points="110,196.0869,114,187.0869,110,191.0869,106,187.0869,110,196.0869" style="stroke:#333333;stroke-width:1;stroke-linejoin:miter;stroke-miterlimit:10;"/></g><!--link UI to ZS--><g class="link" data-entity-1="ent0002" data-entity-2="ent0004" data-link-type="dependency" data-source-line="61" id="lnk28"><path d="M197.67,138.7969 C210.37,138.7969 219.25,138.7969 219.25,138.7969 C219.25,138.7969 219.25,165.5869 219.25,191.1669" fill="none" id="UI-to-ZS" style="stroke:#333333;stroke-width:1;"/><polygon fill="#333333" points="219.25,196.1669,223.25,187.1669,219.25,191.1669,215.25,187.1669,219.25,196.1669" style="stroke:#333333;stroke-width:1;stroke-linejoin:miter;stroke-miterlimit:10;"/></g><!--link RQ to PMA--><g class="link" data-entity-1="ent0003" data-entity-2="ent0005" data-link-type="dependency" data-source-line="62" id="lnk29"><path d="M168.25,259.4169 C168.25,276.3469 168.25,292.1469 168.25,309.0869" fill="none" id="RQ-to-PMA" style="stroke:#333333;stroke-width:1;"/><polygon fill="#333333" points="168.25,314.0869,172.25,305.0869,168.25,309.0869,164.25,305.0869,168.25,314.0869" style="stroke:#333333;stroke-width:1;stroke-linejoin:miter;stroke-miterlimit:10;"/></g><!--link UI to API--><g class="link" data-entity-1="ent0002" data-entity-2="ent0008" data-link-type="dependency" data-source-line="65" id="lnk30"><path d="M197.7,135.7969 C322.66,135.7969 537,135.7969 537,135.7969 C537,135.7969 537,164.5269 537,191.1369" fill="none" id="UI-to-API" style="stroke:#333333;stroke-width:1;"/><polygon fill="#333333" points="537,196.1369,541,187.1369,537,191.1369,533,187.1369,537,196.1369" style="stroke:#333333;stroke-width:1;stroke-linejoin:miter;stroke-miterlimit:10;"/><text fill="#000000" font-family="sans-serif" font-size="13" lengthAdjust="spacing" textLength="72.6616" x="324.52" y="148.8638">REST /api/*</text></g><!--link PMA to PROX--><g class="link" data-entity-1="ent0005" data-entity-2="ent0013" data-link-type="dependency" data-source-line="66" id="lnk31"><path d="M219,377.3669 C219,391.3969 219,404.7969 219,404.7969 C219,404.7969 860.17,404.7969 860.17,404.7969 C860.17,404.7969 860.17,413.1969 860.17,427.2269" fill="none" id="PMA-to-PROX" style="stroke:#333333;stroke-width:1;"/><polygon fill="#333333" points="860.17,432.2269,864.17,423.2269,860.17,427.2269,856.17,423.2269,860.17,432.2269" style="stroke:#333333;stroke-width:1;stroke-linejoin:miter;stroke-miterlimit:10;"/><text fill="#000000" font-family="sans-serif" font-size="13" lengthAdjust="spacing" textLength="60.3853" x="478.58" y="400.8638">/api/pm/*</text></g><!--link GHB to GH--><g class="link" data-entity-1="ent0006" data-entity-2="ent0026" data-link-type="dependency" data-source-line="67" id="lnk32"><path d="M392.1,109.7969 C593.93,109.7969 1098,109.7969 1098,109.7969 C1098,109.7969 1098,165.4269 1098,199.7669" fill="none" id="GHB-to-GH" style="stroke:#333333;stroke-width:1;"/><polygon fill="#333333" points="1098,204.7669,1102,195.7669,1098,199.7669,1094,195.7669,1098,204.7669" style="stroke:#333333;stroke-width:1;stroke-linejoin:miter;stroke-miterlimit:10;"/><text fill="#000000" font-family="sans-serif" font-size="13" lengthAdjust="spacing" textLength="94.4404" x="697.53" y="105.8638">browser-direct</text></g><!--link API to RT--><g class="link" data-entity-1="ent0008" data-entity-2="ent0009" data-link-type="dependency" data-source-line="70" id="lnk33"><path d="M572.5,259.4169 C572.5,276.3469 572.5,292.1469 572.5,309.0869" fill="none" id="API-to-RT" style="stroke:#333333;stroke-width:1;"/><polygon fill="#333333" points="572.5,314.0869,576.5,305.0869,572.5,309.0869,568.5,305.0869,572.5,314.0869" style="stroke:#333333;stroke-width:1;stroke-linejoin:miter;stroke-miterlimit:10;"/></g><!--link RT to CS--><g class="link" data-entity-1="ent0009" data-entity-2="ent0010" data-link-type="dependency" data-source-line="71" id="lnk34"><path d="M561,377.4169 C561,394.3469 561,410.1469 561,427.0869" fill="none" id="RT-to-CS" style="stroke:#333333;stroke-width:1;"/><polygon fill="#333333" points="561,432.0869,565,423.0869,561,427.0869,557,423.0869,561,432.0869" style="stroke:#333333;stroke-width:1;stroke-linejoin:miter;stroke-miterlimit:10;"/></g><!--link RT to AIE--><g class="link" data-entity-1="ent0009" data-entity-2="ent0012" data-link-type="dependency" data-source-line="72" id="lnk35"><path d="M672.5,377.4169 C672.5,394.3469 672.5,410.1469 672.5,427.0869" fill="none" id="RT-to-AIE" style="stroke:#333333;stroke-width:1;"/><polygon fill="#333333" points="672.5,432.0869,676.5,423.0869,672.5,427.0869,668.5,423.0869,672.5,432.0869" style="stroke:#333333;stroke-width:1;stroke-linejoin:miter;stroke-miterlimit:10;"/></g><!--link RT to PROX--><g class="link" data-entity-1="ent0009" data-entity-2="ent0013" data-link-type="dependency" data-source-line="73" id="lnk36"><path d="M719.58,345.7969 C803.54,345.7969 911.83,345.7969 911.83,345.7969 C911.83,345.7969 911.83,392.2269 911.83,427.1769" fill="none" id="RT-to-PROX" style="stroke:#333333;stroke-width:1;"/><polygon fill="#333333" points="911.83,432.1769,915.83,423.1769,911.83,427.1769,907.83,423.1769,911.83,432.1769" style="stroke:#333333;stroke-width:1;stroke-linejoin:miter;stroke-miterlimit:10;"/></g><!--link CS to STG--><g class="link" data-entity-1="ent0010" data-entity-2="ent0011" data-link-type="dependency" data-source-line="74" id="lnk37"><path d="M522,495.4169 C522,512.3469 522,528.1469 522,545.0869" fill="none" id="CS-to-STG" style="stroke:#333333;stroke-width:1;"/><polygon fill="#333333" points="522,550.0869,526,541.0869,522,545.0869,518,541.0869,522,550.0869" style="stroke:#333333;stroke-width:1;stroke-linejoin:miter;stroke-miterlimit:10;"/></g><!--link STG to STORE--><g class="link" data-entity-1="ent0011" data-entity-2="ent0015" data-link-type="dependency" data-source-line="77" id="lnk38"><path d="M522,613.3469 C522,635.6969 522,660.5769 522,682.8969" fill="none" id="STG-to-STORE" style="stroke:#333333;stroke-width:1;"/><polygon fill="#333333" points="522,687.8969,526,678.8969,522,682.8969,518,678.8969,522,687.8969" style="stroke:#333333;stroke-width:1;stroke-linejoin:miter;stroke-miterlimit:10;"/></g><!--link STORE to FSS--><g class="link" data-entity-1="ent0015" data-entity-2="ent0016" data-link-type="dependency" data-source-line="78" id="lnk39"><path d="M522,750.2969 C522,767.3669 522,783.5169 522,800.6769" fill="none" id="STORE-to-FSS" style="stroke:#333333;stroke-width:1;"/><polygon fill="#333333" points="522,805.6769,526,796.6769,522,800.6769,518,796.6769,522,805.6769" style="stroke:#333333;stroke-width:1;stroke-linejoin:miter;stroke-miterlimit:10;"/></g><!--link AIE to CL--><g class="link" data-entity-1="ent0012" data-entity-2="ent0018" data-link-type="dependency" data-source-line="79" id="lnk40"><path d="M706.5,495.4669 C706.5,505.3869 706.5,513.7969 706.5,513.7969 C706.5,513.7969 1396,513.7969 1396,513.7969 C1396,513.7969 1396,534.0469 1396,553.7769" fill="none" id="AIE-to-CL" style="stroke:#333333;stroke-width:1;"/><polygon fill="#333333" points="1396,558.7769,1400,549.7769,1396,553.7769,1392,549.7769,1396,558.7769" style="stroke:#333333;stroke-width:1;stroke-linejoin:miter;stroke-miterlimit:10;"/></g><!--link AIE to OAI--><g class="link" data-entity-1="ent0012" data-entity-2="ent0019" data-link-type="dependency" data-source-line="80" id="lnk41"><path d="M670.5,495.4669 C670.5,513.6069 670.5,532.7969 670.5,532.7969 C670.5,532.7969 1240,532.7969 1240,532.7969 C1240,532.7969 1240,541.0269 1240,553.7269" fill="none" id="AIE-to-OAI" style="stroke:#333333;stroke-width:1;"/><polygon fill="#333333" points="1240,558.7269,1244,549.7269,1240,553.7269,1236,549.7269,1240,558.7269" style="stroke:#333333;stroke-width:1;stroke-linejoin:miter;stroke-miterlimit:10;"/></g><!--link AIE to GEM--><g class="link" data-entity-1="ent0012" data-entity-2="ent0020" data-link-type="dependency" data-source-line="81" id="lnk42"><path d="M742.5,495.4169 C742.5,530.3669 742.5,581.7969 742.5,581.7969 C742.5,581.7969 912.21,581.7969 1014.58,581.7969" fill="none" id="AIE-to-GEM" style="stroke:#333333;stroke-width:1;"/><polygon fill="#333333" points="1019.58,581.7969,1010.58,577.7969,1014.58,581.7969,1010.58,585.7969,1019.58,581.7969" style="stroke:#333333;stroke-width:1;stroke-linejoin:miter;stroke-miterlimit:10;"/></g><!--link PROX to RLY--><g class="link" data-entity-1="ent0013" data-entity-2="ent0022" data-link-type="dependency" data-source-line="82" id="lnk43"><path d="M963.82,463.7969 C1182.21,463.7969 1785,463.7969 1785,463.7969 C1785,463.7969 1785,510.2269 1785,545.1769" fill="none" id="PROX-to-RLY" style="stroke:#333333;stroke-width:1;"/><polygon fill="#333333" points="1785,550.1769,1789,541.1769,1785,545.1769,1781,541.1769,1785,550.1769" style="stroke:#333333;stroke-width:1;stroke-linejoin:miter;stroke-miterlimit:10;"/><text fill="#000000" font-family="sans-serif" font-size="13" lengthAdjust="spacing" textLength="84.5698" x="1332.6" y="459.8638">Azure egress</text></g><!--link RLY to TG--><g class="link" data-entity-1="ent0022" data-entity-2="ent0023" data-link-type="dependency" data-source-line="83" id="lnk44"><path d="M1785,613.3469 C1785,635.5469 1785,660.1469 1785,682.4269" fill="none" id="RLY-to-TG" style="stroke:#333333;stroke-width:1;"/><polygon fill="#333333" points="1785,687.4269,1789,678.4269,1785,682.4269,1781,678.4269,1785,687.4269" style="stroke:#333333;stroke-width:1;stroke-linejoin:miter;stroke-miterlimit:10;"/></g><!--link PROX to JR--><g class="link" data-entity-1="ent0013" data-entity-2="ent0024" data-link-type="dependency" data-source-line="84" id="lnk45"><path d="M886,495.3669 C886,521.6469 886,554.7969 886,554.7969 C886,554.7969 1344.39,554.7969 1527.67,554.7969" fill="none" id="PROX-to-JR" style="stroke:#333333;stroke-width:1;"/><polygon fill="#333333" points="1532.67,554.7969,1523.67,550.7969,1527.67,554.7969,1523.67,558.7969,1532.67,554.7969" style="stroke:#333333;stroke-width:1;stroke-linejoin:miter;stroke-miterlimit:10;"/></g><?plantuml-src RLLHZXf74FsVKvGs7zbr3CHPiRBp4Mbs12pM4cPdi1CxH5Opqq2ReNlKtIoGA58EaRlaFqV9ILnLFMmWx211K_MwwjMhAl3ALnBYMkxWtp__Wdpll5n3R8kbyhBm6olXCZ7hscYf_LKKkPNIjR1Y3JDHh1RMR7IPcCfO-AhFpn72BKLfjaelO2ug9uyynI5YxlUOVhEklZloLafBlwyb6EkNviYXJIcThE7wsoEZ5Nf5ncxtkGJmUmHmQsmfRKFpXX-odXNGfLVqnr6S6Z5Y8S-ZlERdsIX1XkCeiRLcsxYl-JbobiABcN3oB53lTR_RU_CSyhIS-FhcDeeEJ2_wrcWlTGcNFygTRtzsyAfxTG72GR-NSY6__2Hdy6u87KYN60vUjMwcUcliQbwPBNm3JfLo9kolTEVTa2vaKXGU7ZRIxg4xrPTEsaTfmNdXvHNZiWV2VToW2LCxRwnq37HE6Gt__0sb5NFl0lfZJkXq174fQYyj8YT2BGHIUgki2A1q51DgeVnoCslDK49Cs_QEdOExMvJulwf9FIwwBvoFqo5bT3XwE5rRYwDiWmIt1maEi9mhcUfadELqPsRAVQjIQ-Kv3KAOAUk4pS50M5PDNr4rka2wEQGXWmmJWYVKWPsdsAgGKwsSgOGd7PmKQmOch03fXFJRzNwgyt1EXLyo8fyC22BK9waNk16Orff7R8rb8bXRO3Zi4Smtydr6-G21EugOPtsY-4aki1j1jpGR_tmYN5xB0YYtP87oF0Xqc3MuA48n3d5JFH9sXJkjQKhmphwbT2btE6H6X-kJSSPyAbE82ahbLj2PwlWt-Y7fA-n6lXGsQDNFynCcyH3Ifa9t4KfhcXLhlxIcLWKabTYKuNfoJwvnBNKyPCCuvbuDZA6k3-HQQHLcfJSwIOHpDp6c2adIKPCagSocd5V83goi1EgdZMu5viCqTFV-0o5vLATQrAhDihULGULhgnvn7HWOMaUZ31nsgb-qXQy4BeFGRVnrOzJRx8JM-oHdHlZPK1eeVxUPGTRB9pI9pU3JfQ-XXG_C3xkkyCDgL9pC4Uvsg_K3xMHpmdtB7lX4ItLs6-spPdywWBq-3qMhydqWqi6wEoyY31G2ua2XYwtr6XsucUmOtA6vsTfMgIp-cpnbFcGxfKr9cFSaoYPymYrfJZJcpP57ECdvJ4lo_w1eVghX4ly482J7zNi9DBjROSkha16lDs5eRFcTlzDeOiR0uVxfI1DsEDDGSUtC-Fu35Xjc9InRH2Po8S4d63Ry2m00?></g></svg>