<svg xmlns="http://www.w3.org/2000/svg" xmlns:xlink="http://www.w3.org/1999/xlink" contentStyleType="text/css" data-diagram-type="DESCRIPTION" height="601px" preserveAspectRatio="none" style="width:1784px;height:601px;background:#FFFFFF;" version="1.1" viewBox="0 0 1784 601" width="1784px" zoomAndPan="magnify"><?plantuml 1.2026.6?><defs/><g><g class="title" data-source-line="1"><text fill="#000000" font-family="sans-serif" font-size="14" font-weight="700" lengthAdjust="spacing" textLength="655.457" x="561.2136" y="22.9951">Apex Framework &#8212; Big Picture: Phases, Inputs, Outputs, and Literature Grounding</text></g><!--entity P0--><g class="entity" data-qualified-name="P0" data-source-line="22" id="ent0001"><rect fill="#F1F1F1" height="52.5938" rx="2.5" ry="2.5" style="stroke:#181818;stroke-width:0.5;" width="159.4668" x="209.5" y="44.2969"/><text fill="#000000" font-family="sans-serif" font-size="14" lengthAdjust="spacing" textLength="139.4668" x="219.5" y="67.292">Strategic Alignment</text><text fill="#000000" font-family="sans-serif" font-size="14" lengthAdjust="spacing" textLength="82.8994" x="219.5" y="83.5889">(Pre-Squad)</text></g><!--entity P1--><g class="entity" data-qualified-name="P1" data-source-line="23" id="ent0002"><rect fill="#F1F1F1" height="52.5938" rx="2.5" ry="2.5" style="stroke:#181818;stroke-width:0.5;" width="118.2666" x="465" y="44.2969"/><text fill="#000000" font-family="sans-serif" font-size="14" lengthAdjust="spacing" textLength="84.5332" x="475" y="67.292">Discovery &amp;</text><text fill="#000000" font-family="sans-serif" font-size="14" lengthAdjust="spacing" textLength="98.2666" x="475" y="83.5889">Requirements</text></g><!--entity P2--><g class="entity" data-qualified-name="P2" data-source-line="24" id="ent0003"><rect fill="#F1F1F1" height="52.5938" rx="2.5" ry="2.5" style="stroke:#181818;stroke-width:0.5;" width="101.1289" x="808.5" y="44.2969"/><text fill="#000000" font-family="sans-serif" font-size="14" lengthAdjust="spacing" textLength="63.7041" x="818.5" y="67.292">Design &amp;</text><text fill="#000000" font-family="sans-serif" font-size="14" lengthAdjust="spacing" textLength="81.1289" x="818.5" y="83.5889">Prototyping</text></g><!--entity P3--><g class="entity" data-qualified-name="P3" data-source-line="25" id="ent0004"><rect fill="#F1F1F1" height="36.2969" rx="2.5" ry="2.5" style="stroke:#181818;stroke-width:0.5;" width="131.166" x="1085.5" y="52.7969"/><text fill="#000000" font-family="sans-serif" font-size="14" lengthAdjust="spacing" textLength="111.166" x="1095.5" y="75.792">Implementation</text></g><!--entity P4--><g class="entity" data-qualified-name="P4" data-source-line="26" id="ent0005"><rect fill="#F1F1F1" height="36.2969" rx="2.5" ry="2.5" style="stroke:#181818;stroke-width:0.5;" width="71.5977" x="1322" y="52.7969"/><text fill="#000000" font-family="sans-serif" font-size="14" lengthAdjust="spacing" textLength="51.5977" x="1332" y="75.792">Testing</text></g><!--entity P5--><g class="entity" data-qualified-name="P5" data-source-line="27" id="ent0006"><rect fill="#F1F1F1" height="36.2969" rx="2.5" ry="2.5" style="stroke:#181818;stroke-width:0.5;" width="105.6338" x="1439" y="52.7969"/><text fill="#000000" font-family="sans-serif" font-size="14" lengthAdjust="spacing" textLength="85.6338" x="1449" y="75.792">Deployment</text></g><!--entity P6--><g class="entity" data-qualified-name="P6" data-source-line="28" id="ent0007"><rect fill="#F1F1F1" height="36.2969" rx="2.5" ry="2.5" style="stroke:#181818;stroke-width:0.5;" width="110.1592" x="578" y="231.7969"/><text fill="#000000" font-family="sans-serif" font-size="14" lengthAdjust="spacing" textLength="90.1592" x="588" y="254.792">Maintenance</text></g><g class="entity" data-qualified-name="GMN8" data-source-line="31" id="ent0009"><path d="M6,206.2969 L6,293.125 A0,0 0 0 0 6,293.125 L253.5205,293.125 A0,0 0 0 0 253.5205,293.125 L253.5205,216.2969 L243.5205,206.2969 L235.75,206.2969 L231.75,97.5969 L227.75,206.2969 L6,206.2969 A0,0 0 0 0 6,206.2969" fill="#FFFDF0" style="stroke:#999999;stroke-width:0.5;"/><path d="M243.5205,206.2969 L243.5205,216.2969 L253.5205,216.2969 L243.5205,206.2969" fill="#FFFDF0" style="stroke:#999999;stroke-width:0.5;"/><text fill="#000000" font-family="sans-serif" font-size="11" font-weight="700" lengthAdjust="spacing" textLength="16.3228" x="12" y="221.5073">In:</text><text fill="#000000" font-family="sans-serif" font-size="11" lengthAdjust="spacing" textLength="178.9756" x="31.8193" y="221.5073">market signals, stakeholder ask,</text><text fill="#000000" font-family="sans-serif" font-size="11" lengthAdjust="spacing" textLength="112.5674" x="12" y="234.312">business constraints</text><text fill="#000000" font-family="sans-serif" font-size="11" font-weight="700" lengthAdjust="spacing" textLength="26.8394" x="12" y="247.1167">Out:</text><text fill="#000000" font-family="sans-serif" font-size="11" lengthAdjust="spacing" textLength="196.1846" x="42.3359" y="247.1167">approved Unit of Work + OKRs/KPIs</text><text fill="#000000" font-family="sans-serif" font-size="11" font-weight="700" lengthAdjust="spacing" textLength="20.437" x="12" y="259.9214">Lit:</text><text fill="#000000" font-family="sans-serif" font-size="11" lengthAdjust="spacing" textLength="185.6143" x="35.9336" y="259.9214">single-threaded-leader ownership</text><text fill="#000000" font-family="sans-serif" font-size="11" lengthAdjust="spacing" textLength="222.9165" x="12" y="272.7261">(Bryar &amp; Carr, 2021) &#8212; closer precedent</text><text fill="#000000" font-family="sans-serif" font-size="11" lengthAdjust="spacing" textLength="192.4946" x="12" y="285.5308">than a Spotify-style pre-Squad role</text></g><g class="entity" data-qualified-name="GMN11" data-source-line="40" id="ent0012"><path d="M299.5,193.7969 L299.5,306.2344 A0,0 0 0 0 299.5,306.2344 L532.0298,306.2344 A0,0 0 0 0 532.0298,306.2344 L532.0298,203.7969 L522.0298,193.7969 L502.75,193.7969 L498.75,97.5969 L494.75,193.7969 L299.5,193.7969 A0,0 0 0 0 299.5,193.7969" fill="#FFFDF0" style="stroke:#999999;stroke-width:0.5;"/><path d="M522.0298,193.7969 L522.0298,203.7969 L532.0298,203.7969 L522.0298,193.7969" fill="#FFFDF0" style="stroke:#999999;stroke-width:0.5;"/><text fill="#000000" font-family="sans-serif" font-size="11" font-weight="700" lengthAdjust="spacing" textLength="16.3228" x="305.5" y="209.0073">In:</text><text fill="#000000" font-family="sans-serif" font-size="11" lengthAdjust="spacing" textLength="113.9424" x="325.3193" y="209.0073">Unit of Work + OKRs</text><text fill="#000000" font-family="sans-serif" font-size="11" font-weight="700" lengthAdjust="spacing" textLength="26.8394" x="305.5" y="221.812">Out:</text><text fill="#000000" font-family="sans-serif" font-size="11" lengthAdjust="spacing" textLength="149.5581" x="335.8359" y="221.812">locked Gherkin acceptance</text><text fill="#000000" font-family="sans-serif" font-size="11" lengthAdjust="spacing" textLength="138.7944" x="305.5" y="234.6167">criteria + stable spec IDs</text><text fill="#000000" font-family="sans-serif" font-size="11" lengthAdjust="spacing" textLength="114.0068" x="305.5" y="247.4214">(functional-spec.md)</text><text fill="#000000" font-family="sans-serif" font-size="11" font-weight="700" lengthAdjust="spacing" textLength="20.437" x="305.5" y="260.2261">Lit:</text><text fill="#000000" font-family="sans-serif" font-size="11" lengthAdjust="spacing" textLength="142.0708" x="329.4336" y="260.2261">Mob Elaboration (Raja SP,</text><text fill="#000000" font-family="sans-serif" font-size="11" lengthAdjust="spacing" textLength="211.5298" x="305.5" y="273.0308">AI-DLC, 2025); epic-organized Gherkin</text><text fill="#000000" font-family="sans-serif" font-size="11" lengthAdjust="spacing" textLength="203.4839" x="305.5" y="285.8354">outperforms per-scenario generation</text><text fill="#000000" font-family="sans-serif" font-size="11" lengthAdjust="spacing" textLength="119.4585" x="305.5" y="298.6401">(Siddeeq et al., 2026)</text></g><g class="entity" data-qualified-name="GMN14" data-source-line="51" id="ent0015"><path d="M733,193.7969 L733,306.2344 A0,0 0 0 0 733,306.2344 L984.8818,306.2344 A0,0 0 0 0 984.8818,306.2344 L984.8818,203.7969 L974.8818,193.7969 L863,193.7969 L859,97.5969 L855,193.7969 L733,193.7969 A0,0 0 0 0 733,193.7969" fill="#FFFDF0" style="stroke:#999999;stroke-width:0.5;"/><path d="M974.8818,193.7969 L974.8818,203.7969 L984.8818,203.7969 L974.8818,193.7969" fill="#FFFDF0" style="stroke:#999999;stroke-width:0.5;"/><text fill="#000000" font-family="sans-serif" font-size="11" font-weight="700" lengthAdjust="spacing" textLength="16.3228" x="739" y="209.0073">In:</text><text fill="#000000" font-family="sans-serif" font-size="11" lengthAdjust="spacing" textLength="82.6343" x="758.8193" y="209.0073">locked Gherkin</text><text fill="#000000" font-family="sans-serif" font-size="11" font-weight="700" lengthAdjust="spacing" textLength="26.8394" x="739" y="221.812">Out:</text><text fill="#000000" font-family="sans-serif" font-size="11" lengthAdjust="spacing" textLength="153.9033" x="769.3359" y="221.812">locked Technical Spec + UX</text><text fill="#000000" font-family="sans-serif" font-size="11" lengthAdjust="spacing" textLength="139.2295" x="739" y="234.6167">Brief + Runtime Contract</text><text fill="#000000" font-family="sans-serif" font-size="11" lengthAdjust="spacing" textLength="214.833" x="739" y="247.4214">(technical-spec.md, design-bundle.md,</text><text fill="#000000" font-family="sans-serif" font-size="11" lengthAdjust="spacing" textLength="98.3018" x="739" y="260.2261">runtime-spec.md)</text><text fill="#000000" font-family="sans-serif" font-size="11" font-weight="700" lengthAdjust="spacing" textLength="20.437" x="739" y="273.0308">Lit:</text><text fill="#000000" font-family="sans-serif" font-size="11" lengthAdjust="spacing" textLength="150.4873" x="762.9336" y="273.0308">"spec-driven development"</text><text fill="#000000" font-family="sans-serif" font-size="11" lengthAdjust="spacing" textLength="230.8818" x="739" y="285.8354">(Thoughtworks, 2025) &#8212; direct precedent</text><text fill="#000000" font-family="sans-serif" font-size="11" lengthAdjust="spacing" textLength="204.8105" x="739" y="298.6401">for anchoring the spec as the artifact</text></g><g class="entity" data-qualified-name="GMN17" data-source-line="62" id="ent0018"><path d="M1030,187.2969 L1030,312.5391 A0,0 0 0 0 1030,312.5391 L1271.9453,312.5391 A0,0 0 0 0 1271.9453,312.5391 L1271.9453,197.2969 L1261.9453,187.2969 L1155,187.2969 L1151,88.9469 L1147,187.2969 L1030,187.2969 A0,0 0 0 0 1030,187.2969" fill="#FFFDF0" style="stroke:#999999;stroke-width:0.5;"/><path d="M1261.9453,187.2969 L1261.9453,197.2969 L1271.9453,197.2969 L1261.9453,187.2969" fill="#FFFDF0" style="stroke:#999999;stroke-width:0.5;"/><text fill="#000000" font-family="sans-serif" font-size="11" font-weight="700" lengthAdjust="spacing" textLength="16.3228" x="1036" y="202.5073">In:</text><text fill="#000000" font-family="sans-serif" font-size="11" lengthAdjust="spacing" textLength="134.8198" x="1055.8193" y="202.5073">locked Technical Spec +</text><text fill="#000000" font-family="sans-serif" font-size="11" lengthAdjust="spacing" textLength="97.2544" x="1036" y="215.312">Runtime Contract</text><text fill="#000000" font-family="sans-serif" font-size="11" font-weight="700" lengthAdjust="spacing" textLength="26.8394" x="1036" y="228.1167">Out:</text><text fill="#000000" font-family="sans-serif" font-size="11" lengthAdjust="spacing" textLength="169.877" x="1066.3359" y="228.1167">developer packs; code passing</text><text fill="#000000" font-family="sans-serif" font-size="11" lengthAdjust="spacing" textLength="205.4443" x="1036" y="240.9214">Consistency Factor tests (Bolts done)</text><text fill="#000000" font-family="sans-serif" font-size="11" font-weight="700" lengthAdjust="spacing" textLength="20.437" x="1036" y="253.7261">Lit:</text><text fill="#000000" font-family="sans-serif" font-size="11" lengthAdjust="spacing" textLength="134.8145" x="1059.9336" y="253.7261">Bolts / Mob Construction</text><text fill="#000000" font-family="sans-serif" font-size="11" lengthAdjust="spacing" textLength="196.3027" x="1036" y="266.5308">(Raja SP, AI-DLC, 2025); mandatory</text><text fill="#000000" font-family="sans-serif" font-size="11" lengthAdjust="spacing" textLength="217.728" x="1036" y="279.3354">human validation answers documented</text><text fill="#000000" font-family="sans-serif" font-size="11" lengthAdjust="spacing" textLength="220.9453" x="1036" y="292.1401">AI-code security gaps (Zhao et al. 2025;</text><text fill="#000000" font-family="sans-serif" font-size="11" lengthAdjust="spacing" textLength="91.3623" x="1036" y="304.9448">Veracode, 2025)</text></g><g class="entity" data-qualified-name="GMN20" data-source-line="74" id="ent0021"><path d="M1317,193.7969 L1317,306.2344 A0,0 0 0 0 1317,306.2344 L1519.3389,306.2344 A0,0 0 0 0 1519.3389,306.2344 L1519.3389,203.7969 L1509.3389,193.7969 L1362,193.7969 L1358,88.9469 L1354,193.7969 L1317,193.7969 A0,0 0 0 0 1317,193.7969" fill="#FFFDF0" style="stroke:#999999;stroke-width:0.5;"/><path d="M1509.3389,193.7969 L1509.3389,203.7969 L1519.3389,203.7969 L1509.3389,193.7969" fill="#FFFDF0" style="stroke:#999999;stroke-width:0.5;"/><text fill="#000000" font-family="sans-serif" font-size="11" font-weight="700" lengthAdjust="spacing" textLength="16.3228" x="1323" y="209.0073">In:</text><text fill="#000000" font-family="sans-serif" font-size="11" lengthAdjust="spacing" textLength="115.833" x="1342.8193" y="209.0073">implemented code +</text><text fill="#000000" font-family="sans-serif" font-size="11" lengthAdjust="spacing" textLength="82.6343" x="1323" y="221.812">locked Gherkin</text><text fill="#000000" font-family="sans-serif" font-size="11" font-weight="700" lengthAdjust="spacing" textLength="26.8394" x="1323" y="234.6167">Out:</text><text fill="#000000" font-family="sans-serif" font-size="11" lengthAdjust="spacing" textLength="102.5449" x="1353.3359" y="234.6167">BDD-verified Story</text><text fill="#000000" font-family="sans-serif" font-size="11" lengthAdjust="spacing" textLength="66.7412" x="1323" y="247.4214">(qa_passed)</text><text fill="#000000" font-family="sans-serif" font-size="11" font-weight="700" lengthAdjust="spacing" textLength="20.437" x="1323" y="260.2261">Lit:</text><text fill="#000000" font-family="sans-serif" font-size="11" lengthAdjust="spacing" textLength="157.4053" x="1346.9336" y="260.2261">LLM-generated BDD/Gherkin</text><text fill="#000000" font-family="sans-serif" font-size="11" lengthAdjust="spacing" textLength="170.0381" x="1323" y="273.0308">validated as a pattern, not just</text><text fill="#000000" font-family="sans-serif" font-size="11" lengthAdjust="spacing" textLength="159.3926" x="1323" y="285.8354">plausible (arXiv:2603.04729;</text><text fill="#000000" font-family="sans-serif" font-size="11" lengthAdjust="spacing" textLength="102.8457" x="1323" y="298.6401">arXiv:2508.20744)</text></g><g class="entity" data-qualified-name="GMN23" data-source-line="85" id="ent0024"><path d="M1564.5,206.2969 L1564.5,293.125 L1769.8843,293.125 L1769.8843,216.2969 L1759.8843,206.2969 L1564.5,206.2969" fill="#FFFDF0" style="stroke:#999999;stroke-width:0.5;"/><path d="M1759.8843,206.2969 L1759.8843,216.2969 L1769.8843,216.2969 L1759.8843,206.2969" fill="#FFFDF0" style="stroke:#999999;stroke-width:1;"/><text fill="#000000" font-family="sans-serif" font-size="11" font-weight="700" lengthAdjust="spacing" textLength="16.3228" x="1570.5" y="221.5073">In:</text><text fill="#000000" font-family="sans-serif" font-size="11" lengthAdjust="spacing" textLength="90.7124" x="1590.3193" y="221.5073">qa_passed Story</text><text fill="#000000" font-family="sans-serif" font-size="11" font-weight="700" lengthAdjust="spacing" textLength="26.8394" x="1570.5" y="234.312">Out:</text><text fill="#000000" font-family="sans-serif" font-size="11" lengthAdjust="spacing" textLength="93.5161" x="1600.8359" y="234.312">deployed code +</text><text fill="#000000" font-family="sans-serif" font-size="11" lengthAdjust="spacing" textLength="107.728" x="1570.5" y="247.1167">deployment-log.md</text><text fill="#000000" font-family="sans-serif" font-size="11" font-weight="700" lengthAdjust="spacing" textLength="20.437" x="1570.5" y="259.9214">Lit:</text><text fill="#000000" font-family="sans-serif" font-size="11" lengthAdjust="spacing" textLength="142.1299" x="1594.4336" y="259.9214">DORA capabilities "strong</text><text fill="#000000" font-family="sans-serif" font-size="11" lengthAdjust="spacing" textLength="184.3843" x="1570.5" y="272.7261">version control" / "small batches"</text><text fill="#000000" font-family="sans-serif" font-size="11" lengthAdjust="spacing" textLength="153.2803" x="1570.5" y="285.5308">(DORA/Google Cloud, 2025)</text></g><g class="entity" data-qualified-name="GMN26" data-source-line="94" id="ent0027"><path d="M496.5,402.2969 L496.5,586.7578 A0,0 0 0 0 496.5,586.7578 L769.6567,586.7578 A0,0 0 0 0 769.6567,586.7578 L769.6567,412.2969 L759.6567,402.2969 L637,402.2969 L633,268.1769 L629,402.2969 L496.5,402.2969 A0,0 0 0 0 496.5,402.2969" fill="#FFFDF0" style="stroke:#999999;stroke-width:0.5;"/><path d="M759.6567,402.2969 L759.6567,412.2969 L769.6567,412.2969 L759.6567,402.2969" fill="#FFFDF0" style="stroke:#999999;stroke-width:0.5;"/><text fill="#000000" font-family="sans-serif" font-size="11" font-weight="700" lengthAdjust="spacing" textLength="16.3228" x="502.5" y="417.5073">In:</text><text fill="#000000" font-family="sans-serif" font-size="11" lengthAdjust="spacing" textLength="190.5342" x="522.3193" y="417.5073">deployed code + post-deployment</text><text fill="#000000" font-family="sans-serif" font-size="11" lengthAdjust="spacing" textLength="183.1919" x="502.5" y="430.312">feedback (bug / change request /</text><text fill="#000000" font-family="sans-serif" font-size="11" lengthAdjust="spacing" textLength="100.375" x="502.5" y="443.1167">monitoring signal)</text><text fill="#000000" font-family="sans-serif" font-size="11" font-weight="700" lengthAdjust="spacing" textLength="26.8394" x="502.5" y="455.9214">Out:</text><text fill="#000000" font-family="sans-serif" font-size="11" lengthAdjust="spacing" textLength="162.9482" x="532.8359" y="455.9214">classified signal routed to the</text><text fill="#000000" font-family="sans-serif" font-size="11" lengthAdjust="spacing" textLength="244.4385" x="502.5" y="468.7261">owning phase, or a permanent Fix Log entry</text><text fill="#000000" font-family="sans-serif" font-size="11" font-weight="700" lengthAdjust="spacing" textLength="20.437" x="502.5" y="481.5308">Lit:</text><text fill="#000000" font-family="sans-serif" font-size="11" lengthAdjust="spacing" textLength="185.6519" x="526.4336" y="481.5308">"AI is an amplifier" &#8212; governance</text><text fill="#000000" font-family="sans-serif" font-size="11" lengthAdjust="spacing" textLength="188.2192" x="502.5" y="494.3354">determines which way it amplifies</text><text fill="#000000" font-family="sans-serif" font-size="11" lengthAdjust="spacing" textLength="229.5283" x="502.5" y="507.1401">(DORA/Google Cloud, 2025); this phase is</text><text fill="#000000" font-family="sans-serif" font-size="11" lengthAdjust="spacing" textLength="248.1875" x="502.5" y="519.9448">framework-original, not adapted from AI-DLC</text><line style="stroke:#999999;stroke-width:1;" x1="497.5" x2="768.6567" y1="522.5391" y2="522.5391"/><text fill="#000000" font-family="sans-serif" font-size="11" lengthAdjust="spacing" textLength="186.71" x="502.5" y="536.7495">Explicit answer to being read as a</text><text fill="#000000" font-family="sans-serif" font-size="11" lengthAdjust="spacing" textLength="212.8403" x="502.5" y="549.5542">linear/Waterfall model: Maintenance is</text><text fill="#000000" font-family="sans-serif" font-size="11" lengthAdjust="spacing" textLength="221.2729" x="502.5" y="562.3589">not a dead end, and re-opening a phase</text><text fill="#000000" font-family="sans-serif" font-size="11" lengthAdjust="spacing" textLength="252.1567" x="502.5" y="575.1636">is always a human decision, never automatic.</text></g><!--link P5 to GMN23--><g class="link" data-entity-1="ent0006" data-entity-2="ent0024" data-link-type="association" data-source-line="85" id="lnk25"><path d="M1532,88.9969 C1532,134.6269 1532,250.2969 1532,250.2969 C1532,250.2969 1545.68,250.2969 1564.34,250.2969" fill="none" id="P5-GMN23" style="stroke:#333333;stroke-width:1;stroke-dasharray:7,7;"/></g><!--link P0 to P1--><g class="link" data-entity-1="ent0001" data-entity-2="ent0002" data-link-type="dependency" data-source-line="110" id="lnk29"><path d="M368.56,71.2969 C400.12,71.2969 430.77,71.2969 459.96,71.2969" fill="none" id="P0-to-P1" style="stroke:#333333;stroke-width:1;"/><polygon fill="#333333" points="464.96,71.2969,455.96,67.2969,459.96,71.2969,455.96,75.2969,464.96,71.2969" style="stroke:#333333;stroke-width:1;stroke-linejoin:miter;stroke-miterlimit:10;"/><text fill="#000000" font-family="sans-serif" font-size="11" lengthAdjust="spacing" textLength="68.4868" x="382.76" y="82.5073">Unit of Work</text></g><!--link P1 to P2--><g class="link" data-entity-1="ent0002" data-entity-2="ent0003" data-link-type="dependency" data-source-line="111" id="lnk30"><path d="M583.12,71.2969 C647.08,71.2969 742.98,71.2969 803.4,71.2969" fill="none" id="P1-to-P2" style="stroke:#333333;stroke-width:1;"/><polygon fill="#333333" points="808.4,71.2969,799.4,67.2969,803.4,71.2969,799.4,75.2969,808.4,71.2969" style="stroke:#333333;stroke-width:1;stroke-linejoin:miter;stroke-miterlimit:10;"/><text fill="#000000" font-family="sans-serif" font-size="11" lengthAdjust="spacing" textLength="43.1836" x="651.76" y="68.5073">Gherkin</text></g><!--link P2 to P3--><g class="link" data-entity-1="ent0003" data-entity-2="ent0004" data-link-type="dependency" data-source-line="112" id="lnk31"><path d="M909.53,71.2969 C958.25,71.2969 1027.24,71.2969 1080.47,71.2969" fill="none" id="P2-to-P3" style="stroke:#333333;stroke-width:1;"/><polygon fill="#333333" points="1085.47,71.2969,1076.47,67.2969,1080.47,71.2969,1076.47,75.2969,1085.47,71.2969" style="stroke:#333333;stroke-width:1;stroke-linejoin:miter;stroke-miterlimit:10;"/><text fill="#000000" font-family="sans-serif" font-size="11" lengthAdjust="spacing" textLength="56.7832" x="940.5" y="68.5073">Tech Spec</text></g><!--link P3 to P4--><g class="link" data-entity-1="ent0004" data-entity-2="ent0005" data-link-type="dependency" data-source-line="113" id="lnk32"><path d="M1216.78,71.2969 C1251.59,71.2969 1287.98,71.2969 1316.93,71.2969" fill="none" id="P3-to-P4" style="stroke:#333333;stroke-width:1;"/><polygon fill="#333333" points="1321.93,71.2969,1312.93,67.2969,1316.93,71.2969,1312.93,75.2969,1321.93,71.2969" style="stroke:#333333;stroke-width:1;stroke-linejoin:miter;stroke-miterlimit:10;"/><text fill="#000000" font-family="sans-serif" font-size="11" lengthAdjust="spacing" textLength="56.9336" x="1255.85" y="82.5073">Story built</text></g><!--link P4 to P5--><g class="link" data-entity-1="ent0005" data-entity-2="ent0006" data-link-type="dependency" data-source-line="114" id="lnk33"><path d="M1394.26,71.2969 C1407.98,71.2969 1418.9,71.2969 1433.85,71.2969" fill="none" id="P4-to-P5" style="stroke:#333333;stroke-width:1;"/><polygon fill="#333333" points="1438.85,71.2969,1429.85,67.2969,1433.85,71.2969,1429.85,75.2969,1438.85,71.2969" style="stroke:#333333;stroke-width:1;stroke-linejoin:miter;stroke-miterlimit:10;"/><text fill="#000000" font-family="sans-serif" font-size="11" lengthAdjust="spacing" textLength="58.1582" x="1387.56" y="82.5073">qa_passed</text></g><!--link P5 to P6--><g class="link" data-entity-1="ent0006" data-entity-2="ent0007" data-link-type="dependency" data-source-line="115" id="lnk34"><path d="M1479,88.8369 C1479,110.0169 1479,142.2969 1479,142.2969 C1479,142.2969 635.5,142.2969 635.5,142.2969 C635.5,142.2969 635.5,195.8869 635.5,226.5569" fill="none" id="P5-to-P6" style="stroke:#333333;stroke-width:1;"/><polygon fill="#333333" points="635.5,231.5569,639.5,222.5569,635.5,226.5569,631.5,222.5569,635.5,231.5569" style="stroke:#333333;stroke-width:1;stroke-linejoin:miter;stroke-miterlimit:10;"/><text fill="#000000" font-family="sans-serif" font-size="11" lengthAdjust="spacing" textLength="50.7783" x="988.35" y="139.5073">deployed</text></g><!--reverse link P1 to P6--><g class="link" data-entity-1="ent0002" data-entity-2="ent0007" data-link-type="dependency" data-source-line="118" id="lnk36"><path d="M555.25,102.6669 C555.25,152.7469 555.25,250.2969 555.25,250.2969 C555.25,250.2969 565.07,250.2969 577.74,250.2969" fill="none" id="P1-backto-P6" style="stroke:#333333;stroke-width:1;stroke-dasharray:7,7;"/><polygon fill="#333333" points="555.25,97.6669,551.25,106.6669,555.25,102.6669,559.25,106.6669,555.25,97.6669" style="stroke:#333333;stroke-width:1;stroke-linejoin:miter;stroke-miterlimit:10;"/><text fill="#000000" font-family="sans-serif" font-size="11" lengthAdjust="spacing" textLength="113.0454" x="397.9976" y="156.4373">governed loop-back:</text><text fill="#000000" font-family="sans-serif" font-size="11" lengthAdjust="spacing" textLength="170.8008" x="369.1199" y="169.242">a classified signal re-opens the</text><text fill="#000000" font-family="sans-serif" font-size="11" lengthAdjust="spacing" textLength="200.5405" x="354.25" y="182.0467">flagged phase (never patched blind)</text></g><?plantuml-src XLRjRXit4FolfrYuG2exFbkMFzBOG077ZW8Z3YBOIHCK1WgAHzsnfiWpoREY5WNw47t2FabdUP9yiXLN_c69krpkpiui6NKqYauhzOq6NapKrFbR-lVlV-YDBcYePQozEgPXAO8AstHXgphY_ySwDb-4pUbIH-K5Ez8xxsgRQrjqEk5MsqeW98s4l2sIuSmPv-c7GVgqF48fSZV5DXeB4rJB8jsaSbRPU1rdoBEUc7xBQhHLSLOfSZwMhcMmBbT1LNHms5hqmjxouklUkWFepmxH6-TpvUTf7gKFhpufu93_O1auPAR_KBItt_bhvVoedWPydJvh0mu6vuFUIi2zbO2dthlft7a_VHuRspixNiaeR074DguZUgCABUdKwC9EKEgDxGwzogxlQf5lRf08DEorjvph8DszyZDwSMElr5sjlU9zeV7TM_5L0L7PSUXTTEW6sjZuzTj-5vFAf20YQcSRX_ssmoSLudBhmUeHbN4ptjiO3zl63qBRgAomKZNMequdeJzoCRe9kJ4NHxIrTM6FjxPe8lojYiH9WshR5AAuLQKpw1Astsx3TLG7y2e4SCC6e8S3Gee0rdC8KLKUyEJqsUh81tnXpRoaZ--lmkxxuKNZ35MmCq8XpooMNebSvPdXVvxSr2eVIbt1j_l6puId5tGclD-cVg-_jvaaA8qByArGhifHFdnZAIm9kgvSrEDP5f8ggaKpoJkZEWgQP0YU0h7N0c9DykqYZPEtAF5TgJnuHa9ALKL66KxIi-Arm3R0Dq86eLAIBiuvGdTSMyaz5YRZvPr9lja6v8CRqLiZHiud9b3tIloEWeQC_Eb5TdvvbY0ut3mXLMcPELy82rulSu6Vm_XHVkpy912-P4620LuxAfHLJLpEv5hdkL9tX7uBivF27cq-0q-_1Szg_MkG-QHaQRKK1ir0yI_fyrTMjjTgZ1zNjOrwekWCglH2SkkwSR5ZWSisvKazsGYJm2XUWPzljgu5RuCNizphUsMn-LuPLoLXSFnFfQkBCl843tCC4uropNfPeH6Wm-YMfVCyT6Cvxo3qmz-51xauwUz3jVyKgiU0m6CD2aiOvzaplp4DmmdKbeFA8h1Yu8WzGGT8MyveWBt8E6941CZ56VpBCRLNi6cMTnF1pf9oQxbWme9ZZnasmVqb47e6fxB6BxeNHkSDCuKDKuWK9ycQGLPvGz6KQ52oXWncL8WAEVrQ2ZVdMOfz0jTVG4NsdP_s39e7BJJrOb02qdGI0_bzDhuvFyymglLOmtuzBwLx9tvZ9DKgUoulFsHpXS0PEtSV0ixhnZf88D2728dRRKwOVgy3jwuo0fEHvTuL_gk-F-uVzVPtUWUl-g-vtFdQOU-ddNxlrS71SmKVjWfUvhfClyKHdlnj8FBbNP0PLq0UxVhEFrwTaXIL66cZerO1UedU9Je1ey1DbKn5PpP0b8qm4SRWUH9bgKAI44VOVUSSNordnjNv__Vkg5NAetofSY5c3ocpy9JA-Jr4tL5T80U9ULueyhXaGMxQXSl4OJ8tmcnkgSqs9DAmGbAt6ojcVirjYuwroyDnQdblnK-sRMAXyum4j_cHCz3VwD8LXEzpg1UJvVI2D3eFseE0V83VIDEZu9U0dK_-N84L4xuTQLfgMT9Kp0Zto69FU0x44oI88r9YE8lHMBmuCULreL5DGpYHYufh6dk0t4WMtXa--FVs6ywIV6ZI9nS-Kbmntx29lImOv2ZyxXSmse-vonDqn1nJwxdGf92EGrtOYXut3rfSfnXC2KNHf0j71iUWN5P7Cofo9JLp2ZbZbW7d6fp0w90xBReCUvIXjZ9cF-F-fUELUxU3bGTh7zQ58F7ZmR0F0q_ND5Wx-FbWEe0foGQl5crY1miFnaCOb-hguEU3wGYc1LixdHyJjlDM0tVZN9KnJOy9KpQzWznoFF1ZisdJsDKUZm6NHZPxXgP7YBvJLplpWjT4lR5Y7P4RsDCTT6F7HXG5Z0rTkWt4LT9gJYFq5xFjFm00?></g></svg>